TASAExplorer.glyphspackage
{
glyphname = exclam;
kernLeft = exclam;
kernRight = exclam;
layers = (
{
layerId = m01;
shapes = (
{
closed = 1;
nodes = (
(204,0,l),
(204,134,l),
(36,134,l),
(36,0,l)
);
},
{
closed = 1;
nodes = (
(184,180,l),
(202,680,l),
(38,680,l),
(56,180,l)
);
}
);
width = 240;
},
{
layerId = "8DAFC702-8226-41F4-8BBE-2050DDC1B01E";
shapes = (
{
closed = 1;
nodes = (
(184,0,l),
(184,114,l),
(80,114,l),
(80,0,l)
);
},
{
closed = 1;
nodes = (
(165,190,l),
(179,680,l),
(85,680,l),
(99,190,l)
);
}
);
width = 264;
},
{
associatedMasterId = "8DAFC702-8226-41F4-8BBE-2050DDC1B01E";
layerId = "19D0DED8-FD76-4BD1-A446-56D9DBA3F6E4";
name = "Mar 4, 25 at 21:12";
shapes = (
{
closed = 1;
nodes = (
(45,0,l),
(145,0,l),
(145,95,l),
(45,95,l)
);
},
{
closed = 1;
nodes = (
(54,190,l),
(136,190,l),
(136,700,l),
(54,700,l)
);
}
);
width = 190;
},
{
associatedMasterId = "8DAFC702-8226-41F4-8BBE-2050DDC1B01E";
layerId = "6CEE3160-4F3D-41F1-AAE9-8485DCF6067E";
name = "Jun 19, 25 at 00:47";
shapes = (
{
closed = 1;
nodes = (
(80,0,l),
(180,0,l),
(180,120,l),
(80,120,l)
);
},
{
closed = 1;
nodes = (
(95,220,l),
(165,220,l),
(175,680,l),
(85,680,l)
);
}
);
width = 260;
}
);
metricRight = "=|";
unicode = 33;
userData = {
KernOnName = exclam;
KernOnSpecialSpacing = {
L = "spaced-off";
};
};
}
{
glyphname = numbersign;
kernLeft = numbersign;
kernRight = numbersign;
layers = (
{
layerId = m01;
shapes = (
{
closed = 1;
nodes = (
(230,0,l),
(340,680,l),
(200,680,l),
(91,0,l)
);
},
{
closed = 1;
nodes = (
(496,0,l),
(606,680,l),
(466,680,l),
(357,0,l)
);
},
{
closed = 1;
nodes = (
(684,405,l),
(684,535,l),
(42,535,l),
(42,405,l)
);
},
{
closed = 1;
nodes = (
(654,147,l),
(654,277,l),
(12,277,l),
(12,147,l)
);
}
);
width = 696;
},
{
layerId = "8DAFC702-8226-41F4-8BBE-2050DDC1B01E";
shapes = (
{
closed = 1;
nodes = (
(195,0,l),
(304,680,l),
(229,680,l),
(119,0,l)
);
},
{
closed = 1;
nodes = (
(431,0,l),
(541,680,l),
(464,680,l),
(355,0,l)
);
},
{
closed = 1;
nodes = (
(640,426,l),
(640,494,l),
(55,494,l),
(55,426,l)
);
},
{
closed = 1;
nodes = (
(610,186,l),
(610,254,l),
(20,254,l),
(20,186,l)
);
}
);
width = 660;
},
{
associatedMasterId = "8DAFC702-8226-41F4-8BBE-2050DDC1B01E";
layerId = "369685AE-7788-4C12-A8EA-F44F257D1654";
name = "Nov 18, 22, 11:58";
shapes = (
{
closed = 1;
nodes = (
(159,10,l),
(212,214,l),
(219,250,l),
(272,452,l),
(279,488,l),
(332,690,l),
(259,690,l),
(206,488,l),
(199,452,l),
(146,250,l),
(139,214,l),
(86,10,l)
);
},
{
closed = 1;
nodes = (
(400,10,l),
(453,214,l),
(460,250,l),
(513,452,l),
(520,488,l),
(573,690,l),
(500,690,l),
(447,488,l),
(440,452,l),
(387,250,l),
(380,214,l),
(327,10,l)
);
},
{
closed = 1;
nodes = (
(639,438,l),
(639,502,l),
(70,502,l),
(70,438,l)
);
},
{
closed = 1;
nodes = (
(594,200,l),
(594,264,l),
(20,264,l),
(20,200,l)
);
}
);
width = 600;
},
{
associatedMasterId = m01;
layerId = "58A702D6-D90A-4166-BD28-1A02EF93A4BE";
name = "Nov 18, 22, 11:59";
shapes = (
{
closed = 1;
nodes = (
(206,10,l),
(255,199,l),
(264,245,l),
(318,457,l),
(327,503,l),
(375,690,l),
(233,690,l),
(185,503,l),
(176,457,l),
(122,245,l),
(113,199,l),
(64,10,l)
);
},
{
closed = 1;
nodes = (
(456,10,l),
(505,199,l),
(514,245,l),
(568,457,l),
(577,503,l),
(625,690,l),
(483,690,l),
(435,503,l),
(426,457,l),
(372,245,l),
(363,199,l),
(314,10,l)
);
},
{
closed = 1;
nodes = (
(679,413,l),
(679,547,l),
(65,547,l),
(65,413,l)
);
},
{
closed = 1;
nodes = (
(634,155,l),
(634,289,l),
(15,289,l),
(15,155,l)
);
}
);
width = 600;
},
{
associatedMasterId = "8DAFC702-8226-41F4-8BBE-2050DDC1B01E";
layerId = "E40A126D-6AFD-4440-BB23-0D8E12C8B4FF";
name = "Jun 19, 25 at 00:53";
shapes = (
{
closed = 1;
nodes = (
(186,0,l),
(365,680,l),
(292,680,l),
(113,0,l)
);
},
{
closed = 1;
nodes = (
(418,0,l),
(597,680,l),
(524,680,l),
(345,0,l)
);
},
{
closed = 1;
nodes = (
(670,416,l),
(670,480,l),
(80,480,l),
(80,416,l)
);
},
{
closed = 1;
nodes = (
(635,200,l),
(635,264,l),
(40,264,l),
(40,200,l)
);
}
);
width = 710;
},
{
associatedMasterId = m01;
color = 0;
layerId = "B6DA5DBE-72F0-4C6F-B8F4-AA9BAC0C106D";
name = "Jun 19, 25 at 00:53";
shapes = (
{
closed = 1;
nodes = (
(203,0,l),
(255,199,l),
(264,245,l),
(318,457,l),
(327,503,l),
(378,700,l),
(236,700,l),
(185,503,l),
(176,457,l),
(122,245,l),
(113,199,l),
(61,0,l)
);
},
{
closed = 1;
nodes = (
(453,0,l),
(505,199,l),
(514,245,l),
(568,457,l),
(577,503,l),
(628,700,l),
(486,700,l),
(435,503,l),
(426,457,l),
(372,245,l),
(363,199,l),
(311,0,l)
);
},
{
closed = 1;
nodes = (
(679,413,l),
(679,547,l),
(65,547,l),
(65,413,l)
);
},
{
closed = 1;
nodes = (
(634,155,l),
(634,289,l),
(15,289,l),
(15,155,l)
);
}
);
width = 694;
}
);
metricRight = "=|";
unicode = 35;
}
{
glyphname = dollar;
kernLeft = dollar;
kernRight = dollar;
layers = (
{
layerId = m01;
shapes = (
{
closed = 1;
nodes = (
(409,-6,o),
(496,75,o),
(496,199,cs),
(496,312,o),
(424,362,o),
(343,392,cs),
(228,435,ls),
(190,449,o),
(172,465,o),
(172,495,cs),
(172,533,o),
(199,560,o),
(272,560,cs),
(342,560,o),
(413,539,o),
(468,509,c),
(468,642,l),
(418,668,o),
(357,686,o),
(283,686,cs),
(126,686,o),
(30,607,o),
(30,489,cs),
(30,376,o),
(113,327,o),
(179,302,cs),
(294,259,ls),
(338,243,o),
(354,223,o),
(354,193,cs),
(354,153,o),
(328,120,o),
(257,120,cs),
(180,120,o),
(104,150,o),
(48,186,c),
(48,44,l),
(97,16,o),
(165,-6,o),
(251,-6,cs)
);
},
{
closed = 1;
nodes = (
(319,-105,l),
(319,20,l),
(317,40,l),
(317,640,l),
(319,660,l),
(319,785,l),
(207,785,l),
(207,660,l),
(209,640,l),
(209,40,l),
(207,20,l),
(207,-105,l)
);
}
);
width = 528;
},
{
layerId = "8DAFC702-8226-41F4-8BBE-2050DDC1B01E";
shapes = (
{
closed = 1;
nodes = (
(395,-6,o),
(490,70,o),
(490,189,cs),
(490,280,o),
(435,341,o),
(334,374,cs),
(242,404,ls),
(183,423,o),
(150,454,o),
(150,505,cs),
(150,564,o),
(197,606,o),
(289,606,cs),
(355,606,o),
(418,583,o),
(470,542,c),
(470,635,l),
(421,666,o),
(361,686,o),
(293,686,cs),
(156,686,o),
(60,612,o),
(60,497,cs),
(60,410,o),
(116,353,o),
(216,321,cs),
(308,292,ls),
(369,273,o),
(400,238,o),
(400,184,cs),
(400,120,o),
(354,74,o),
(261,74,cs),
(187,74,o),
(121,105,o),
(71,147,c),
(71,50,l),
(119,20,o),
(181,-6,o),
(258,-6,cs)
);
},
{
closed = 1;
nodes = (
(307,-105,l),
(307,20,l),
(306,40,l),
(306,640,l),
(307,660,l),
(307,785,l),
(239,785,l),
(239,660,l),
(240,640,l),
(240,40,l),
(239,20,l),
(239,-105,l)
);
}
);
width = 556;
},
{
associatedMasterId = m01;
color = 0;
layerId = "C24A2885-9270-480E-BEA7-20E31E168C1B";
name = "Jun 20, 25 at 17:00";
shapes = (
{
closed = 1;
nodes = (
(395,-6,o),
(485,69,o),
(485,193,cs),
(485,285,o),
(439,338,o),
(354,381,cs),
(242,438,ls),
(205,457,o),
(177,471,o),
(177,509,cs),
(177,540,o),
(196,563,o),
(230,563,cs),
(280,563,ls),
(328,563,o),
(384,541,o),
(465,504,c),
(465,669,l),
(400,691,o),
(330,706,o),
(265,706,cs),
(125,706,o),
(35,631,o),
(35,507,cs),
(35,415,o),
(81,362,o),
(166,319,cs),
(278,262,ls),
(315,243,o),
(343,228,o),
(343,190,cs),
(343,159,o),
(324,137,o),
(290,137,cs),
(240,137,ls),
(192,137,o),
(136,159,o),
(55,196,c),
(55,31,l),
(120,9,o),
(190,-6,o),
(255,-6,cs)
);
},
{
closed = 1;
nodes = (
(310,-90,l),
(310,20,l),
(308,40,l),
(308,640,l),
(310,660,l),
(310,790,l),
(210,790,l),
(210,660,l),
(212,640,l),
(212,40,l),
(210,20,l),
(210,-90,l)
);
}
);
width = 520;
},
{
associatedMasterId = "8DAFC702-8226-41F4-8BBE-2050DDC1B01E";
layerId = "578B438C-FBBF-4AEB-98E0-84EE31992924";
name = "Jun 20, 25 at 17:00";
shapes = (
{
closed = 1;
nodes = (
(347,-8,o),
(425,56,o),
(425,170,cs),
(425,272,o),
(363,323,o),
(293,363,cs),
(227,401,ls),
(164,437,o),
(125,467,o),
(125,530,cs),
(125,594,o),
(158,634,o),
(217,634,cs),
(247,634,ls),
(290,634,o),
(337,618,o),
(405,590,c),
(405,675,l),
(350,694,o),
(295,708,o),
(240,708,cs),
(123,708,o),
(45,644,o),
(45,530,cs),
(45,428,o),
(107,377,o),
(177,337,cs),
(243,299,ls),
(307,262,o),
(345,233,o),
(345,170,cs),
(345,106,o),
(312,66,o),
(253,66,cs),
(223,66,ls),
(181,66,o),
(133,82,o),
(65,110,c),
(65,25,l),
(120,6,o),
(175,-8,o),
(230,-8,cs)
);
},
{
closed = 1;
nodes = (
(272,-90,l),
(272,20,l),
(270,40,l),
(270,640,l),
(272,660,l),
(272,790,l),
(198,790,l),
(198,660,l),
(200,640,l),
(200,40,l),
(198,20,l),
(198,-90,l)
);
}
);
width = 470;
},
{
associatedMasterId = m01;
attr = {
axisRules = (
{
min = 140;
}
);
};
layerId = "5ABB3688-5E47-44E8-AC66-7138F290EFE6";
name = "Jun 20, 25 at 17:16";
shapes = (
{
closed = 1;
nodes = (
(403,-6,o),
(494,78,o),
(494,207,cs),
(494,314,o),
(435,371,o),
(333,405,cs),
(249,433,ls),
(210,446,o),
(193,464,o),
(193,490,cs),
(193,527,o),
(233,550,o),
(303,550,cs),
(362,550,o),
(421,533,o),
(467,509,c),
(467,642,l),
(421,668,o),
(362,686,o),
(293,686,cs),
(130,686,o),
(30,604,o),
(30,481,cs),
(30,374,o),
(98,319,o),
(187,289,cs),
(271,261,ls),
(316,246,o),
(331,224,o),
(331,196,cs),
(331,158,o),
(292,130,o),
(224,130,cs),
(158,130,o),
(94,156,o),
(47,186,c),
(47,44,l),
(92,17,o),
(159,-6,o),
(239,-6,cs)
);
},
{
closed = 1;
nodes = (
(318,-105,l),
(318,20,l),
(206,20,l),
(206,-105,l)
);
},
{
closed = 1;
nodes = (
(318,660,l),
(318,785,l),
(206,785,l),
(206,660,l)
);
}
);
visible = 1;
width = 526;
},
{
associatedMasterId = "8DAFC702-8226-41F4-8BBE-2050DDC1B01E";
attr = {
axisRules = (
{
min = 140;
}
);
};
layerId = "92843CAB-BCAE-485C-BCB8-F744F650FCC1";
name = "Jun 20, 25 at 17:19";
shapes = (
{
closed = 1;
nodes = (
(395,-6,o),
(490,70,o),
(490,189,cs),
(490,280,o),
(435,341,o),
(334,374,cs),
(242,404,ls),
(183,423,o),
(150,454,o),
(150,505,cs),
(150,564,o),
(197,606,o),
(289,606,cs),
(355,606,o),
(418,583,o),
(470,542,c),
(470,635,l),
(421,666,o),
(361,686,o),
(293,686,cs),
(156,686,o),
(60,612,o),
(60,497,cs),
(60,410,o),
(116,353,o),
(216,321,cs),
(308,292,ls),
(369,273,o),
(400,238,o),
(400,184,cs),
(400,120,o),
(354,74,o),
(261,74,cs),
(187,74,o),
(121,105,o),
(71,147,c),
(71,50,l),
(119,20,o),
(181,-6,o),
(258,-6,cs)
);
},
{
closed = 1;
nodes = (
(307,-105,l),
(307,20,l),
(239,20,l),
(239,-105,l)
);
},
{
closed = 1;
nodes = (
(307,660,l),
(307,785,l),
(239,785,l),
(239,660,l)
);
}
);
width = 556;
}
);
metricLeft = S;
metricRight = S;
unicode = 36;
userData = {
KernOnSpecialSpacing = {
L = symbols;
R = symbols;
};
};
}
{
glyphname = ampersand;
kernLeft = ampersand;
kernRight = ampersand;
layers = (
{
layerId = m01;
shapes = (
{
closed = 1;
nodes = (
(348,-14,o),
(423,32,o),
(467,109,c),
(656,334,l),
(481,334,l),
(365,169,l),
(343,169,l),
(326,140,o),
(297,110,o),
(249,110,cs),
(194,110,o),
(161,148,o),
(161,197,cs),
(161,243,o),
(188,268,o),
(219,286,c),
(311,341,l),
(419,382,o),
(461,438,o),
(461,515,cs),
(461,624,o),
(374,692,o),
(258,692,cs),
(131,692,o),
(49,613,o),
(49,513,cs),
(49,465,o),
(67,413,o),
(130,349,cs),
(473,-3,l),
(670,0,l),
(255,414,ls),
(215,454,o),
(197,480,o),
(197,514,cs),
(197,558,o),
(229,579,o),
(259,579,cs),
(292,579,o),
(322,554,o),
(322,508,cs),
(322,465,o),
(291,434,o),
(240,409,c),
(168,366,l),
(76,336,o),
(12,276,o),
(12,178,cs),
(12,57,o),
(107,-14,o),
(241,-14,cs)
);
}
);
width = 661;
},
{
layerId = "8DAFC702-8226-41F4-8BBE-2050DDC1B01E";
shapes = (
{
closed = 1;
nodes = (
(358,-12,o),
(428,34,o),
(478,112,c),
(644,329,l),
(541,329,l),
(428,167,l),
(415,153,l),
(385,102,o),
(334,60,o),
(269,60,cs),
(192,60,o),
(139,117,o),
(139,183,cs),
(139,251,o),
(190,298,o),
(248,331,c),
(289,350,l),
(403,404,o),
(452,457,o),
(452,537,cs),
(452,633,o),
(375,692,o),
(279,692,cs),
(177,692,o),
(97,627,o),
(97,525,cs),
(97,469,o),
(119,420,o),
(191,349,cs),
(541,0,l),
(660,0,l),
(263,394,ls),
(206,451,o),
(182,489,o),
(182,533,cs),
(182,589,o),
(228,622,o),
(275,622,cs),
(322,622,o),
(367,589,o),
(367,531,cs),
(367,471,o),
(329,442,o),
(249,395,c),
(207,376,l),
(113,335,o),
(51,275,o),
(51,178,cs),
(51,69,o),
(133,-12,o),
(262,-12,cs)
);
}
);
width = 680;
},
{
associatedMasterId = m01;
layerId = "AE192324-9582-4B4D-9774-0507C16F9440";
name = "Nov 18, 22, 14:42";
shapes = (
{
closed = 1;
nodes = (
(510,177,l),
(680,420,l),
(502,420,l),
(385,218,l),
(373,219,l),
(341,160,o),
(308,125,o),
(258,125,cs),
(213,125,o),
(180,153,o),
(180,196,cs),
(180,235,o),
(206,257,o),
(236,276,cs),
(308,321,l),
(348,336,l),
(392,363,ls),
(462,406,o),
(504,460,o),
(504,537,cs),
(504,645,o),
(416,710,o),
(306,710,cs),
(190,710,o),
(97,640,o),
(97,524,cs),
(97,451,o),
(135,409,o),
(204,329,cs),
(485,0,l),
(700,0,l),
(314,426,ls),
(281,462,o),
(252,492,o),
(252,528,cs),
(252,558,o),
(273,582,o),
(306,582,cs),
(338,582,o),
(360,559,o),
(360,528,cs),
(360,499,o),
(341,480,o),
(313,458,cs),
(274,428,l),
(258,433,l),
(154,377,ls),
(94,345,o),
(26,288,o),
(26,184,cs),
(26,70,o),
(114,-10,o),
(243,-10,cs),
(369,-10,o),
(440,64,o),
(489,167,c)
);
}
);
width = 705;
},
{
associatedMasterId = "8DAFC702-8226-41F4-8BBE-2050DDC1B01E";
layerId = "70A7ACB5-36EA-43B5-8284-67AE4B23C545";
name = "Nov 18, 22, 14:51";
shapes = (
{
closed = 1;
nodes = (
(446,180,l),
(592,430,l),
(507,430,l),
(390,218,l),
(375,199,l),
(334,122,o),
(289,60,o),
(214,60,cs),
(148,60,o),
(99,108,o),
(99,174,cs),
(99,230,o),
(134,272,o),
(196,315,cs),
(242,347,l),
(271,358,l),
(316,391,ls),
(377,436,o),
(429,485,o),
(429,562,cs),
(429,655,o),
(355,710,o),
(271,710,cs),
(178,710,o),
(105,645,o),
(105,550,cs),
(105,475,o),
(150,428,o),
(203,365,cs),
(510,0,l),
(611,0,l),
(260,410,ls),
(217,460,o),
(181,497,o),
(181,550,cs),
(181,597,o),
(209,642,o),
(268,642,cs),
(319,642,o),
(354,607,o),
(354,558,cs),
(354,507,o),
(317,469,o),
(274,437,cs),
(233,406,l),
(217,402,l),
(147,357,ls),
(89,320,o),
(22,260,o),
(22,169,cs),
(22,70,o),
(100,-10,o),
(212,-10,cs),
(317,-10,o),
(384,61,o),
(433,167,c)
);
}
);
width = 610;
},
{
associatedMasterId = "8DAFC702-8226-41F4-8BBE-2050DDC1B01E";
layerId = "484CE282-E72E-4FC2-B08A-3816A48FAB46";
name = v1;
shapes = (
{
closed = 1;
nodes = (
(446,180,l),
(592,430,l),
(507,430,l),
(390,218,l),
(375,199,l),
(334,122,o),
(289,60,o),
(214,60,cs),
(148,60,o),
(99,108,o),
(99,174,cs),
(99,230,o),
(134,272,o),
(196,315,cs),
(242,347,l),
(271,358,l),
(316,391,ls),
(377,436,o),
(421,487,o),
(421,559,cs),
(421,654,o),
(346,710,o),
(261,710,cs),
(170,710,o),
(97,645,o),
(97,551,cs),
(97,475,o),
(144,427,o),
(189,375,cs),
(510,0,l),
(611,0,l),
(246,420,ls),
(207,465,o),
(173,502,o),
(173,552,cs),
(173,597,o),
(201,642,o),
(259,642,cs),
(310,642,o),
(346,606,o),
(346,554,cs),
(346,507,o),
(317,469,o),
(274,437,cs),
(233,406,l),
(217,402,l),
(147,357,ls),
(89,320,o),
(22,260,o),
(22,169,cs),
(22,70,o),
(100,-10,o),
(212,-10,cs),
(317,-10,o),
(384,61,o),
(433,167,c)
);
}
);
width = 610;
},
{
associatedMasterId = m01;
color = 0;
layerId = "D8389762-7CAB-4DB4-935A-CA976B00C1AB";
name = v1;
shapes = (
{
closed = 1;
nodes = (
(510,177,l),
(670,420,l),
(492,420,l),
(385,218,l),
(373,219,l),
(334,165,o),
(308,127,o),
(258,127,cs),
(215,127,o),
(187,156,o),
(187,194,cs),
(187,226,o),
(205,248,o),
(237,269,cs),
(308,316,l),
(348,336,l),
(389,366,ls),
(453,413,o),
(489,465,o),
(489,534,cs),
(489,641,o),
(406,710,o),
(293,710,cs),
(180,710,o),
(87,640,o),
(87,530,cs),
(87,451,o),
(137,405,o),
(176,359,cs),
(484,0,l),
(690,0,l),
(277,447,ls),
(261,464,o),
(239,490,o),
(239,523,cs),
(239,555,o),
(260,579,o),
(294,579,cs),
(326,579,o),
(348,558,o),
(348,525,cs),
(348,498,o),
(333,480,o),
(309,461,cs),
(271,430,l),
(254,435,l),
(157,371,ls),
(98,332,o),
(33,281,o),
(33,179,cs),
(33,67,o),
(119,-10,o),
(246,-10,cs),
(372,-10,o),
(440,64,o),
(489,167,c)
);
}
);
width = 705;
},
{
associatedMasterId = "8DAFC702-8226-41F4-8BBE-2050DDC1B01E";
layerId = "5E7124A5-A768-4FB8-A907-4581157EBCB0";
name = "Jun 19, 25 at 23:32";
shapes = (
{
closed = 1;
nodes = (
(358,-12,o),
(428,34,o),
(478,112,c),
(644,329,l),
(541,329,l),
(428,167,l),
(414,153,l),
(379,101,o),
(334,60,o),
(269,60,cs),
(193,60,o),
(141,117,o),
(141,183,cs),
(141,249,o),
(192,295,o),
(253,326,c),
(309,354,l),
(424,408,o),
(474,459,o),
(474,539,cs),
(474,633,o),
(396,692,o),
(300,692,cs),
(197,692,o),
(117,627,o),
(117,525,cs),
(117,469,o),
(141,422,o),
(211,349,cs),
(542,0,l),
(660,0,l),
(284,394,ls),
(229,452,o),
(205,488,o),
(205,531,cs),
(205,590,o),
(249,624,o),
(295,624,cs),
(341,624,o),
(386,590,o),
(386,529,cs),
(386,472,o),
(348,445,o),
(267,403,c),
(208,375,l),
(114,332,o),
(51,273,o),
(51,178,cs),
(51,69,o),
(133,-12,o),
(262,-12,cs)
);
}
);
width = 680;
},
{
associatedMasterId = m01;
layerId = "9D8C814A-6F26-4C2A-972A-1189939AE6B5";
name = "Jun 20, 25 at 15:28";
shapes = (
{
closed = 1;
nodes = (
(368,-14,o),
(445,32,o),
(490,109,c),
(686,334,l),
(510,334,l),
(389,187,l),
(367,169,l),
(348,141,o),
(317,113,o),
(267,113,cs),
(215,113,o),
(182,147,o),
(182,191,cs),
(182,235,o),
(212,259,o),
(246,276,c),
(351,334,l),
(449,382,o),
(494,438,o),
(494,515,cs),
(494,625,o),
(403,692,o),
(284,692,cs),
(151,692,o),
(64,613,o),
(64,513,cs),
(64,465,o),
(84,414,o),
(151,348,cs),
(503,-3,l),
(701,0,l),
(281,414,ls),
(239,456,o),
(219,478,o),
(219,512,cs),
(219,556,o),
(252,577,o),
(284,577,cs),
(317,577,o),
(348,554,o),
(348,512,cs),
(348,469,o),
(315,440,o),
(259,415,c),
(171,376,l),
(76,337,o),
(17,273,o),
(17,178,cs),
(17,56,o),
(114,-14,o),
(254,-14,cs)
);
}
);
width = 695;
},
{
associatedMasterId = m01;
layerId = "831D655A-7A31-4BAD-A11B-76B4F3DDEA49";
name = "Jun 20, 25 at 15:31";
shapes = (
{
closed = 1;
nodes = (
(348,-14,o),
(423,32,o),
(467,109,c),
(656,334,l),
(481,334,l),
(365,169,l),
(343,169,l),
(326,140,o),
(299,110,o),
(252,110,cs),
(201,110,o),
(168,145,o),
(168,191,cs),
(168,235,o),
(197,259,o),
(229,276,c),
(328,334,l),
(419,382,o),
(461,438,o),
(461,515,cs),
(461,624,o),
(374,692,o),
(258,692,cs),
(131,692,o),
(49,613,o),
(49,513,cs),
(49,465,o),
(67,413,o),
(130,349,cs),
(473,-3,l),
(670,0,l),
(255,414,ls),
(215,454,o),
(197,480,o),
(197,514,cs),
(197,558,o),
(229,579,o),
(259,579,cs),
(290,579,o),
(319,556,o),
(319,514,cs),
(319,471,o),
(288,440,o),
(237,415,c),
(158,376,l),
(76,336,o),
(12,276,o),
(12,178,cs),
(12,57,o),
(107,-14,o),
(241,-14,cs)
);
}
);
width = 661;
}
);
unicode = 38;
userData = {
KernOnSpecialSpacing = {
L = symbols;
R = symbols;
};
};
}
{
glyphname = quotesingle;
kernLeft = quotedbl;
kernRight = quotedbl;
layers = (
{
layerId = m01;
shapes = (
{
closed = 1;
nodes = (
(172,379,l),
(178,703,l),
(38,703,l),
(44,379,l)
);
}
);
width = 216;
},
{
layerId = "8DAFC702-8226-41F4-8BBE-2050DDC1B01E";
shapes = (
{
closed = 1;
nodes = (
(137,456,l),
(144,700,l),
(62,700,l),
(69,456,l)
);
}
);
width = 206;
}
);
unicode = 39;
userData = {
KernOnName = quotesingle;
KernOnSpecialSpacing = {
L = quotes;
R = quotes;
};
};
}
{
glyphname = parenleft;
kernLeft = parenleft;
kernRight = parenleft;
layers = (
{
layerId = m01;
shapes = (
{
closed = 1;
nodes = (
(370,-140,l),
(259,-21,o),
(200,131,o),
(200,300,cs),
(200,469,o),
(259,621,o),
(370,740,c),
(215,740,l),
(104,626,o),
(46,474,o),
(46,300,cs),
(46,126,o),
(104,-26,o),
(215,-140,c)
);
}
);
width = 376;
},
{
layerId = "8DAFC702-8226-41F4-8BBE-2050DDC1B01E";
shapes = (
{
closed = 1;
nodes = (
(333,-140,l),
(214,-17,o),
(156,138,o),
(156,300,cs),
(156,462,o),
(214,617,o),
(333,740,c),
(235,740,l),
(119,617,o),
(66,462,o),
(66,300,cs),
(66,138,o),
(119,-17,o),
(235,-140,c)
);
}
);
width = 345;
},
{
associatedMasterId = "8DAFC702-8226-41F4-8BBE-2050DDC1B01E";
layerId = "7A594951-FDFD-4A74-947A-B43F01334335";
name = "Mar 4, 25 at 22:48";
shapes = (
{
closed = 1;
nodes = (
(324,-160,l),
(198,-31,o),
(141,144,o),
(141,295,cs),
(141,446,o),
(198,621,o),
(324,750,c),
(227,750,l),
(111,621,o),
(60,446,o),
(60,295,cs),
(60,144,o),
(111,-31,o),
(227,-160,c)
);
}
);
width = 344;
}
);
unicode = 40;
userData = {
KernOnName = parenleft;
KernOnSpecialSpacing = {
R = parenthesis;
};
};
}
{
glyphname = plus;
kernLeft = plus;
kernRight = plus;
layers = (
{
layerId = "8DAFC702-8226-41F4-8BBE-2050DDC1B01E";
shapes = (
{
closed = 1;
nodes = (
(520,292,l),
(520,368,l),
(80,368,l),
(80,292,l)
);
},
{
closed = 1;
nodes = (
(260,113,l),
(340,113,l),
(340,547,l),
(260,547,l)
);
}
);
userData = {
com.hugojourdan.ColorFlow = {
"0" = 0;
"1" = 0;
"10" = 0;
"11" = 0;
"2" = 0;
"3" = 0;
"4" = 0;
"5" = 0;
"6" = 0;
"7" = 0;
"8" = 0;
"9" = 0;
};
};
width = 600;
},
{
layerId = m01;
shapes = (
{
closed = 1;
nodes = (
(545,257,l),
(545,403,l),
(55,403,l),
(55,257,l)
);
},
{
closed = 1;
nodes = (
(221,90,l),
(378,90,l),
(378,570,l),
(221,570,l)
);
}
);
userData = {
com.hugojourdan.ColorFlow = {
"0" = 0;
"1" = 0;
"10" = 0;
"11" = 0;
"2" = 0;
"3" = 0;
"4" = 0;
"5" = 0;
"6" = 0;
"7" = 0;
"8" = 0;
"9" = 0;
};
};
width = 600;
},
{
associatedMasterId = "8DAFC702-8226-41F4-8BBE-2050DDC1B01E";
color = 0;
layerId = "93E19EFC-8BD9-4BA5-B2FD-63DB0186E93F";
name = "Apr 27, 25 at 22:14";
shapes = (
{
closed = 1;
nodes = (
(531,293,l),
(531,367,l),
(51,367,l),
(51,293,l)
);
},
{
closed = 1;
nodes = (
(254,90,l),
(328,90,l),
(328,570,l),
(254,570,l)
);
}
);
userData = {
com.hugojourdan.ColorFlow = {
"0" = 0;
"1" = 0;
"10" = 0;
"11" = 0;
"2" = 0;
"3" = 0;
"4" = 0;
"5" = 0;
"6" = 0;
"7" = 0;
"8" = 0;
"9" = 0;
};
};
width = 582;
}
);
unicode = 43;
userData = {
KernOnName = plus;
KernOnSpecialSpacing = {
L = math;
R = math;
};
};
}
{
glyphname = comma;
kernLeft = comma;
kernRight = period;
layers = (
{
layerId = m01;
shapes = (
{
closed = 1;
nodes = (
(108,-170,l),
(200,0,l),
(200,154,l),
(32,154,l),
(32,0,l),
(106,0,l),
(16,-170,l)
);
}
);
userData = {
com.hugojourdan.ColorFlow = {
"0" = 0;
"1" = 0;
"10" = 0;
"11" = 0;
"2" = 0;
"3" = 0;
"4" = 0;
"5" = 0;
"6" = 0;
"7" = 0;
"8" = 0;
"9" = 0;
};
};
width = 232;
},
{
layerId = "8DAFC702-8226-41F4-8BBE-2050DDC1B01E";
shapes = (
{
closed = 1;
nodes = (
(100,-130,l),
(160,0,l),
(160,114,l),
(56,114,l),
(56,0,l),
(104,0,l),
(46,-130,l)
);
}
);
width = 216;
},
{
associatedMasterId = "8DAFC702-8226-41F4-8BBE-2050DDC1B01E";
layerId = "A540C305-4048-4679-8B37-F6B27C909A43";
name = "Nov 17, 22, 15:32";
shapes = (
{
closed = 1;
nodes = (
(45,0,l),
(130,0,l),
(45,-140,l),
(165,-140,l),
(215,0,l),
(215,82,l),
(45,82,l)
);
}
);
width = 600;
},
{
associatedMasterId = "8DAFC702-8226-41F4-8BBE-2050DDC1B01E";
layerId = "67B538C8-A397-4CEF-A547-AB846B8AA07D";
name = "Mar 4, 25 at 21:09";
shapes = (
{
closed = 1;
nodes = (
(65,0,l),
(114,0,l),
(45,-130,l),
(115,-130,l),
(165,0,l),
(165,95,l),
(65,95,l)
);
}
);
width = 230;
},
{
associatedMasterId = "8DAFC702-8226-41F4-8BBE-2050DDC1B01E";
layerId = "300B3FDA-D982-4F40-9BDD-5BFE8D35C824";
name = "Mar 4, 25 at 21:14";
shapes = (
{
closed = 1;
nodes = (
(65,0,l),
(110,0,l),
(65,-130,l),
(110,-130,l),
(165,0,l),
(165,100,l),
(65,100,l)
);
}
);
width = 230;
},
{
associatedMasterId = "8DAFC702-8226-41F4-8BBE-2050DDC1B01E";
layerId = "0D16347B-689E-446C-97C8-09C81C5AF8FE";
name = "Jun 19, 25 at 00:45";
shapes = (
{
closed = 1;
nodes = (
(74,0,l),
(118,0,l),
(64,-130,l),
(134,-130,l),
(178,0,l),
(178,120,l),
(74,120,l)
);
}
);
width = 248;
}
);
metricRight = period;
unicode = 44;
userData = {
KernOnName = comma;
KernOnSpecialSpacing = {
L = period;
R = period;
};
};
}
{
glyphname = hyphen;
kernLeft = hyphen;
kernRight = hyphen;
layers = (
{
layerId = m01;
shapes = (
{
closed = 1;
nodes = (
(400,205,l),
(400,355,l),
(40,355,l),
(40,205,l)
);
}
);
userData = {
com.hugojourdan.ColorFlow = {
"0" = 0;
"1" = 0;
"10" = 0;
"11" = 0;
"2" = 0;
"3" = 0;
"4" = 0;
"5" = 0;
"6" = 0;
"7" = 0;
"8" = 0;
"9" = 0;
};
};
width = 440;
},
{
associatedMasterId = m01;
layerId = "C0D3EB87-4B5B-4357-A51F-6C65AD6A801D";
name = "103";
shapes = (
{
closed = 1;
nodes = (
(20,271,l),
(320,271,l),
(320,431,l),
(20,431,l)
);
}
);
userData = {
com.hugojourdan.ColorFlow = {
"0" = 0;
"1" = 0;
"10" = 0;
"11" = 0;
"2" = 0;
"3" = 0;
"4" = 0;
"5" = 0;
"6" = 0;
"7" = 0;
"8" = 0;
"9" = 0;
};
};
width = 340;
},
{
layerId = "8DAFC702-8226-41F4-8BBE-2050DDC1B01E";
shapes = (
{
closed = 1;
nodes = (
(380,242,l),
(380,318,l),
(60,318,l),
(60,242,l)
);
}
);
width = 440;
}
);
metricRight = "=|";
unicode = 45;
userData = {
KernOnName = hyphen;
KernOnSpecialSpacing = {
L = hyphen;
R = hyphen;
};
};
}
{
glyphname = period;
kernLeft = period;
kernRight = period;
layers = (
{
layerId = m01;
shapes = (
{
closed = 1;
nodes = (
(36,0,l),
(204,0,l),
(204,154,l),
(36,154,l)
);
}
);
userData = {
com.hugojourdan.ColorFlow = {
"0" = 0;
"1" = 0;
"10" = 0;
"11" = 0;
"2" = 0;
"3" = 0;
"4" = 0;
"5" = 0;
"6" = 0;
"7" = 0;
"8" = 0;
"9" = 0;
};
};
width = 240;
},
{
layerId = "8DAFC702-8226-41F4-8BBE-2050DDC1B01E";
shapes = (
{
closed = 1;
nodes = (
(56,0,l),
(160,0,l),
(160,114,l),
(56,114,l)
);
}
);
width = 216;
},
{
associatedMasterId = "8DAFC702-8226-41F4-8BBE-2050DDC1B01E";
layerId = "54F1D76E-EDA1-4D0C-BB56-F765F2CC6374";
name = "Mar 4, 25 at 21:08";
shapes = (
{
closed = 1;
nodes = (
(65,0,l),
(165,0,l),
(165,95,l),
(65,95,l)
);
}
);
width = 230;
}
);
unicode = 46;
userData = {
KernOnName = period;
KernOnSpecialSpacing = {
L = period;
R = period;
};
};
}
{
glyphname = slash;
kernLeft = slash;
kernRight = slash;
layers = (
{
layerId = m01;
shapes = (
{
closed = 1;
nodes = (
(172,-140,l),
(471,740,l),
(315,740,l),
(16,-140,l)
);
}
);
width = 487;
},
{
layerId = "8DAFC702-8226-41F4-8BBE-2050DDC1B01E";
shapes = (
{
closed = 1;
nodes = (
(116,-140,l),
(415,740,l),
(329,740,l),
(30,-140,l)
);
}
);
width = 445;
}
);
metricRight = "=|";
unicode = 47;
userData = {
KernOnSpecialSpacing = {
L = slash;
R = slash;
};
};
}
{
glyphname = zero;
kernLeft = zero;
kernRight = zero;
layers = (
{
layerId = m01;
shapes = (
{
closed = 1;
nodes = (
(39,340,cs),
(39,124,o),
(155,-12,o),
(339,-12,cs),
(523,-12,o),
(639,124,o),
(639,340,cs),
(639,556,o),
(523,692,o),
(339,692,cs),
(155,692,o),
(39,556,o)
);
},
{
closed = 1;
nodes = (
(205,485,o),
(255,554,o),
(339,554,cs),
(423,554,o),
(473,485,o),
(473,340,cs),
(473,195,o),
(423,126,o),
(339,126,cs),
(255,126,o),
(205,195,o),
(205,340,cs)
);
}
);
userData = {
com.hugojourdan.ColorFlow = {
"0" = 0;
"1" = 0;
"10" = 0;
"11" = 0;
"2" = 0;
"3" = 0;
"4" = 0;
"5" = 0;
"6" = 0;
"7" = 0;
"8" = 0;
"9" = 0;
};
};
width = 678;
},
{
layerId = "8DAFC702-8226-41F4-8BBE-2050DDC1B01E";
shapes = (
{
closed = 1;
nodes = (
(68,340,cs),
(68,114,o),
(179,-12,o),
(338,-12,cs),
(497,-12,o),
(608,114,o),
(608,340,cs),
(608,566,o),
(497,692,o),
(338,692,cs),
(179,692,o),
(68,566,o)
);
},
{
closed = 1;
nodes = (
(162,518,o),
(230,618,o),
(338,618,cs),
(446,618,o),
(514,518,o),
(514,340,cs),
(514,162,o),
(446,62,o),
(338,62,cs),
(230,62,o),
(162,162,o),
(162,340,cs)
);
}
);
width = 676;
},
{
associatedMasterId = "8DAFC702-8226-41F4-8BBE-2050DDC1B01E";
layerId = "FF2E6877-95F6-486E-B5EE-062826859E35";
name = "Nov 17, 22, 18:56";
shapes = (
{
closed = 1;
nodes = (
(55,350,cs),
(55,138,o),
(156,-12,o),
(325,-12,cs),
(494,-12,o),
(595,138,o),
(595,350,cs),
(595,562,o),
(494,712,o),
(325,712,cs),
(156,712,o),
(55,562,o)
);
},
{
closed = 1;
nodes = (
(136,472,o),
(186,558,o),
(325,558,cs),
(465,558,o),
(514,472,o),
(514,350,cs),
(514,230,o),
(465,142,o),
(325,142,cs),
(186,142,o),
(136,230,o),
(136,350,cs)
);
}
);
width = 600;
},
{
associatedMasterId = "8DAFC702-8226-41F4-8BBE-2050DDC1B01E";
layerId = "DDA4F93F-956C-4314-A5D6-223D8454B2BE";
name = "Feb 25, 25 at 01:18";
shapes = (
{
closed = 1;
nodes = (
(55,350,cs),
(55,146,o),
(156,-8,o),
(325,-8,cs),
(494,-8,o),
(595,146,o),
(595,350,cs),
(595,554,o),
(494,708,o),
(325,708,cs),
(156,708,o),
(55,554,o)
);
},
{
closed = 1;
nodes = (
(136,511,o),
(196,634,o),
(325,634,cs),
(454,634,o),
(514,511,o),
(514,350,cs),
(514,189,o),
(454,66,o),
(325,66,cs),
(196,66,o),
(136,189,o),
(136,350,cs)
);
}
);
width = 650;
},
{
associatedMasterId = "8DAFC702-8226-41F4-8BBE-2050DDC1B01E";
layerId = "FF34C117-351B-436E-8A41-297498E8A28E";
name = "Feb 27, 25 at 16:32";
shapes = (
{
closed = 1;
nodes = (
(65,340,cs),
(65,142,o),
(170,-8,o),
(345,-8,cs),
(520,-8,o),
(625,142,o),
(625,340,cs),
(625,538,o),
(520,688,o),
(345,688,cs),
(170,688,o),
(65,538,o)
);
},
{
closed = 1;
nodes = (
(148,494,o),
(211,612,o),
(345,612,cs),
(479,612,o),
(542,494,o),
(542,340,cs),
(542,186,o),
(479,68,o),
(345,68,cs),
(211,68,o),
(148,186,o),
(148,340,cs)
);
}
);
width = 690;
},
{
associatedMasterId = "8DAFC702-8226-41F4-8BBE-2050DDC1B01E";
color = 5;
layerId = "F7542966-1915-495A-856A-7C8C4795D844";
name = "Jun 15, 25 at 18:00";
shapes = (
{
closed = 1;
nodes = (
(65,340,cs),
(65,114,o),
(172,-12,o),
(325,-12,cs),
(478,-12,o),
(585,114,o),
(585,340,cs),
(585,566,o),
(478,692,o),
(325,692,cs),
(172,692,o),
(65,566,o)
);
},
{
closed = 1;
nodes = (
(153,519,o),
(219,619,o),
(325,619,cs),
(431,619,o),
(497,519,o),
(497,340,cs),
(497,161,o),
(431,61,o),
(325,61,cs),
(219,61,o),
(153,161,o),
(153,340,cs)
);
}
);
width = 650;
},
{
associatedMasterId = m01;
color = 0;
layerId = "A7B0B8EE-3B84-437A-BE98-07404C8075E1";
name = "Jun 15, 25 at 18:00";
shapes = (
{
closed = 1;
nodes = (
(35,350,cs),
(35,138,o),
(143,-12,o),
(325,-12,cs),
(507,-12,o),
(615,138,o),
(615,350,cs),
(615,562,o),
(507,712,o),
(325,712,cs),
(143,712,o),
(35,562,o)
);
},
{
closed = 1;
nodes = (
(199,472,o),
(232,558,o),
(325,558,cs),
(418,558,o),
(451,472,o),
(451,350,cs),
(451,230,o),
(418,142,o),
(325,142,cs),
(232,142,o),
(199,230,o),
(199,350,cs)
);
}
);
userData = {
com.hugojourdan.ColorFlow = {
"0" = 0;
"1" = 0;
"10" = 0;
"11" = 0;
"2" = 0;
"3" = 0;
"4" = 0;
"5" = 0;
"6" = 0;
"7" = 0;
"8" = 0;
"9" = 0;
};
};
width = 650;
}
);
metricRight = "=|";
unicode = 48;
userData = {
KernOnName = zero;
};
}
{
glyphname = one;
kernLeft = one;
kernRight = one;
layers = (
{
layerId = m01;
shapes = (
{
closed = 1;
nodes = (
(358,0,l),
(358,680,l),
(217,680,l),
(20,537,l),
(20,362,l),
(256,550,l),
(198,605,l),
(198,0,l)
);
}
);
userData = {
com.hugojourdan.ColorFlow = {
"0" = 0;
"1" = 0;
"10" = 0;
"11" = 0;
"2" = 0;
"3" = 0;
"4" = 0;
"5" = 0;
"6" = 0;
"7" = 0;
"8" = 0;
"9" = 0;
};
};
width = 412;
},
{
layerId = "8DAFC702-8226-41F4-8BBE-2050DDC1B01E";
shapes = (
{
closed = 1;
nodes = (
(311,0,l),
(311,680,l),
(230,680,l),
(30,534,l),
(30,437,l),
(269,619,l),
(220,645,l),
(220,0,l)
);
}
);
width = 392;
},
{
associatedMasterId = "8DAFC702-8226-41F4-8BBE-2050DDC1B01E";
layerId = "E7C9B8F1-1567-4901-831B-2FDE3A28656C";
name = "Feb 25, 25 at 00:05";
shapes = (
{
closed = 1;
nodes = (
(292,0,l),
(292,700,l),
(217,700,l),
(40,579,l),
(40,487,l),
(256,648,l),
(212,665,l),
(212,0,l)
);
}
);
width = 372;
},
{
associatedMasterId = m01;
color = 0;
layerId = "BF984D2F-2470-48EA-AFF6-8C96D9D657AC";
name = "Feb 25, 25 at 22:52";
shapes = (
{
closed = 1;
nodes = (
(332,0,l),
(332,700,l),
(197,700,l),
(40,590,l),
(40,396,l),
(236,557,l),
(172,625,l),
(172,0,l)
);
}
);
userData = {
com.hugojourdan.ColorFlow = {
"0" = 0;
"1" = 0;
"10" = 0;
"11" = 0;
"2" = 0;
"3" = 0;
"4" = 0;
"5" = 0;
"6" = 0;
"7" = 0;
"8" = 0;
"9" = 0;
};
};
width = 392;
},
{
associatedMasterId = "8DAFC702-8226-41F4-8BBE-2050DDC1B01E";
layerId = "D8B50907-CEBD-4FC2-87F5-576E9083836A";
name = "Feb 27, 25 at 12:11";
shapes = (
{
closed = 1;
nodes = (
(302,0,l),
(302,680,l),
(240,680,l),
(40,544,l),
(40,453,l),
(279,622,l),
(220,645,l),
(220,0,l)
);
}
);
width = 392;
},
{
associatedMasterId = m01;
color = 4;
layerId = "BB0B7D8E-4E11-45A1-9D15-E792A26D74CE";
name = "Mar 1, 25 at 20:34";
shapes = (
{
closed = 1;
nodes = (
(332,0,l),
(332,680,l),
(197,680,l),
(20,557,l),
(20,366,l),
(236,529,l),
(172,605,l),
(172,0,l)
);
}
);
userData = {
com.hugojourdan.ColorFlow = {
"0" = 0;
"1" = 0;
"10" = 0;
"11" = 0;
"2" = 0;
"3" = 0;
"4" = 0;
"5" = 0;
"6" = 0;
"7" = 0;
"8" = 0;
"9" = 0;
};
};
width = 392;
},
{
associatedMasterId = m01;
color = 6;
layerId = "FE69AE43-9070-48C7-B3EF-AB179333ABB9";
name = "Mar 2, 25 at 13:45";
shapes = (
{
closed = 1;
nodes = (
(332,0,l),
(332,680,l),
(197,680,l),
(20,557,l),
(20,388,l),
(236,551,l),
(178,605,l),
(178,0,l)
);
}
);
userData = {
com.hugojourdan.ColorFlow = {
"0" = 0;
"1" = 0;
"10" = 0;
"11" = 0;
"2" = 0;
"3" = 0;
"4" = 0;
"5" = 0;
"6" = 0;
"7" = 0;
"8" = 0;
"9" = 0;
};
};
width = 392;
}
);
unicode = 49;
userData = {
KernOnName = one;
};
}
{
glyphname = two;
kernLeft = two;
kernRight = two;
layers = (
{
associatedMasterId = m01;
layerId = "2A0770DC-15A0-4CB1-8404-9B6E3CB2A7D5";
name = "Oct 19, 22, 11:17";
shapes = (
{
closed = 1;
nodes = (
(35,0,l),
(460,0,l),
(460,152,l),
(65,152,l),
(115,126,l),
(266,221,ls),
(377,291,o),
(465,357,o),
(465,500,cs),
(465,639,o),
(370,712,o),
(233,712,cs),
(165,712,o),
(100,694,o),
(35,669,c),
(35,504,l),
(121,538,o),
(174,558,o),
(218,558,cs),
(271,558,o),
(305,529,o),
(305,478,cs),
(305,416,o),
(258,380,o),
(179,329,cs),
(35,235,l)
);
}
);
userData = {
com.hugojourdan.ColorFlow = {
"0" = 0;
"1" = 0;
"10" = 0;
"11" = 0;
"2" = 0;
"3" = 0;
"4" = 0;
"5" = 0;
"6" = 0;
"7" = 0;
"8" = 0;
"9" = 0;
};
};
width = 500;
},
{
layerId = m01;
name = Regular;
shapes = (
{
closed = 1;
nodes = (
(500,0,l),
(500,136,l),
(181,136,l),
(193,13,l),
(409,258,ls),
(464,321,o),
(495,385,o),
(495,464,cs),
(495,609,o),
(388,690,o),
(244,690,cs),
(172,690,o),
(104,670,o),
(46,628,c),
(46,467,l),
(104,521,o),
(155,550,o),
(214,550,cs),
(283,550,o),
(335,510,o),
(335,442,cs),
(335,399,o),
(317,359,o),
(279,313,cs),
(16,0,l)
);
}
);
userData = {
com.hugojourdan.ColorFlow = {
"0" = 0;
"1" = 0;
"10" = 0;
"11" = 0;
"2" = 0;
"3" = 0;
"4" = 0;
"5" = 0;
"6" = 0;
"7" = 0;
"8" = 0;
"9" = 0;
};
};
width = 542;
},
{
layerId = "8DAFC702-8226-41F4-8BBE-2050DDC1B01E";
shapes = (
{
closed = 1;
nodes = (
(502,0,l),
(502,76,l),
(162,76,l),
(169,19,l),
(390,268,ls),
(459,345,o),
(490,405,o),
(490,478,cs),
(490,608,o),
(391,688,o),
(259,688,cs),
(191,688,o),
(124,667,o),
(67,615,c),
(67,515,l),
(124,580,o),
(188,610,o),
(253,610,cs),
(342,610,o),
(398,552,o),
(398,473,cs),
(398,429,o),
(381,381,o),
(326,317,cs),
(52,0,l)
);
}
);
width = 560;
},
{
associatedMasterId = "8DAFC702-8226-41F4-8BBE-2050DDC1B01E";
layerId = "69602FA1-8B10-4D2F-BADF-6652681039DA";
name = "Nov 17, 22, 18:48";
shapes = (
{
closed = 1;
nodes = (
(50,0,l),
(475,0,l),
(475,74,l),
(120,74,l),
(120,56,l),
(295,238,ls),
(409,356,o),
(480,375,o),
(480,500,cs),
(480,639,o),
(385,712,o),
(248,712,cs),
(180,712,o),
(115,694,o),
(50,669,c),
(50,504,l),
(136,538,o),
(189,558,o),
(233,558,cs),
(286,558,o),
(320,529,o),
(320,480,cs),
(320,386,o),
(269,325,o),
(194,244,cs),
(50,90,l)
);
}
);
width = 600;
},
{
associatedMasterId = m01;
color = 0;
layerId = "27B1C5DF-5A9B-40A0-99E0-AD7CE80A2CC0";
name = "Jan 10, 23, 17:02";
shapes = (
{
closed = 1;
nodes = (
(50,0,l),
(475,0,l),
(475,152,l),
(150,152,l),
(150,86,l),
(295,208,ls),
(415,309,o),
(480,387,o),
(480,500,cs),
(480,639,o),
(385,712,o),
(248,712,cs),
(180,712,o),
(115,694,o),
(50,669,c),
(50,504,l),
(136,538,o),
(189,558,o),
(233,558,cs),
(286,558,o),
(320,529,o),
(320,480,cs),
(320,416,o),
(265,360,o),
(194,299,cs),
(50,175,l)
);
}
);
userData = {
com.hugojourdan.ColorFlow = {
"0" = 0;
"1" = 0;
"10" = 0;
"11" = 0;
"2" = 0;
"3" = 0;
"4" = 0;
"5" = 0;
"6" = 0;
"7" = 0;
"8" = 0;
"9" = 0;
};
};
width = 525;
},
{
associatedMasterId = "8DAFC702-8226-41F4-8BBE-2050DDC1B01E";
layerId = "9BAA2B7A-F2FD-4A56-8FD3-A36C07A74BA8";
name = "Feb 25, 25 at 00:06";
shapes = (
{
closed = 1;
nodes = (
(65,0,l),
(456,0,l),
(456,74,l),
(138,74,l),
(146,56,l),
(357,303,ls),
(404,359,o),
(451,424,o),
(451,516,cs),
(451,634,o),
(366,708,o),
(248,708,cs),
(183,708,o),
(126,686,o),
(66,659,c),
(66,574,l),
(136,608,o),
(185,634,o),
(243,634,cs),
(319,634,o),
(371,590,o),
(371,511,cs),
(371,442,o),
(334,397,o),
(293,349,cs),
(65,80,l)
);
}
);
width = 511;
},
{
associatedMasterId = "8DAFC702-8226-41F4-8BBE-2050DDC1B01E";
layerId = "BB9E0052-6E00-4779-8714-CF4C054968CC";
name = "Feb 25, 25 at 00:16";
shapes = (
{
closed = 1;
nodes = (
(70,0,l),
(471,0,l),
(471,70,l),
(143,70,l),
(143,41,l),
(361,288,ls),
(417,352,o),
(462,405,o),
(462,487,cs),
(462,608,o),
(367,688,o),
(243,688,cs),
(177,688,o),
(117,666,o),
(56,612,c),
(56,520,l),
(128,591,o),
(178,618,o),
(238,618,cs),
(320,618,o),
(381,566,o),
(381,482,cs),
(381,426,o),
(353,389,o),
(305,334,cs),
(70,65,l)
);
}
);
width = 511;
},
{
associatedMasterId = m01;
color = 0;
layerId = "4C9708A3-2ABB-4B46-AC86-914AA15BB3E5";
name = "Feb 25, 25 at 22:53";
shapes = (
{
closed = 1;
nodes = (
(50,0,l),
(475,0,l),
(475,152,l),
(150,152,l),
(150,71,l),
(299,208,ls),
(415,314,o),
(480,387,o),
(480,500,cs),
(480,639,o),
(385,712,o),
(248,712,cs),
(180,712,o),
(115,694,o),
(50,669,c),
(50,504,l),
(133,538,o),
(186,558,o),
(232,558,cs),
(286,558,o),
(320,529,o),
(320,480,cs),
(320,416,o),
(267,363,o),
(198,299,cs),
(50,160,l)
);
}
);
userData = {
com.hugojourdan.ColorFlow = {
"0" = 0;
"1" = 0;
"10" = 0;
"11" = 0;
"2" = 0;
"3" = 0;
"4" = 0;
"5" = 0;
"6" = 0;
"7" = 0;
"8" = 0;
"9" = 0;
};
};
width = 525;
},
{
associatedMasterId = m01;
color = 0;
layerId = "4009CB92-4EE7-4D6D-8738-5E23709D4005";
name = "Feb 26, 25 at 13:07";
shapes = (
{
closed = 1;
nodes = (
(64,0,l),
(496,0,l),
(496,152,l),
(192,152,l),
(174,63,l),
(400,277,ls),
(463,337,o),
(496,387,o),
(496,473,cs),
(496,608,o),
(392,688,o),
(248,688,cs),
(173,688,o),
(116,669,o),
(50,612,c),
(50,440,l),
(122,506,o),
(175,534,o),
(233,534,cs),
(294,534,o),
(334,499,o),
(334,442,cs),
(334,401,o),
(308,375,o),
(264,334,cs),
(64,145,l)
);
}
);
userData = {
com.hugojourdan.ColorFlow = {
"0" = 0;
"1" = 0;
"10" = 0;
"11" = 0;
"2" = 0;
"3" = 0;
"4" = 0;
"5" = 0;
"6" = 0;
"7" = 0;
"8" = 0;
"9" = 0;
};
};
width = 525;
},
{
associatedMasterId = "8DAFC702-8226-41F4-8BBE-2050DDC1B01E";
layerId = "5105A52B-DC23-4627-A87E-AE58A24A8068";
name = "Feb 26, 25 at 13:09";
shapes = (
{
closed = 1;
nodes = (
(80,0,l),
(481,0,l),
(481,72,l),
(128,72,l),
(130,33,l),
(372,287,ls),
(431,349,o),
(472,405,o),
(472,487,cs),
(472,608,o),
(377,688,o),
(253,688,cs),
(187,688,o),
(127,666,o),
(66,612,c),
(66,520,l),
(138,588,o),
(188,614,o),
(248,614,cs),
(329,614,o),
(390,564,o),
(390,482,cs),
(390,426,o),
(365,387,o),
(315,334,cs),
(80,85,l)
);
}
);
width = 531;
},
{
associatedMasterId = "8DAFC702-8226-41F4-8BBE-2050DDC1B01E";
layerId = "4A32F29B-4581-4C83-82C9-8734B2B48BD9";
name = "Feb 27, 25 at 12:13";
shapes = (
{
closed = 1;
nodes = (
(70,0,l),
(481,0,l),
(481,72,l),
(128,72,l),
(164,31,l),
(378,282,ls),
(434,348,o),
(472,405,o),
(472,487,cs),
(472,608,o),
(377,688,o),
(253,688,cs),
(187,688,o),
(127,666,o),
(66,612,c),
(66,520,l),
(138,588,o),
(188,614,o),
(248,614,cs),
(329,614,o),
(390,564,o),
(390,482,cs),
(390,426,o),
(368,386,o),
(321,329,cs),
(70,25,l)
);
}
);
width = 531;
},
{
associatedMasterId = "8DAFC702-8226-41F4-8BBE-2050DDC1B01E";
layerId = "19C45383-30D6-47CE-A617-47F67D7C8FE4";
name = "Feb 27, 25 at 12:55";
shapes = (
{
closed = 1;
nodes = (
(70,0,l),
(481,0,l),
(481,76,l),
(164,76,l),
(164,21,l),
(376,271,ls),
(438,345,o),
(476,405,o),
(476,485,cs),
(476,611,o),
(383,688,o),
(255,688,cs),
(189,688,o),
(124,667,o),
(66,618,c),
(66,518,l),
(126,583,o),
(188,614,o),
(252,614,cs),
(329,614,o),
(390,564,o),
(390,479,cs),
(390,426,o),
(369,383,o),
(317,319,cs),
(70,15,l)
);
}
);
width = 531;
},
{
associatedMasterId = m01;
color = 4;
layerId = "6DE1539D-3626-4749-9C14-56CDDC11E3B0";
name = "Feb 27, 25 at 13:01";
shapes = (
{
closed = 1;
nodes = (
(40,0,l),
(496,0,l),
(496,146,l),
(192,146,l),
(213,13,l),
(411,266,ls),
(464,334,o),
(496,387,o),
(496,468,cs),
(496,608,o),
(392,688,o),
(248,688,cs),
(173,688,o),
(116,669,o),
(50,612,c),
(50,440,l),
(122,506,o),
(175,534,o),
(233,534,cs),
(292,534,o),
(334,497,o),
(334,442,cs),
(334,401,o),
(316,368,o),
(279,320,cs),
(40,10,l)
);
}
);
userData = {
com.hugojourdan.ColorFlow = {
"0" = 0;
"1" = 0;
"10" = 0;
"11" = 0;
"2" = 0;
"3" = 0;
"4" = 0;
"5" = 0;
"6" = 0;
"7" = 0;
"8" = 0;
"9" = 0;
};
};
width = 525;
},
{
associatedMasterId = "8DAFC702-8226-41F4-8BBE-2050DDC1B01E";
color = 5;
layerId = "D82D5007-4073-4343-84F7-2A4E6AFB3B3B";
name = "Feb 27, 25 at 13:14";
shapes = (
{
closed = 1;
nodes = (
(481,0,l),
(481,76,l),
(164,76,l),
(166,21,l),
(373,260,ls),
(440,338,o),
(476,400,o),
(476,483,cs),
(476,606,o),
(383,688,o),
(255,688,cs),
(189,688,o),
(124,667,o),
(66,613,c),
(66,514,l),
(124,583,o),
(188,614,o),
(252,614,cs),
(333,614,o),
(390,559,o),
(390,481,cs),
(390,421,o),
(371,375,o),
(315,308,cs),
(58,0,l)
);
}
);
width = 531;
},
{
associatedMasterId = "8DAFC702-8226-41F4-8BBE-2050DDC1B01E";
color = 5;
layerId = "F2EE9F96-B4E6-415D-8C4D-A96BBA37C55E";
name = "Feb 27, 25 at 16:38";
shapes = (
{
closed = 1;
nodes = (
(491,0,l),
(491,76,l),
(164,76,l),
(166,21,l),
(389,274,ls),
(457,351,o),
(488,405,o),
(488,481,cs),
(488,604,o),
(390,688,o),
(257,688,cs),
(190,688,o),
(125,666,o),
(69,610,c),
(69,502,l),
(126,581,o),
(188,612,o),
(256,612,cs),
(342,612,o),
(402,555,o),
(402,477,cs),
(402,430,o),
(386,387,o),
(331,323,cs),
(54,0,l)
);
}
);
visible = 1;
width = 531;
},
{
associatedMasterId = m01;
color = 4;
layerId = "335E6609-E136-4538-B0C5-D717DEA47886";
name = "Mar 1, 25 at 20:35";
shapes = (
{
closed = 1;
nodes = (
(496,0,l),
(496,146,l),
(192,146,l),
(213,13,l),
(411,266,ls),
(464,334,o),
(496,387,o),
(496,468,cs),
(496,608,o),
(392,688,o),
(248,688,cs),
(173,688,o),
(116,669,o),
(50,612,c),
(50,440,l),
(122,506,o),
(175,534,o),
(233,534,cs),
(292,534,o),
(334,497,o),
(334,442,cs),
(334,401,o),
(316,368,o),
(279,320,cs),
(32,0,l)
);
}
);
userData = {
com.hugojourdan.ColorFlow = {
"0" = 0;
"1" = 0;
"10" = 0;
"11" = 0;
"2" = 0;
"3" = 0;
"4" = 0;
"5" = 0;
"6" = 0;
"7" = 0;
"8" = 0;
"9" = 0;
};
};
width = 525;
},
{
associatedMasterId = "8DAFC702-8226-41F4-8BBE-2050DDC1B01E";
color = 5;
layerId = "32C5F7B6-61E3-4B8B-98E0-F4C2491CBEDE";
name = "Jun 15, 25 at 18:09";
shapes = (
{
closed = 1;
nodes = (
(491,0,l),
(491,76,l),
(164,76,l),
(166,21,l),
(388,268,ls),
(457,345,o),
(488,405,o),
(488,478,cs),
(488,604,o),
(390,688,o),
(257,688,cs),
(190,688,o),
(125,666,o),
(69,610,c),
(69,502,l),
(126,581,o),
(188,612,o),
(256,612,cs),
(342,612,o),
(402,555,o),
(402,474,cs),
(402,430,o),
(386,381,o),
(330,317,cs),
(54,0,l)
);
}
);
width = 531;
},
{
associatedMasterId = m01;
color = 6;
layerId = "EC3C8961-5193-481E-A965-3233F3DDEC57";
name = "Jun 15, 25 at 18:09";
shapes = (
{
closed = 1;
nodes = (
(496,0,l),
(496,132,l),
(192,132,l),
(203,13,l),
(410,262,ls),
(463,327,o),
(500,387,o),
(500,468,cs),
(500,608,o),
(394,688,o),
(250,688,cs),
(176,688,o),
(108,666,o),
(54,612,c),
(54,458,l),
(104,522,o),
(170,552,o),
(226,552,cs),
(293,552,o),
(344,508,o),
(344,442,cs),
(344,401,o),
(326,359,o),
(291,317,cs),
(32,0,l)
);
}
);
userData = {
com.hugojourdan.ColorFlow = {
"0" = 0;
"1" = 0;
"10" = 0;
"11" = 0;
"2" = 0;
"3" = 0;
"4" = 0;
"5" = 0;
"6" = 0;
"7" = 0;
"8" = 0;
"9" = 0;
};
};
width = 525;
},
{
associatedMasterId = m01;
color = 6;
layerId = "D7F38898-F8D8-40AA-9DF5-E2149DE93064";
name = "Jun 15, 25 at 22:25";
shapes = (
{
closed = 1;
nodes = (
(65,0,l),
(524,0,l),
(524,134,l),
(192,134,l),
(233,73,l),
(424,258,ls),
(489,320,o),
(520,383,o),
(520,458,cs),
(520,604,o),
(407,688,o),
(254,688,cs),
(181,688,o),
(115,667,o),
(62,624,c),
(62,469,l),
(110,520,o),
(173,549,o),
(231,549,cs),
(303,549,o),
(354,508,o),
(354,437,cs),
(354,397,o),
(338,359,o),
(295,317,cs),
(65,92,l)
);
}
);
userData = {
com.hugojourdan.ColorFlow = {
"0" = 0;
"1" = 0;
"10" = 0;
"11" = 0;
"2" = 0;
"3" = 0;
"4" = 0;
"5" = 0;
"6" = 0;
"7" = 0;
"8" = 0;
"9" = 0;
};
};
width = 565;
},
{
associatedMasterId = "8DAFC702-8226-41F4-8BBE-2050DDC1B01E";
layerId = "829265EF-9949-44B4-A683-4AE2881D455E";
name = "Jun 15, 25 at 22:28";
shapes = (
{
closed = 1;
nodes = (
(80,0,l),
(501,0,l),
(501,76,l),
(164,76,l),
(182,47,l),
(386,266,ls),
(460,345,o),
(494,412,o),
(494,485,cs),
(494,610,o),
(397,688,o),
(263,688,cs),
(193,688,o),
(126,666,o),
(69,616,c),
(69,520,l),
(125,581,o),
(190,614,o),
(258,614,cs),
(344,614,o),
(402,559,o),
(402,478,cs),
(402,429,o),
(381,379,o),
(323,316,cs),
(80,50,l)
);
}
);
width = 531;
}
);
unicode = 50;
userData = {
KernOnName = two;
};
}
{
glyphname = three;
kernLeft = three;
kernRight = three;
layers = (
{
associatedMasterId = m01;
layerId = "D36A14BE-AE5B-4FC2-934C-375B1A7D67DA";
name = "Oct 19, 22, 10:47";
shapes = (
{
closed = 1;
nodes = (
(312,357,l),
(490,490,l),
(490,700,l),
(40,700,l),
(40,548,l),
(380,548,l),
(380,564,l),
(115,357,l),
(115,347,l),
(272,347,o),
(335,294,o),
(335,226,cs),
(335,173,o),
(293,142,o),
(228,142,cs),
(177,142,o),
(121,162,o),
(35,196,c),
(35,31,l),
(103,6,o),
(172,-12,o),
(243,-12,cs),
(392,-12,o),
(495,73,o),
(495,200,cs),
(495,332,o),
(376,397,o),
(245,357,c)
);
}
);
userData = {
com.hugojourdan.ColorFlow = {
"0" = 0;
"1" = 0;
"10" = 0;
"11" = 0;
"2" = 0;
"3" = 0;
"4" = 0;
"5" = 0;
"6" = 0;
"7" = 0;
"8" = 0;
"9" = 0;
};
};
width = 600;
},
{
associatedMasterId = m01;
layerId = "D064E838-0324-42D7-9F71-D81AF385FF50";
name = "Oct 19, 22, 11:04";
shapes = (
{
closed = 1;
nodes = (
(282,367,l),
(495,680,l),
(495,700,l),
(40,700,l),
(40,548,l),
(395,548,l),
(295,614,l),
(125,377,l),
(125,367,l),
(272,367,o),
(335,310,o),
(335,246,cs),
(335,180,o),
(293,142,o),
(228,142,cs),
(177,142,o),
(121,162,o),
(35,196,c),
(35,31,l),
(103,6,o),
(172,-12,o),
(243,-12,cs),
(392,-12,o),
(495,81,o),
(495,220,cs),
(495,361,o),
(376,420,o),
(245,387,c)
);
}
);
userData = {
com.hugojourdan.ColorFlow = {
"0" = 0;
"1" = 0;
"10" = 0;
"11" = 0;
"2" = 0;
"3" = 0;
"4" = 0;
"5" = 0;
"6" = 0;
"7" = 0;
"8" = 0;
"9" = 0;
};
};
width = 520;
},
{
layerId = m01;
name = Regular;
shapes = (
{
closed = 1;
nodes = (
(268,328,l),
(486,680,l),
(30,680,l),
(30,546,l),
(322,546,l),
(327,669,l),
(123,326,l),
(173,326,ls),
(251,326,o),
(315,299,o),
(315,230,cs),
(315,173,o),
(268,128,o),
(186,128,cs),
(129,128,o),
(72,151,o),
(25,192,c),
(25,37,l),
(78,2,o),
(143,-10,o),
(203,-10,cs),
(369,-10,o),
(479,80,o),
(479,219,cs),
(479,347,o),
(382,426,o),
(260,426,c)
);
}
);
userData = {
com.hugojourdan.ColorFlow = {
"0" = 0;
"1" = 0;
"10" = 0;
"11" = 0;
"2" = 0;
"3" = 0;
"4" = 0;
"5" = 0;
"6" = 0;
"7" = 0;
"8" = 0;
"9" = 0;
};
};
width = 500;
},
{
associatedMasterId = m01;
layerId = "4035FEC0-C2FB-4C9C-8F08-586EB150896F";
name = "Oct 19, 22, 11:16";
shapes = (
{
closed = 1;
nodes = (
(282,367,l),
(475,540,l),
(475,700,l),
(40,700,l),
(40,548,l),
(375,548,l),
(375,614,l),
(105,367,l),
(105,357,l),
(265,357,o),
(325,300,o),
(325,236,cs),
(325,177,o),
(287,142,o),
(228,142,cs),
(177,142,o),
(121,162,o),
(35,196,c),
(35,31,l),
(103,6,o),
(172,-12,o),
(243,-12,cs),
(386,-12,o),
(485,77,o),
(485,210,cs),
(485,351,o),
(371,410,o),
(245,377,c)
);
}
);
userData = {
com.hugojourdan.ColorFlow = {
"0" = 0;
"1" = 0;
"10" = 0;
"11" = 0;
"2" = 0;
"3" = 0;
"4" = 0;
"5" = 0;
"6" = 0;
"7" = 0;
"8" = 0;
"9" = 0;
};
};
width = 520;
},
{
associatedMasterId = m01;
background = {
shapes = (
{
ref = five;
}
);
};
layerId = "4E14976A-181C-451E-8D1D-B1F3A39B0450";
name = "Oct 19, 22, 15:03";
shapes = (
{
closed = 1;
nodes = (
(312,367,l),
(495,550,l),
(495,700,l),
(40,700,l),
(40,548,l),
(395,548,l),
(375,614,l),
(105,342,l),
(105,332,l),
(273,357,o),
(335,300,o),
(335,231,cs),
(335,177,o),
(295,142,o),
(230,142,cs),
(181,142,o),
(124,162,o),
(35,196,c),
(35,31,l),
(103,6,o),
(172,-12,o),
(243,-12,cs),
(392,-12,o),
(495,77,o),
(495,210,cs),
(495,351,o),
(376,410,o),
(245,377,c)
);
}
);
userData = {
com.hugojourdan.ColorFlow = {
"0" = 0;
"1" = 0;
"10" = 0;
"11" = 0;
"2" = 0;
"3" = 0;
"4" = 0;
"5" = 0;
"6" = 0;
"7" = 0;
"8" = 0;
"9" = 0;
};
};
width = 530;
},
{
associatedMasterId = m01;
background = {
shapes = (
{
pos = (5,0);
ref = five;
}
);
};
layerId = "0258002C-CE26-497F-AAE3-48777BDE0277";
name = "Nov 18, 22, 10:10";
shapes = (
{
closed = 1;
nodes = (
(317,367,l),
(495,550,l),
(495,700,l),
(55,700,l),
(55,548,l),
(395,548,l),
(375,614,l),
(110,342,l),
(110,332,l),
(278,357,o),
(340,300,o),
(340,231,cs),
(340,177,o),
(300,142,o),
(235,142,cs),
(189,142,o),
(134,162,o),
(50,196,c),
(50,31,l),
(115,6,o),
(180,-12,o),
(248,-12,cs),
(397,-12,o),
(500,77,o),
(500,210,cs),
(500,351,o),
(381,410,o),
(250,377,c)
);
}
);
userData = {
com.hugojourdan.ColorFlow = {
"0" = 0;
"1" = 0;
"10" = 0;
"11" = 0;
"2" = 0;
"3" = 0;
"4" = 0;
"5" = 0;
"6" = 0;
"7" = 0;
"8" = 0;
"9" = 0;
};
};
width = 540;
},
{
associatedMasterId = m01;
background = {
shapes = (
{
pos = (5,0);
ref = five;
}
);
};
color = 0;
layerId = "CBA056DE-F569-4123-A489-F394810DB347";
name = "Jan 10, 23, 17:00";
shapes = (
{
closed = 1;
nodes = (
(317,367,l),
(495,550,l),
(495,700,l),
(55,700,l),
(55,548,l),
(395,548,l),
(375,614,l),
(110,342,l),
(110,332,l),
(273,347,o),
(340,300,o),
(340,231,cs),
(340,177,o),
(300,142,o),
(235,142,cs),
(189,142,o),
(134,162,o),
(50,196,c),
(50,31,l),
(115,6,o),
(180,-12,o),
(248,-12,cs),
(397,-12,o),
(500,77,o),
(500,210,cs),
(500,351,o),
(381,410,o),
(250,387,c)
);
}
);
userData = {
com.hugojourdan.ColorFlow = {
"0" = 0;
"1" = 0;
"10" = 0;
"11" = 0;
"2" = 0;
"3" = 0;
"4" = 0;
"5" = 0;
"6" = 0;
"7" = 0;
"8" = 0;
"9" = 0;
};
};
width = 540;
},
{
associatedMasterId = "8DAFC702-8226-41F4-8BBE-2050DDC1B01E";
color = 4;
layerId = "E10FB857-87BE-4ECF-B251-6F4D990495F3";
name = "Feb 25, 25 at 00:15";
shapes = (
{
closed = 1;
nodes = (
(268,383,l),
(465,618,l),
(465,700,l),
(65,700,l),
(65,626,l),
(435,626,l),
(401,654,l),
(154,358,l),
(154,348,l),
(308,361,o),
(394,309,o),
(394,209,cs),
(394,124,o),
(334,62,o),
(234,62,cs),
(185,62,o),
(132,76,o),
(60,108,c),
(60,23,l),
(118,3,o),
(177,-12,o),
(238,-12,cs),
(381,-12,o),
(475,71,o),
(475,204,cs),
(475,357,o),
(351,412,o),
(230,403,c)
);
}
);
width = 525;
},
{
associatedMasterId = m01;
background = {
shapes = (
{
pos = (5,0);
ref = five;
}
);
};
color = 4;
layerId = "9F0DE4D5-D491-4081-BF52-2274E2CEC493";
name = "Feb 25, 25 at 22:57";
shapes = (
{
closed = 1;
nodes = (
(317,367,l),
(495,550,l),
(495,700,l),
(55,700,l),
(55,548,l),
(395,548,l),
(375,614,l),
(110,347,l),
(110,332,l),
(268,342,o),
(340,303,o),
(340,231,cs),
(340,177,o),
(300,142,o),
(235,142,cs),
(189,142,o),
(134,162,o),
(50,196,c),
(50,31,l),
(115,6,o),
(180,-12,o),
(248,-12,cs),
(397,-12,o),
(500,77,o),
(500,210,cs),
(500,351,o),
(381,410,o),
(250,407,c)
);
}
);
userData = {
com.hugojourdan.ColorFlow = {
"0" = 0;
"1" = 0;
"10" = 0;
"11" = 0;
"2" = 0;
"3" = 0;
"4" = 0;
"5" = 0;
"6" = 0;
"7" = 0;
"8" = 0;
"9" = 0;
};
};
width = 540;
},
{
associatedMasterId = "8DAFC702-8226-41F4-8BBE-2050DDC1B01E";
color = 4;
layerId = "E50B7BC6-041F-4350-BCCD-95C2CEC4A99A";
name = "Feb 26, 25 at 00:18";
shapes = (
{
closed = 1;
nodes = (
(268,380,l),
(465,584,l),
(465,680,l),
(70,680,l),
(70,608,l),
(435,608,l),
(402,623,l),
(179,391,l),
(199,334,l),
(300,356,o),
(394,297,o),
(394,200,cs),
(394,126,o),
(339,62,o),
(240,62,cs),
(181,62,o),
(119,85,o),
(70,134,c),
(70,43,l),
(119,4,o),
(183,-12,o),
(240,-12,cs),
(379,-12,o),
(476,77,o),
(476,204,cs),
(476,348,o),
(352,413,o),
(245,403,c)
);
}
);
width = 545;
},
{
layerId = "8DAFC702-8226-41F4-8BBE-2050DDC1B01E";
name = Regular;
shapes = (
{
closed = 1;
nodes = (
(288,393,l),
(493,680,l),
(70,680,l),
(70,604,l),
(398,604,l),
(384,661,l),
(166,352,l),
(220,352,ls),
(326,352,o),
(399,302,o),
(399,209,cs),
(399,133,o),
(352,66,o),
(247,66,cs),
(183,66,o),
(117,91,o),
(64,138,c),
(64,45,l),
(116,6,o),
(183,-12,o),
(247,-12,cs),
(391,-12,o),
(493,77,o),
(493,209,cs),
(493,344,o),
(386,412,o),
(284,415,c)
);
}
);
width = 545;
},
{
associatedMasterId = m01;
background = {
shapes = (
{
pos = (5,0);
ref = five;
}
);
};
color = 4;
layerId = "DF9F44AE-08CA-4727-A2BC-9801D14308E9";
name = "Feb 26, 25 at 00:18";
shapes = (
{
closed = 1;
nodes = (
(298,351,l),
(485,520,l),
(485,680,l),
(70,680,l),
(70,528,l),
(455,528,l),
(372,579,l),
(179,412,l),
(199,315,l),
(272,321,o),
(344,285,o),
(344,226,cs),
(344,181,o),
(307,142,o),
(240,142,cs),
(181,142,o),
(119,165,o),
(70,214,c),
(70,33,l),
(122,1,o),
(190,-12,o),
(250,-12,cs),
(401,-12,o),
(506,86,o),
(506,226,cs),
(506,377,o),
(385,447,o),
(245,434,c)
);
}
);
userData = {
com.hugojourdan.ColorFlow = {
"0" = 0;
"1" = 0;
"10" = 0;
"11" = 0;
"2" = 0;
"3" = 0;
"4" = 0;
"5" = 0;
"6" = 0;
"7" = 0;
"8" = 0;
"9" = 0;
};
};
width = 540;
},
{
associatedMasterId = "8DAFC702-8226-41F4-8BBE-2050DDC1B01E";
color = 4;
layerId = "2F9F77B3-ED60-4556-9A44-7FE8C0308BBD";
name = "Feb 26, 25 at 00:18";
shapes = (
{
closed = 1;
nodes = (
(268,380,l),
(465,584,l),
(465,680,l),
(70,680,l),
(70,608,l),
(435,608,l),
(402,623,l),
(179,391,l),
(179,334,l),
(300,356,o),
(394,297,o),
(394,200,cs),
(394,126,o),
(339,62,o),
(240,62,cs),
(181,62,o),
(119,85,o),
(70,134,c),
(70,43,l),
(119,4,o),
(183,-12,o),
(240,-12,cs),
(379,-12,o),
(476,77,o),
(476,204,cs),
(476,348,o),
(352,413,o),
(245,403,c)
);
}
);
width = 545;
},
{
associatedMasterId = m01;
background = {
shapes = (
{
pos = (5,0);
ref = five;
}
);
};
color = 4;
layerId = "8BB79DEC-32F8-4E97-9DC1-F0D919E71A82";
name = "Feb 26, 25 at 11:51";
shapes = (
{
closed = 1;
nodes = (
(298,341,l),
(485,510,l),
(485,680,l),
(70,680,l),
(70,528,l),
(455,528,l),
(372,579,l),
(179,402,l),
(179,308,l),
(239,308,ls),
(292,308,o),
(344,279,o),
(344,226,cs),
(344,181,o),
(307,142,o),
(240,142,cs),
(181,142,o),
(119,165,o),
(70,214,c),
(70,33,l),
(122,1,o),
(190,-12,o),
(250,-12,cs),
(401,-12,o),
(506,86,o),
(506,226,cs),
(506,359,o),
(403,426,o),
(278,426,c)
);
}
);
userData = {
com.hugojourdan.ColorFlow = {
"0" = 0;
"1" = 0;
"10" = 0;
"11" = 0;
"2" = 0;
"3" = 0;
"4" = 0;
"5" = 0;
"6" = 0;
"7" = 0;
"8" = 0;
"9" = 0;
};
};
visible = 1;
width = 540;
},
{
associatedMasterId = m01;
color = 4;
layerId = "7E07C9C3-289B-48FF-9EF9-85CC45598DF1";
name = "Feb 26, 25 at 12:07";
shapes = (
{
closed = 1;
nodes = (
(298,341,l),
(505,580,l),
(505,680,l),
(70,680,l),
(70,528,l),
(372,528,l),
(372,649,l),
(169,348,l),
(169,308,l),
(249,308,ls),
(302,308,o),
(344,282,o),
(344,236,cs),
(344,186,o),
(301,142,o),
(224,142,cs),
(171,142,o),
(114,162,o),
(70,204,c),
(70,23,l),
(118,-2,o),
(180,-12,o),
(235,-12,cs),
(395,-12,o),
(506,86,o),
(506,226,cs),
(506,359,o),
(403,426,o),
(278,426,c)
);
}
);
userData = {
com.hugojourdan.ColorFlow = {
"0" = 0;
"1" = 0;
"10" = 0;
"11" = 0;
"2" = 0;
"3" = 0;
"4" = 0;
"5" = 0;
"6" = 0;
"7" = 0;
"8" = 0;
"9" = 0;
};
};
width = 540;
},
{
associatedMasterId = m01;
color = 4;
layerId = "0A7267A5-C7A4-432B-B60D-200621C231DB";
name = "Feb 26, 25 at 12:49";
shapes = (
{
closed = 1;
nodes = (
(288,351,l),
(485,540,l),
(485,680,l),
(70,680,l),
(70,528,l),
(362,528,l),
(352,579,l),
(139,378,l),
(139,318,l),
(229,318,ls),
(299,318,o),
(354,289,o),
(354,236,cs),
(354,186,o),
(309,142,o),
(229,142,cs),
(174,142,o),
(117,163,o),
(70,204,c),
(70,23,l),
(122,-2,o),
(180,-12,o),
(235,-12,cs),
(401,-12,o),
(516,82,o),
(516,231,cs),
(516,361,o),
(418,431,o),
(293,431,c)
);
}
);
userData = {
com.hugojourdan.ColorFlow = {
"0" = 0;
"1" = 0;
"10" = 0;
"11" = 0;
"2" = 0;
"3" = 0;
"4" = 0;
"5" = 0;
"6" = 0;
"7" = 0;
"8" = 0;
"9" = 0;
};
};
width = 540;
},
{
associatedMasterId = "8DAFC702-8226-41F4-8BBE-2050DDC1B01E";
color = 4;
layerId = "59495734-6E83-46AC-8D40-429438589FED";
name = "Feb 26, 25 at 13:12";
shapes = (
{
closed = 1;
nodes = (
(268,380,l),
(465,584,l),
(465,680,l),
(70,680,l),
(70,608,l),
(435,608,l),
(402,623,l),
(179,391,l),
(179,339,l),
(228,339,ls),
(325,339,o),
(394,283,o),
(394,200,cs),
(394,126,o),
(339,62,o),
(240,62,cs),
(181,62,o),
(119,85,o),
(70,134,c),
(70,43,l),
(119,4,o),
(183,-12,o),
(240,-12,cs),
(379,-12,o),
(476,77,o),
(476,204,cs),
(476,338,o),
(368,404,o),
(267,404,c)
);
}
);
width = 545;
},
{
associatedMasterId = m01;
color = 4;
layerId = "4415986E-2A47-489F-A1AB-F9E8875C927F";
name = "Feb 26, 25 at 13:49";
shapes = (
{
closed = 1;
nodes = (
(298,321,l),
(505,560,l),
(505,680,l),
(70,680,l),
(70,528,l),
(362,528,l),
(352,579,l),
(139,328,l),
(139,318,l),
(229,318,ls),
(299,318,o),
(354,286,o),
(354,235,cs),
(354,187,o),
(309,148,o),
(229,148,cs),
(174,148,o),
(117,169,o),
(70,210,c),
(70,29,l),
(122,4,o),
(180,-6,o),
(235,-6,cs),
(401,-6,o),
(516,87,o),
(516,234,cs),
(516,363,o),
(418,431,o),
(293,431,c)
);
}
);
userData = {
com.hugojourdan.ColorFlow = {
"0" = 0;
"1" = 0;
"10" = 0;
"11" = 0;
"2" = 0;
"3" = 0;
"4" = 0;
"5" = 0;
"6" = 0;
"7" = 0;
"8" = 0;
"9" = 0;
};
};
width = 540;
},
{
associatedMasterId = "8DAFC702-8226-41F4-8BBE-2050DDC1B01E";
color = 4;
layerId = "FF1EDCDA-9A54-4CB4-8EC5-145F8B89ED0D";
name = "Feb 26, 25 at 13:51";
shapes = (
{
closed = 1;
nodes = (
(275,380,l),
(465,625,l),
(465,680,l),
(70,680,l),
(70,608,l),
(435,608,l),
(402,658,l),
(173,359,l),
(173,339,l),
(228,339,ls),
(325,339,o),
(394,283,o),
(394,200,cs),
(394,126,o),
(339,62,o),
(240,62,cs),
(181,62,o),
(119,85,o),
(70,134,c),
(70,43,l),
(119,4,o),
(183,-12,o),
(240,-12,cs),
(379,-12,o),
(476,77,o),
(476,204,cs),
(476,338,o),
(368,404,o),
(267,404,c)
);
}
);
width = 545;
},
{
associatedMasterId = m01;
color = 4;
layerId = "CEF54A2B-DDC4-4A31-8BDD-78CC0B10FABF";
name = "Feb 26, 25 at 14:05";
shapes = (
{
closed = 1;
nodes = (
(293,318,l),
(505,560,l),
(505,680,l),
(70,680,l),
(70,528,l),
(362,528,l),
(352,579,l),
(139,332,l),
(139,328,l),
(229,318,ls),
(299,310,o),
(354,290,o),
(354,233,cs),
(354,185,o),
(309,148,o),
(232,148,cs),
(174,148,o),
(117,169,o),
(70,210,c),
(70,29,l),
(122,4,o),
(180,-6,o),
(235,-6,cs),
(401,-6,o),
(516,87,o),
(516,234,cs),
(516,363,o),
(418,431,o),
(293,431,c)
);
}
);
userData = {
com.hugojourdan.ColorFlow = {
"0" = 0;
"1" = 0;
"10" = 0;
"11" = 0;
"2" = 0;
"3" = 0;
"4" = 0;
"5" = 0;
"6" = 0;
"7" = 0;
"8" = 0;
"9" = 0;
};
};
width = 540;
},
{
associatedMasterId = "8DAFC702-8226-41F4-8BBE-2050DDC1B01E";
color = 4;
layerId = "D19C7779-F5CB-4DE5-8E4F-529CFBEBB9EF";
name = "Feb 26, 25 at 14:07";
shapes = (
{
closed = 1;
nodes = (
(275,380,l),
(465,625,l),
(465,680,l),
(70,680,l),
(70,608,l),
(435,608,l),
(402,658,l),
(173,359,l),
(173,355,l),
(228,345,ls),
(323,328,o),
(394,283,o),
(394,200,cs),
(394,126,o),
(339,62,o),
(240,62,cs),
(181,62,o),
(119,85,o),
(70,134,c),
(70,43,l),
(119,4,o),
(183,-12,o),
(240,-12,cs),
(379,-12,o),
(476,77,o),
(476,204,cs),
(476,338,o),
(368,389,o),
(267,404,c)
);
}
);
width = 545;
},
{
associatedMasterId = "8DAFC702-8226-41F4-8BBE-2050DDC1B01E";
color = 4;
layerId = "D042A0EA-06FF-42BE-9AC1-3C8FDA2D27EE";
name = "Feb 27, 25 at 12:23";
shapes = (
{
closed = 1;
nodes = (
(275,380,l),
(465,625,l),
(465,680,l),
(70,680,l),
(70,608,l),
(435,608,l),
(402,658,l),
(173,359,l),
(173,355,l),
(247,343,o),
(394,323,o),
(394,200,cs),
(394,126,o),
(339,62,o),
(240,62,cs),
(181,62,o),
(119,85,o),
(70,134,c),
(70,43,l),
(119,4,o),
(183,-12,o),
(240,-12,cs),
(379,-12,o),
(476,77,o),
(476,204,cs),
(476,338,o),
(368,389,o),
(267,404,c)
);
}
);
width = 545;
},
{
associatedMasterId = m01;
color = 4;
layerId = "8317289A-70A8-446E-BA7E-0FE3566D175B";
name = "Feb 27, 25 at 13:01";
shapes = (
{
closed = 1;
nodes = (
(306,318,l),
(505,560,l),
(505,680,l),
(70,680,l),
(70,534,l),
(362,534,l),
(352,579,l),
(154,332,l),
(154,328,l),
(205,322,o),
(354,318,o),
(354,233,cs),
(354,185,o),
(309,148,o),
(232,148,cs),
(174,148,o),
(117,169,o),
(70,210,c),
(70,29,l),
(122,4,o),
(180,-6,o),
(235,-6,cs),
(401,-6,o),
(516,87,o),
(516,234,cs),
(516,363,o),
(418,431,o),
(293,431,c)
);
}
);
userData = {
com.hugojourdan.ColorFlow = {
"0" = 0;
"1" = 0;
"10" = 0;
"11" = 0;
"2" = 0;
"3" = 0;
"4" = 0;
"5" = 0;
"6" = 0;
"7" = 0;
"8" = 0;
"9" = 0;
};
};
width = 540;
},
{
associatedMasterId = "8DAFC702-8226-41F4-8BBE-2050DDC1B01E";
color = 4;
layerId = "699F0214-FFA1-4D61-9841-39B7769E6CE8";
name = "Feb 27, 25 at 13:35";
shapes = (
{
closed = 1;
nodes = (
(269,386,l),
(474,670,l),
(474,680,l),
(70,680,l),
(70,608,l),
(391,608,l),
(380,662,l),
(173,365,l),
(173,355,l),
(278,341,o),
(392,304,o),
(392,200,cs),
(392,126,o),
(342,62,o),
(240,62,cs),
(181,62,o),
(119,85,o),
(70,134,c),
(70,43,l),
(119,4,o),
(183,-12,o),
(240,-12,cs),
(380,-12,o),
(478,77,o),
(478,202,cs),
(478,330,o),
(369,386,o),
(267,403,c)
);
}
);
width = 545;
},
{
associatedMasterId = m01;
color = 4;
layerId = "BDEA5AC6-D71A-4CBA-9FF8-975972DFEA92";
name = "Mar 1, 25 at 20:37";
shapes = (
{
closed = 1;
nodes = (
(306,318,l),
(505,660,l),
(505,680,l),
(70,680,l),
(70,534,l),
(362,534,l),
(352,679,l),
(154,332,l),
(154,328,l),
(205,322,o),
(354,318,o),
(354,233,cs),
(354,185,o),
(309,148,o),
(232,148,cs),
(174,148,o),
(117,169,o),
(70,210,c),
(70,29,l),
(122,4,o),
(180,-6,o),
(235,-6,cs),
(401,-6,o),
(516,87,o),
(516,234,cs),
(516,363,o),
(418,431,o),
(293,431,c)
);
}
);
userData = {
com.hugojourdan.ColorFlow = {
"0" = 0;
"1" = 0;
"10" = 0;
"11" = 0;
"2" = 0;
"3" = 0;
"4" = 0;
"5" = 0;
"6" = 0;
"7" = 0;
"8" = 0;
"9" = 0;
};
};
width = 540;
},
{
associatedMasterId = m01;
color = 4;
layerId = "8CDEB687-B454-4170-986C-829254BBB2E4";
name = "Mar 1, 25 at 20:37";
shapes = (
{
closed = 1;
nodes = (
(306,318,l),
(517,680,l),
(70,680,l),
(70,534,l),
(362,534,l),
(352,679,l),
(152,328,l),
(201,322,o),
(354,319,o),
(354,233,cs),
(354,185,o),
(309,148,o),
(232,148,cs),
(174,148,o),
(117,169,o),
(70,210,c),
(70,29,l),
(122,4,o),
(180,-6,o),
(235,-6,cs),
(401,-6,o),
(516,87,o),
(516,234,cs),
(516,363,o),
(418,431,o),
(293,431,c)
);
}
);
userData = {
com.hugojourdan.ColorFlow = {
"0" = 0;
"1" = 0;
"10" = 0;
"11" = 0;
"2" = 0;
"3" = 0;
"4" = 0;
"5" = 0;
"6" = 0;
"7" = 0;
"8" = 0;
"9" = 0;
};
};
width = 540;
},
{
associatedMasterId = "8DAFC702-8226-41F4-8BBE-2050DDC1B01E";
color = 5;
layerId = "C30E5075-BC17-4128-913B-9484AAC269B4";
name = "Jun 16, 25 at 11:32";
shapes = (
{
closed = 1;
nodes = (
(277,396,l),
(488,680,l),
(70,680,l),
(70,608,l),
(398,608,l),
(384,662,l),
(170,366,l),
(287,354,o),
(396,313,o),
(396,200,cs),
(396,130,o),
(345,62,o),
(242,62,cs),
(180,62,o),
(115,86,o),
(64,136,c),
(64,45,l),
(115,5,o),
(182,-12,o),
(242,-12,cs),
(383,-12,o),
(482,78,o),
(482,202,cs),
(482,335,o),
(378,403,o),
(270,417,c)
);
}
);
width = 545;
},
{
associatedMasterId = m01;
color = 6;
layerId = "D834D966-A730-436A-8E51-AD487DACF456";
name = "Jun 16, 25 at 14:39";
shapes = (
{
closed = 1;
nodes = (
(293,328,l),
(511,680,l),
(70,680,l),
(70,548,l),
(362,548,l),
(357,669,l),
(153,336,l),
(260,329,o),
(348,301,o),
(348,220,cs),
(348,168,o),
(303,126,o),
(226,126,cs),
(170,126,o),
(115,147,o),
(70,188,c),
(70,34,l),
(122,4,o),
(180,-6,o),
(235,-6,cs),
(395,-6,o),
(506,82,o),
(506,220,cs),
(506,346,o),
(412,411,o),
(293,421,c)
);
}
);
userData = {
com.hugojourdan.ColorFlow = {
"0" = 0;
"1" = 0;
"10" = 0;
"11" = 0;
"2" = 0;
"3" = 0;
"4" = 0;
"5" = 0;
"6" = 0;
"7" = 0;
"8" = 0;
"9" = 0;
};
};
width = 540;
}
);
unicode = 51;
userData = {
KernOnName = three;
};
}
{
glyphname = four;
kernLeft = four;
kernRight = four;
layers = (
{
associatedMasterId = m01;
layerId = "FDEBD0E3-86A0-4870-9678-74B18DFBF3D8";
name = "103";
shapes = (
{
closed = 1;
nodes = (
(514,0,l),
(514,700,l),
(354,700,l),
(354,0,l)
);
},
{
closed = 1;
nodes = (
(20,110,l),
(572,110,l),
(572,262,l),
(107,262,l),
(138,130,l),
(364,700,l),
(207,700,l),
(20,240,l)
);
}
);
userData = {
com.hugojourdan.ColorFlow = {
"0" = 0;
"1" = 0;
"10" = 0;
"11" = 0;
"2" = 0;
"3" = 0;
"4" = 0;
"5" = 0;
"6" = 0;
"7" = 0;
"8" = 0;
"9" = 0;
};
};
width = 592;
},
{
layerId = "8DAFC702-8226-41F4-8BBE-2050DDC1B01E";
shapes = (
{
closed = 1;
nodes = (
(281,680,l),
(12,192,l),
(545,192,l),
(545,268,l),
(110,268,l),
(124,227,l),
(381,680,l)
);
},
{
closed = 1;
nodes = (
(352,500,l),
(352,239,l),
(352,216,l),
(352,0,l),
(444,0,l),
(444,500,l)
);
}
);
width = 555;
},
{
associatedMasterId = m01;
layerId = "A73B1203-02A7-46B1-A594-54AA71D2040B";
name = "Nov 17, 22, 11:53";
shapes = (
{
closed = 1;
nodes = (
(500,0,l),
(500,700,l),
(340,700,l),
(340,0,l)
);
},
{
closed = 1;
nodes = (
(30,124,l),
(562,124,l),
(562,272,l),
(117,272,l),
(148,140,l),
(367,700,l),
(210,700,l),
(30,250,l)
);
}
);
userData = {
com.hugojourdan.ColorFlow = {
"0" = 0;
"1" = 0;
"10" = 0;
"11" = 0;
"2" = 0;
"3" = 0;
"4" = 0;
"5" = 0;
"6" = 0;
"7" = 0;
"8" = 0;
"9" = 0;
};
};
width = 592;
},
{
layerId = m01;
name = Bold;
shapes = (
{
closed = 1;
nodes = (
(244,680,l),
(-4,166,l),
(581,166,l),
(581,298,l),
(75,298,l),
(164,178,l),
(414,680,l)
);
},
{
closed = 1;
nodes = (
(353,510,l),
(353,240,l),
(345,213,l),
(345,0,l),
(503,0,l),
(503,510,l)
);
}
);
userData = {
com.hugojourdan.ColorFlow = {
"0" = 0;
"1" = 0;
"10" = 0;
"11" = 0;
"2" = 0;
"3" = 0;
"4" = 0;
"5" = 0;
"6" = 0;
"7" = 0;
"8" = 0;
"9" = 0;
};
};
width = 587;
},
{
associatedMasterId = "8DAFC702-8226-41F4-8BBE-2050DDC1B01E";
layerId = "8B995C35-512E-49FA-9288-59A6D044AFE1";
name = "Nov 18, 22, 10:20";
shapes = (
{
closed = 1;
nodes = (
(397,0,l),
(397,500,l),
(319,500,l),
(319,219,l),
(317,193,l),
(317,0,l)
);
},
{
closed = 1;
nodes = (
(30,154,l),
(490,154,l),
(490,226,l),
(95,226,l),
(84,170,l),
(372,700,l),
(285,700,l),
(30,220,l)
);
}
);
width = 510;
},
{
associatedMasterId = "8DAFC702-8226-41F4-8BBE-2050DDC1B01E";
layerId = "46C5EC89-4AEA-41FE-8501-06F1F6949657";
name = "Nov 18, 22, 13:31";
shapes = (
{
closed = 1;
nodes = (
(407,0,l),
(407,500,l),
(329,500,l),
(329,219,l),
(327,193,l),
(327,0,l)
);
},
{
closed = 1;
nodes = (
(30,154,l),
(500,154,l),
(500,226,l),
(95,226,l),
(84,170,l),
(382,700,l),
(295,700,l),
(30,220,l)
);
}
);
width = 520;
},
{
associatedMasterId = "8DAFC702-8226-41F4-8BBE-2050DDC1B01E";
layerId = "957BCE0C-8668-425A-B80B-A84D75EC89D5";
name = "Feb 25, 25 at 00:24";
shapes = (
{
closed = 1;
nodes = (
(417,0,l),
(417,510,l),
(339,510,l),
(339,209,l),
(337,183,l),
(337,0,l)
);
},
{
closed = 1;
nodes = (
(30,144,l),
(520,144,l),
(520,216,l),
(95,216,l),
(84,160,l),
(382,700,l),
(295,700,l),
(30,210,l)
);
}
);
width = 540;
},
{
associatedMasterId = m01;
color = 0;
layerId = "4628456B-2429-4DC3-81C3-F5E9486ACFD0";
name = "Feb 25, 25 at 23:00";
shapes = (
{
closed = 1;
nodes = (
(484,0,l),
(484,500,l),
(329,500,l),
(329,229,l),
(324,163,l),
(324,0,l)
);
},
{
closed = 1;
nodes = (
(20,124,l),
(552,124,l),
(552,270,l),
(107,270,l),
(138,140,l),
(400,700,l),
(227,700,l),
(20,250,l)
);
}
);
userData = {
com.hugojourdan.ColorFlow = {
"0" = 0;
"1" = 0;
"10" = 0;
"11" = 0;
"2" = 0;
"3" = 0;
"4" = 0;
"5" = 0;
"6" = 0;
"7" = 0;
"8" = 0;
"9" = 0;
};
};
width = 562;
},
{
associatedMasterId = m01;
color = 0;
layerId = "C7E88F99-C08D-4B0C-BD6E-9A06396D6677";
name = "Feb 26, 25 at 11:32";
shapes = (
{
closed = 1;
nodes = (
(504,0,l),
(504,680,l),
(349,680,l),
(349,259,l),
(344,193,l),
(344,0,l)
);
},
{
closed = 1;
nodes = (
(30,154,l),
(592,154,l),
(592,290,l),
(117,290,l),
(131,170,l),
(370,680,l),
(222,680,l),
(30,280,l)
);
}
);
userData = {
com.hugojourdan.ColorFlow = {
"0" = 0;
"1" = 0;
"10" = 0;
"11" = 0;
"2" = 0;
"3" = 0;
"4" = 0;
"5" = 0;
"6" = 0;
"7" = 0;
"8" = 0;
"9" = 0;
};
};
width = 592;
},
{
associatedMasterId = "8DAFC702-8226-41F4-8BBE-2050DDC1B01E";
layerId = "8677A4CC-40F8-4270-9FDF-7A65EBE5CC49";
name = "Feb 26, 25 at 11:33";
shapes = (
{
closed = 1;
nodes = (
(367,680,l),
(367,229,l),
(367,206,l),
(367,0,l),
(447,0,l),
(447,680,l)
);
},
{
closed = 1;
nodes = (
(304,680,l),
(50,267,l),
(50,184,l),
(570,184,l),
(570,256,l),
(85,256,l),
(104,217,l),
(388,680,l)
);
}
);
width = 580;
},
{
associatedMasterId = "8DAFC702-8226-41F4-8BBE-2050DDC1B01E";
layerId = "BE8032C5-1647-4F8C-B03C-88D585B32E9C";
name = "Feb 26, 25 at 13:16";
shapes = (
{
closed = 1;
nodes = (
(367,670,l),
(367,229,l),
(367,206,l),
(367,0,l),
(447,0,l),
(447,680,l),
(304,680,l),
(50,207,l),
(50,184,l),
(570,184,l),
(570,256,l),
(85,256,l),
(137,217,l),
(382,670,l)
);
}
);
width = 580;
},
{
associatedMasterId = m01;
color = 0;
layerId = "513D2093-8DC2-4BB0-82B0-CF34D8A0EC8A";
name = "Feb 26, 25 at 13:18";
shapes = (
{
closed = 1;
nodes = (
(182,680,l),
(0,160,l),
(0,144,l),
(562,144,l),
(562,286,l),
(87,286,l),
(165,170,l),
(354,680,l)
);
},
{
closed = 1;
nodes = (
(309,460,l),
(309,259,l),
(304,193,l),
(304,0,l),
(464,0,l),
(464,460,l)
);
}
);
userData = {
com.hugojourdan.ColorFlow = {
"0" = 0;
"1" = 0;
"10" = 0;
"11" = 0;
"2" = 0;
"3" = 0;
"4" = 0;
"5" = 0;
"6" = 0;
"7" = 0;
"8" = 0;
"9" = 0;
};
};
width = 562;
},
{
associatedMasterId = "8DAFC702-8226-41F4-8BBE-2050DDC1B01E";
layerId = "23F456F3-1F42-4EF5-A24D-A3F109C47588";
name = "Feb 27, 25 at 13:41";
shapes = (
{
closed = 1;
nodes = (
(304,680,l),
(50,217,l),
(50,194,l),
(570,194,l),
(570,266,l),
(135,266,l),
(136,227,l),
(393,680,l)
);
},
{
closed = 1;
nodes = (
(369,500,l),
(369,239,l),
(367,216,l),
(367,0,l),
(447,0,l),
(447,500,l)
);
}
);
width = 580;
},
{
associatedMasterId = m01;
color = 0;
layerId = "ABB1512C-7552-4892-A5A1-1564338D1CC7";
name = "Mar 1, 25 at 20:40";
shapes = (
{
closed = 1;
nodes = (
(242,680,l),
(0,168,l),
(0,164,l),
(582,164,l),
(582,310,l),
(87,310,l),
(165,178,l),
(421,680,l)
);
},
{
closed = 1;
nodes = (
(339,470,l),
(339,279,l),
(334,213,l),
(334,0,l),
(494,0,l),
(494,470,l)
);
}
);
userData = {
com.hugojourdan.ColorFlow = {
"0" = 0;
"1" = 0;
"10" = 0;
"11" = 0;
"2" = 0;
"3" = 0;
"4" = 0;
"5" = 0;
"6" = 0;
"7" = 0;
"8" = 0;
"9" = 0;
};
};
width = 572;
},
{
associatedMasterId = "8DAFC702-8226-41F4-8BBE-2050DDC1B01E";
color = 5;
layerId = "6934C0D9-A691-462C-90BB-7FC4219D035C";
name = "Jun 16, 25 at 14:53";
shapes = (
{
closed = 1;
nodes = (
(281,680,l),
(12,194,l),
(545,194,l),
(545,264,l),
(110,264,l),
(116,227,l),
(375,680,l)
);
},
{
closed = 1;
nodes = (
(352,460,l),
(352,239,l),
(352,216,l),
(352,0,l),
(436,0,l),
(436,460,l)
);
}
);
width = 555;
}
);
unicode = 52;
}
{
glyphname = five;
kernLeft = five;
kernRight = five;
layers = (
{
background = {
shapes = (
{
pos = (-36,0);
ref = three;
}
);
};
layerId = m01;
shapes = (
{
closed = 1;
nodes = (
(454,550,l),
(454,680,l),
(46,680,l),
(46,311,l),
(84,325,o),
(128,333,o),
(169,333,cs),
(269,333,o),
(320,292,o),
(320,228,cs),
(320,168,o),
(269,130,o),
(192,130,cs),
(137,130,o),
(78,149,o),
(30,182,c),
(30,30,l),
(79,6,o),
(137,-6,o),
(200,-6,cs),
(376,-6,o),
(482,87,o),
(482,231,cs),
(482,369,o),
(379,456,o),
(243,456,cs),
(178,456,o),
(126,439,o),
(84,412,c),
(190,367,l),
(190,550,l)
);
}
);
userData = {
com.hugojourdan.ColorFlow = {
"0" = 0;
"1" = 0;
"10" = 0;
"11" = 0;
"2" = 0;
"3" = 0;
"4" = 0;
"5" = 0;
"6" = 0;
"7" = 0;
"8" = 0;
"9" = 0;
};
};
width = 509;
},
{
associatedMasterId = m01;
layerId = "DBC82AA3-88E9-488E-AA22-EDA442AE92C9";
name = "Oct 19, 22, 14:51";
shapes = (
{
closed = 1;
nodes = (
(55,700,l),
(35,327,l),
(35,317,l),
(98,324,o),
(150,329,o),
(191,329,cs),
(293,329,o),
(335,287,o),
(335,230,cs),
(335,174,o),
(293,142,o),
(228,142,cs),
(177,142,o),
(121,162,o),
(35,196,c),
(35,31,l),
(103,6,o),
(172,-12,o),
(243,-12,cs),
(392,-12,o),
(495,77,o),
(495,210,cs),
(495,341,o),
(408,419,o),
(297,419,cs),
(249,419,o),
(197,399,o),
(145,357,c),
(198,357,l),
(215,700,l)
);
},
{
closed = 1;
nodes = (
(475,700,l),
(130,700,l),
(130,548,l),
(475,548,l)
);
}
);
userData = {
com.hugojourdan.ColorFlow = {
"0" = 0;
"1" = 0;
"10" = 0;
"11" = 0;
"2" = 0;
"3" = 0;
"4" = 0;
"5" = 0;
"6" = 0;
"7" = 0;
"8" = 0;
"9" = 0;
};
};
width = 530;
},
{
associatedMasterId = m01;
layerId = "73643C7B-06E2-4A94-95CA-BF76185E1C4A";
name = "Oct 19, 22, 15:03";
shapes = (
{
closed = 1;
nodes = (
(55,700,l),
(35,320,l),
(35,310,l),
(98,317,o),
(150,322,o),
(187,322,cs),
(287,322,o),
(335,285,o),
(335,230,cs),
(335,177,o),
(290,142,o),
(226,142,cs),
(177,142,o),
(121,162,o),
(35,196,c),
(35,31,l),
(103,6,o),
(172,-12,o),
(243,-12,cs),
(392,-12,o),
(495,77,o),
(495,220,cs),
(495,350,o),
(408,434,o),
(257,434,cs),
(216,434,o),
(165,428,o),
(105,420,c),
(198,357,l),
(215,700,l)
);
},
{
closed = 1;
nodes = (
(475,700,l),
(130,700,l),
(130,548,l),
(475,548,l)
);
}
);
userData = {
com.hugojourdan.ColorFlow = {
"0" = 0;
"1" = 0;
"10" = 0;
"11" = 0;
"2" = 0;
"3" = 0;
"4" = 0;
"5" = 0;
"6" = 0;
"7" = 0;
"8" = 0;
"9" = 0;
};
};
width = 530;
},
{
layerId = "8DAFC702-8226-41F4-8BBE-2050DDC1B01E";
shapes = (
{
closed = 1;
nodes = (
(470,602,l),
(470,680,l),
(99,680,l),
(99,323,l),
(141,349,o),
(188,362,o),
(234,362,cs),
(336,362,o),
(397,300,o),
(397,217,cs),
(397,129,o),
(330,66,o),
(233,66,cs),
(172,66,o),
(115,91,o),
(66,135,c),
(66,41,l),
(114,7,o),
(173,-12,o),
(240,-12,cs),
(390,-12,o),
(491,82,o),
(491,219,cs),
(491,346,o),
(395,438,o),
(265,438,cs),
(211,438,o),
(156,422,o),
(110,386,c),
(181,377,l),
(181,602,l)
);
}
);
width = 540;
},
{
associatedMasterId = "8DAFC702-8226-41F4-8BBE-2050DDC1B01E";
layerId = "93483BF3-35A9-4BDD-8B34-0F5C29F3D392";
name = "Nov 18, 22, 10:31";
shapes = (
{
closed = 1;
nodes = (
(86,700,l),
(66,341,l),
(66,331,l),
(129,342,o),
(165,346,o),
(202,346,cs),
(335,346,o),
(400,292,o),
(400,207,cs),
(400,119,o),
(330,61,o),
(236,61,cs),
(188,61,o),
(137,76,o),
(60,107,c),
(60,23,l),
(122,1,o),
(183,-12,o),
(240,-12,cs),
(385,-12,o),
(480,72,o),
(480,207,cs),
(480,327,o),
(396,408,o),
(252,408,cs),
(201,408,o),
(157,398,o),
(120,389,c),
(146,357,l),
(165,700,l)
);
},
{
closed = 1;
nodes = (
(460,700,l),
(145,700,l),
(145,626,l),
(460,626,l)
);
}
);
width = 530;
},
{
associatedMasterId = m01;
color = 0;
layerId = "035826D7-71A2-43C7-A980-FA2CBCF9A58F";
name = "Jan 10, 23, 16:58";
shapes = (
{
closed = 1;
nodes = (
(70,700,l),
(50,320,l),
(50,310,l),
(113,317,o),
(165,322,o),
(202,322,cs),
(295,322,o),
(340,285,o),
(340,230,cs),
(340,177,o),
(295,142,o),
(231,142,cs),
(185,142,o),
(131,162,o),
(50,196,c),
(50,31,l),
(115,6,o),
(180,-12,o),
(248,-12,cs),
(397,-12,o),
(500,77,o),
(500,220,cs),
(500,350,o),
(417,434,o),
(272,434,cs),
(231,434,o),
(180,428,o),
(120,420,c),
(209,357,l),
(226,700,l)
);
},
{
closed = 1;
nodes = (
(480,700,l),
(145,700,l),
(145,548,l),
(480,548,l)
);
}
);
userData = {
com.hugojourdan.ColorFlow = {
"0" = 0;
"1" = 0;
"10" = 0;
"11" = 0;
"2" = 0;
"3" = 0;
"4" = 0;
"5" = 0;
"6" = 0;
"7" = 0;
"8" = 0;
"9" = 0;
};
};
width = 540;
},
{
associatedMasterId = "8DAFC702-8226-41F4-8BBE-2050DDC1B01E";
layerId = "6F796822-B058-4D04-AEF9-AAFF18CDEE98";
name = "Jan 10, 23, 16:59";
shapes = (
{
closed = 1;
nodes = (
(89,700,l),
(64,341,l),
(64,331,l),
(126,342,o),
(162,346,o),
(198,346,cs),
(327,346,o),
(389,291,o),
(389,205,cs),
(389,118,o),
(326,61,o),
(231,61,cs),
(184,61,o),
(130,74,o),
(56,105,c),
(56,21,l),
(116,-1,o),
(180,-12,o),
(235,-12,cs),
(377,-12,o),
(470,72,o),
(470,207,cs),
(470,326,o),
(386,410,o),
(241,410,cs),
(197,410,o),
(156,403,o),
(120,398,c),
(144,357,l),
(168,700,l)
);
},
{
closed = 1;
nodes = (
(440,700,l),
(143,700,l),
(143,626,l),
(440,626,l)
);
}
);
width = 520;
},
{
associatedMasterId = "8DAFC702-8226-41F4-8BBE-2050DDC1B01E";
color = 4;
layerId = "92E7EE71-AAE5-42B1-A464-C3E1E066E1E1";
name = "Feb 25, 25 at 00:27";
shapes = (
{
closed = 1;
nodes = (
(89,700,l),
(64,341,l),
(64,331,l),
(126,342,o),
(162,346,o),
(198,346,cs),
(327,346,o),
(389,291,o),
(389,205,cs),
(389,118,o),
(326,61,o),
(231,61,cs),
(184,61,o),
(130,74,o),
(56,105,c),
(56,21,l),
(116,-1,o),
(180,-12,o),
(235,-12,cs),
(377,-12,o),
(470,72,o),
(470,207,cs),
(470,326,o),
(386,410,o),
(232,410,cs),
(192,410,o),
(154,406,o),
(120,400,c),
(144,357,l),
(168,700,l)
);
},
{
closed = 1;
nodes = (
(440,700,l),
(143,700,l),
(143,626,l),
(440,626,l)
);
}
);
width = 520;
},
{
associatedMasterId = m01;
color = 4;
layerId = "2B5B6597-FA01-4422-A2DA-A91E29A2F1F3";
name = "Feb 25, 25 at 23:24";
shapes = (
{
closed = 1;
nodes = (
(70,700,l),
(50,315,l),
(50,300,l),
(113,307,o),
(165,312,o),
(202,312,cs),
(295,312,o),
(340,279,o),
(340,225,cs),
(340,172,o),
(295,142,o),
(233,142,cs),
(182,142,o),
(131,162,o),
(50,196,c),
(50,31,l),
(115,6,o),
(180,-12,o),
(248,-12,cs),
(397,-12,o),
(500,77,o),
(500,220,cs),
(500,350,o),
(417,429,o),
(272,429,cs),
(231,429,o),
(180,425,o),
(120,418,c),
(209,352,l),
(226,700,l)
);
},
{
closed = 1;
nodes = (
(480,700,l),
(145,700,l),
(145,548,l),
(480,548,l)
);
}
);
userData = {
com.hugojourdan.ColorFlow = {
"0" = 0;
"1" = 0;
"10" = 0;
"11" = 0;
"2" = 0;
"3" = 0;
"4" = 0;
"5" = 0;
"6" = 0;
"7" = 0;
"8" = 0;
"9" = 0;
};
};
width = 540;
},
{
associatedMasterId = m01;
color = 4;
layerId = "19C5D0DA-740F-4662-B41B-577255B1303E";
name = "Feb 26, 25 at 13:02";
shapes = (
{
closed = 1;
nodes = (
(39,680,l),
(34,276,l),
(174,276,l),
(196,303,o),
(223,314,o),
(253,314,cs),
(299,314,o),
(329,281,o),
(329,238,cs),
(329,184,o),
(283,148,o),
(212,148,cs),
(154,148,o),
(102,166,o),
(36,215,c),
(36,47,l),
(88,11,o),
(149,-6,o),
(216,-6,cs),
(379,-6,o),
(491,94,o),
(491,240,cs),
(491,363,o),
(397,456,o),
(265,456,cs),
(204,456,o),
(152,432,o),
(110,372,c),
(169,357,l),
(173,680,l)
);
},
{
closed = 1;
nodes = (
(470,680,l),
(133,680,l),
(133,544,l),
(470,544,l)
);
}
);
userData = {
com.hugojourdan.ColorFlow = {
"0" = 0;
"1" = 0;
"10" = 0;
"11" = 0;
"2" = 0;
"3" = 0;
"4" = 0;
"5" = 0;
"6" = 0;
"7" = 0;
"8" = 0;
"9" = 0;
};
};
width = 540;
},
{
associatedMasterId = "8DAFC702-8226-41F4-8BBE-2050DDC1B01E";
color = 4;
layerId = "93F74E14-2167-46E6-9741-4F6BB83FBD50";
name = "Feb 26, 25 at 13:20";
shapes = (
{
closed = 1;
nodes = (
(89,680,l),
(74,326,l),
(154,326,l),
(182,353,o),
(216,364,o),
(253,364,cs),
(341,364,o),
(399,300,o),
(399,215,cs),
(399,127,o),
(333,68,o),
(232,68,cs),
(177,68,o),
(128,86,o),
(66,135,c),
(66,47,l),
(115,11,o),
(173,-6,o),
(236,-6,cs),
(381,-6,o),
(481,85,o),
(481,217,cs),
(481,342,o),
(391,436,o),
(265,436,cs),
(212,436,o),
(167,418,o),
(130,372,c),
(149,357,l),
(163,680,l)
);
},
{
closed = 1;
nodes = (
(450,680,l),
(143,680,l),
(143,608,l),
(450,608,l)
);
}
);
width = 540;
},
{
associatedMasterId = m01;
color = 4;
layerId = "A65F0207-3EE5-47AB-941B-A18253A39121";
name = "Feb 26, 25 at 13:44";
shapes = (
{
closed = 1;
nodes = (
(74,680,l),
(74,296,l),
(113,306,o),
(160,314,o),
(207,314,cs),
(299,314,o),
(347,285,o),
(347,233,cs),
(347,178,o),
(298,148,o),
(228,148,cs),
(173,148,o),
(115,167,o),
(66,215,c),
(66,47,l),
(115,11,o),
(173,-6,o),
(236,-6,cs),
(398,-6,o),
(509,94,o),
(509,238,cs),
(509,362,o),
(412,456,o),
(275,456,cs),
(210,456,o),
(155,435,o),
(110,402,c),
(219,357,l),
(219,680,l)
);
},
{
closed = 1;
nodes = (
(490,680,l),
(133,680,l),
(133,544,l),
(490,544,l)
);
}
);
userData = {
com.hugojourdan.ColorFlow = {
"0" = 0;
"1" = 0;
"10" = 0;
"11" = 0;
"2" = 0;
"3" = 0;
"4" = 0;
"5" = 0;
"6" = 0;
"7" = 0;
"8" = 0;
"9" = 0;
};
};
width = 540;
},
{
associatedMasterId = m01;
background = {
shapes = (
{
ref = three;
}
);
};
color = 4;
layerId = "0EAFFC6B-617D-4D92-A4C5-7723CB6580A7";
name = "Feb 26, 25 at 13:47";
shapes = (
{
closed = 1;
nodes = (
(74,680,l),
(74,300,l),
(113,310,o),
(160,318,o),
(207,318,cs),
(304,318,o),
(354,288,o),
(354,233,cs),
(354,182,o),
(302,148,o),
(228,148,cs),
(173,148,o),
(115,166,o),
(66,210,c),
(66,30,l),
(115,6,o),
(173,-6,o),
(236,-6,cs),
(402,-6,o),
(516,87,o),
(516,238,cs),
(516,362,o),
(416,456,o),
(275,456,cs),
(210,456,o),
(155,435,o),
(110,402,c),
(219,357,l),
(219,680,l)
);
},
{
closed = 1;
nodes = (
(490,680,l),
(133,680,l),
(133,544,l),
(490,544,l)
);
}
);
userData = {
com.hugojourdan.ColorFlow = {
"0" = 0;
"1" = 0;
"10" = 0;
"11" = 0;
"2" = 0;
"3" = 0;
"4" = 0;
"5" = 0;
"6" = 0;
"7" = 0;
"8" = 0;
"9" = 0;
};
};
width = 540;
},
{
associatedMasterId = "8DAFC702-8226-41F4-8BBE-2050DDC1B01E";
color = 4;
layerId = "0F7E3CFD-69C0-4098-AEF2-1B3169DF315B";
name = "Feb 27, 25 at 13:49";
shapes = (
{
closed = 1;
nodes = (
(89,680,l),
(89,326,l),
(142,353,o),
(198,364,o),
(248,364,cs),
(341,364,o),
(399,300,o),
(399,215,cs),
(399,127,o),
(333,68,o),
(232,68,cs),
(177,68,o),
(128,86,o),
(66,135,c),
(66,47,l),
(115,11,o),
(173,-6,o),
(236,-6,cs),
(381,-6,o),
(481,85,o),
(481,217,cs),
(481,342,o),
(391,436,o),
(260,436,cs),
(208,436,o),
(151,422,o),
(101,388,c),
(163,357,l),
(163,680,l)
);
},
{
closed = 1;
nodes = (
(450,680,l),
(143,680,l),
(143,608,l),
(450,608,l)
);
}
);
width = 540;
},
{
associatedMasterId = m01;
background = {
shapes = (
{
ref = three;
}
);
};
color = 4;
layerId = "205A6692-383A-4BB7-90C6-77BC8A04C176";
name = "Mar 2, 25 at 13:45";
shapes = (
{
closed = 1;
nodes = (
(92,680,l),
(92,315,l),
(127,324,o),
(167,329,o),
(215,329,cs),
(303,329,o),
(354,294,o),
(354,238,cs),
(354,184,o),
(304,148,o),
(228,148,cs),
(173,148,o),
(115,166,o),
(66,210,c),
(66,30,l),
(115,6,o),
(173,-6,o),
(236,-6,cs),
(402,-6,o),
(516,90,o),
(516,241,cs),
(516,371,o),
(416,466,o),
(275,466,cs),
(210,466,o),
(155,445,o),
(110,412,c),
(237,367,l),
(237,680,l)
);
},
{
closed = 1;
nodes = (
(490,680,l),
(133,680,l),
(133,540,l),
(490,540,l)
);
}
);
userData = {
com.hugojourdan.ColorFlow = {
"0" = 0;
"1" = 0;
"10" = 0;
"11" = 0;
"2" = 0;
"3" = 0;
"4" = 0;
"5" = 0;
"6" = 0;
"7" = 0;
"8" = 0;
"9" = 0;
};
};
width = 540;
},
{
associatedMasterId = "8DAFC702-8226-41F4-8BBE-2050DDC1B01E";
color = 5;
layerId = "CCDB440D-3741-48D3-99FF-B08FCD2E885F";
name = "Jun 16, 25 at 15:07";
shapes = (
{
closed = 1;
nodes = (
(99,680,l),
(99,323,l),
(141,352,o),
(188,366,o),
(234,366,cs),
(336,366,o),
(397,302,o),
(397,217,cs),
(397,127,o),
(331,62,o),
(236,62,cs),
(174,62,o),
(117,87,o),
(66,137,c),
(66,43,l),
(113,6,o),
(171,-12,o),
(236,-12,cs),
(384,-12,o),
(483,82,o),
(483,219,cs),
(483,346,o),
(389,438,o),
(261,438,cs),
(208,438,o),
(155,422,o),
(110,386,c),
(177,377,l),
(177,680,l)
);
},
{
closed = 1;
nodes = (
(470,680,l),
(153,680,l),
(153,606,l),
(470,606,l)
);
}
);
width = 540;
}
);
unicode = 53;
userData = {
KernOnName = five;
};
}
{
glyphname = six;
kernLeft = six;
kernRight = six;
layers = (
{
associatedMasterId = m01;
layerId = "8226CCCD-2864-4477-8252-9B7EFFB6C973";
name = "Oct 19, 22, 11:02";
shapes = (
{
closed = 1;
nodes = (
(189,320,o),
(229,366,o),
(299,366,cs),
(369,366,o),
(409,320,o),
(409,254,cs),
(409,189,o),
(369,142,o),
(299,142,cs),
(229,142,o),
(189,189,o),
(189,254,cs)
);
},
{
closed = 1;
nodes = (
(275,513,o),
(349,607,o),
(423,700,c),
(229,700,l),
(122,558,o),
(25,406,o),
(25,260,cs),
(25,100,o),
(138,-12,o),
(299,-12,cs),
(460,-12,o),
(573,96,o),
(573,250,cs),
(573,402,o),
(459,482,o),
(347,482,cs),
(269,482,o),
(220,443,o),
(187,398,c),
(231,420,l)
);
}
);
userData = {
com.hugojourdan.ColorFlow = {
"0" = 0;
"1" = 0;
"10" = 0;
"11" = 0;
"2" = 0;
"3" = 0;
"4" = 0;
"5" = 0;
"6" = 0;
"7" = 0;
"8" = 0;
"9" = 0;
};
};
width = 598;
},
{
layerId = m01;
name = Regular;
shapes = (
{
closed = 1;
nodes = (
(449,-12,o),
(560,87,o),
(560,226,cs),
(560,354,o),
(467,444,o),
(351,444,cs),
(318,444,o),
(284,436,o),
(254,415,c),
(252,417,l),
(444,680,l),
(256,680,l),
(98,443,ls),
(57,382,o),
(24,309,o),
(24,228,cs),
(24,85,o),
(136,-12,o),
(292,-12,cs)
);
},
{
closed = 1;
nodes = (
(231,121,o),
(185,166,o),
(185,227,cs),
(185,290,o),
(229,335,o),
(291,335,cs),
(353,335,o),
(399,288,o),
(399,225,cs),
(399,164,o),
(355,121,o),
(293,121,cs)
);
}
);
userData = {
com.hugojourdan.ColorFlow = {
"0" = 0;
"1" = 0;
"10" = 0;
"11" = 0;
"2" = 0;
"3" = 0;
"4" = 0;
"5" = 0;
"6" = 0;
"7" = 0;
"8" = 0;
"9" = 0;
};
};
width = 584;
},
{
associatedMasterId = m01;
layerId = "F41E06FC-2196-41F5-B2E1-8C32FFDEF8EC";
name = "Oct 19, 22, 11:14";
shapes = (
{
closed = 1;
nodes = (
(199,310,o),
(235,356,o),
(299,356,cs),
(363,356,o),
(399,310,o),
(399,244,cs),
(399,179,o),
(363,132,o),
(299,132,cs),
(235,132,o),
(199,179,o),
(199,244,cs)
);
},
{
closed = 1;
nodes = (
(423,700,l),
(229,700,l),
(123,512,ls),
(72,421,o),
(35,358,o),
(35,260,cs),
(35,100,o),
(144,-12,o),
(299,-12,cs),
(454,-12,o),
(563,96,o),
(563,250,cs),
(563,402,o),
(454,482,o),
(340,482,cs),
(259,482,o),
(204,443,o),
(167,398,c),
(231,410,l)
);
}
);
userData = {
com.hugojourdan.ColorFlow = {
"0" = 0;
"1" = 0;
"10" = 0;
"11" = 0;
"2" = 0;
"3" = 0;
"4" = 0;
"5" = 0;
"6" = 0;
"7" = 0;
"8" = 0;
"9" = 0;
};
};
width = 598;
},
{
associatedMasterId = m01;
layerId = "67125E67-5F92-4C32-9C0D-3A744EB8EE97";
name = "Oct 19, 22, 11:14";
shapes = (
{
closed = 1;
nodes = (
(199,310,o),
(237,356,o),
(304,356,cs),
(371,356,o),
(409,310,o),
(409,244,cs),
(409,179,o),
(371,132,o),
(304,132,cs),
(237,132,o),
(199,179,o),
(199,244,cs)
);
},
{
closed = 1;
nodes = (
(223,700,l),
(29,700,l),
(123,512,ls),
(170,419,o),
(35,358,o),
(35,260,cs),
(35,100,o),
(146,-12,o),
(304,-12,cs),
(462,-12,o),
(573,96,o),
(573,250,cs),
(573,402,o),
(462,482,o),
(345,482,cs),
(262,482,o),
(205,443,o),
(167,398,c),
(231,410,l)
);
}
);
userData = {
com.hugojourdan.ColorFlow = {
"0" = 0;
"1" = 0;
"10" = 0;
"11" = 0;
"2" = 0;
"3" = 0;
"4" = 0;
"5" = 0;
"6" = 0;
"7" = 0;
"8" = 0;
"9" = 0;
};
};
width = 598;
},
{
associatedMasterId = m01;
layerId = "252A2F98-38FB-4CB7-A27D-98AB67D3FD91";
name = "Oct 19, 22, 14:54";
shapes = (
{
closed = 1;
nodes = (
(199,310,o),
(237,356,o),
(304,356,cs),
(371,356,o),
(409,310,o),
(409,244,cs),
(409,179,o),
(371,132,o),
(304,132,cs),
(237,132,o),
(199,179,o),
(199,244,cs)
);
},
{
closed = 1;
nodes = (
(411,700,l),
(217,700,l),
(120,512,ls),
(72,419,o),
(35,353,o),
(35,255,cs),
(35,85,o),
(146,-12,o),
(304,-12,cs),
(462,-12,o),
(573,96,o),
(573,250,cs),
(573,402,o),
(462,482,o),
(345,482,cs),
(262,482,o),
(205,443,o),
(167,398,c),
(228,410,l)
);
}
);
userData = {
com.hugojourdan.ColorFlow = {
"0" = 0;
"1" = 0;
"10" = 0;
"11" = 0;
"2" = 0;
"3" = 0;
"4" = 0;
"5" = 0;
"6" = 0;
"7" = 0;
"8" = 0;
"9" = 0;
};
};
width = 598;
},
{
layerId = "8DAFC702-8226-41F4-8BBE-2050DDC1B01E";
shapes = (
{
closed = 1;
nodes = (
(429,-12,o),
(531,87,o),
(531,219,cs),
(531,360,o),
(423,435,o),
(318,435,cs),
(272,435,o),
(232,421,o),
(198,395,c),
(196,397,l),
(405,680,l),
(300,680,l),
(107,397,ls),
(62,331,o),
(42,274,o),
(42,212,cs),
(42,78,o),
(144,-12,o),
(284,-12,cs)
);
},
{
closed = 1;
nodes = (
(195,65,o),
(131,129,o),
(131,219,cs),
(131,307,o),
(193,369,o),
(283,369,cs),
(375,369,o),
(438,304,o),
(438,215,cs),
(438,126,o),
(377,65,o),
(286,65,cs)
);
}
);
width = 573;
},
{
associatedMasterId = m01;
color = 0;
layerId = "B14994DE-CA69-4F39-B0EA-672898033789";
name = "Jan 10, 23, 17:02";
shapes = (
{
closed = 1;
nodes = (
(194,294,o),
(235,336,o),
(294,336,cs),
(353,336,o),
(394,294,o),
(394,234,cs),
(394,174,o),
(353,132,o),
(294,132,cs),
(235,132,o),
(194,174,o),
(194,234,cs)
);
},
{
closed = 1;
nodes = (
(426,700,l),
(232,700,l),
(125,512,ls),
(71,418,o),
(30,338,o),
(30,240,cs),
(30,81,o),
(139,-12,o),
(294,-12,cs),
(449,-12,o),
(558,92,o),
(558,235,cs),
(558,382,o),
(445,462,o),
(332,462,cs),
(254,462,o),
(199,423,o),
(162,378,c),
(233,400,l)
);
}
);
userData = {
com.hugojourdan.ColorFlow = {
"0" = 0;
"1" = 0;
"10" = 0;
"11" = 0;
"2" = 0;
"3" = 0;
"4" = 0;
"5" = 0;
"6" = 0;
"7" = 0;
"8" = 0;
"9" = 0;
};
};
width = 588;
},
{
associatedMasterId = m01;
color = 0;
layerId = "A5D84C36-D286-4249-AE97-98F3ADA8698E";
name = "Feb 26, 25 at 18:24";
shapes = (
{
closed = 1;
nodes = (
(194,294,o),
(235,336,o),
(294,336,cs),
(353,336,o),
(394,294,o),
(394,234,cs),
(394,174,o),
(353,132,o),
(294,132,cs),
(235,132,o),
(194,174,o),
(194,234,cs)
);
},
{
closed = 1;
nodes = (
(426,700,l),
(232,700,l),
(125,512,ls),
(71,418,o),
(30,338,o),
(30,240,cs),
(30,81,o),
(139,-12,o),
(294,-12,cs),
(459,-12,o),
(558,92,o),
(558,235,cs),
(558,382,o),
(445,462,o),
(332,462,cs),
(254,462,o),
(199,423,o),
(162,378,c),
(233,400,l)
);
}
);
userData = {
com.hugojourdan.ColorFlow = {
"0" = 0;
"1" = 0;
"10" = 0;
"11" = 0;
"2" = 0;
"3" = 0;
"4" = 0;
"5" = 0;
"6" = 0;
"7" = 0;
"8" = 0;
"9" = 0;
};
};
width = 588;
},
{
associatedMasterId = "8DAFC702-8226-41F4-8BBE-2050DDC1B01E";
layerId = "44E034CA-1CD3-4B67-9399-4C775223FF72";
name = v1;
shapes = (
{
closed = 1;
nodes = (
(130,303,o),
(192,366,o),
(280,366,cs),
(369,366,o),
(430,303,o),
(430,214,cs),
(430,125,o),
(369,62,o),
(280,62,cs),
(192,62,o),
(130,125,o),
(130,214,cs)
);
},
{
closed = 1;
nodes = (
(359,700,l),
(266,700,l),
(143,481,ls),
(96,399,o),
(50,320,o),
(50,220,cs),
(50,77,o),
(145,-12,o),
(280,-12,cs),
(416,-12,o),
(511,87,o),
(511,219,cs),
(511,362,o),
(401,437,o),
(299,437,cs),
(220,437,o),
(165,393,o),
(128,348,c),
(134,320,l)
);
}
);
width = 561;
},
{
associatedMasterId = "8DAFC702-8226-41F4-8BBE-2050DDC1B01E";
layerId = "593112F9-2890-43A8-9D5F-913AE2AA7A66";
name = "Feb 27, 25 at 14:00";
shapes = (
{
closed = 1;
nodes = (
(130,294,o),
(192,355,o),
(280,355,cs),
(369,355,o),
(430,294,o),
(430,208,cs),
(430,121,o),
(369,60,o),
(280,60,cs),
(192,60,o),
(130,121,o),
(130,208,cs)
);
},
{
closed = 1;
nodes = (
(359,680,l),
(266,680,l),
(143,467,ls),
(96,387,o),
(50,311,o),
(50,213,cs),
(50,75,o),
(145,-12,o),
(280,-12,cs),
(416,-12,o),
(511,84,o),
(511,213,cs),
(511,351,o),
(401,424,o),
(299,424,cs),
(220,424,o),
(165,382,o),
(128,338,c),
(134,311,l)
);
}
);
width = 561;
},
{
associatedMasterId = m01;
color = 0;
layerId = "E0A8BC2E-89D0-4625-AC7C-F94F3E897F3C";
name = "Mar 2, 25 at 13:47";
shapes = (
{
closed = 1;
nodes = (
(194,294,o),
(235,336,o),
(294,336,cs),
(353,336,o),
(394,294,o),
(394,234,cs),
(394,174,o),
(353,132,o),
(294,132,cs),
(235,132,o),
(194,174,o),
(194,234,cs)
);
},
{
closed = 1;
nodes = (
(426,680,l),
(232,680,l),
(125,512,ls),
(67,420,o),
(30,338,o),
(30,240,cs),
(30,81,o),
(139,-12,o),
(294,-12,cs),
(459,-12,o),
(558,92,o),
(558,235,cs),
(558,382,o),
(445,462,o),
(332,462,cs),
(254,462,o),
(199,423,o),
(162,378,c),
(233,400,l)
);
}
);
userData = {
com.hugojourdan.ColorFlow = {
"0" = 0;
"1" = 0;
"10" = 0;
"11" = 0;
"2" = 0;
"3" = 0;
"4" = 0;
"5" = 0;
"6" = 0;
"7" = 0;
"8" = 0;
"9" = 0;
};
};
width = 588;
},
{
associatedMasterId = m01;
color = 6;
layerId = "4C03AF05-C7C4-4C63-9451-73763F4C67F0";
name = "Mar 2, 25 at 14:04";
shapes = (
{
closed = 1;
nodes = (
(449,-12,o),
(558,85,o),
(558,222,cs),
(558,345,o),
(467,432,o),
(346,432,cs),
(268,432,o),
(213,393,o),
(176,348,c),
(227,380,l),
(446,680,l),
(262,680,l),
(104,443,ls),
(63,381,o),
(30,308,o),
(30,226,cs),
(30,84,o),
(140,-12,o),
(294,-12,cs)
);
},
{
closed = 1;
nodes = (
(228,118,o),
(186,159,o),
(186,224,cs),
(186,289,o),
(228,330,o),
(294,330,cs),
(360,330,o),
(402,289,o),
(402,224,cs),
(402,159,o),
(360,118,o),
(294,118,cs)
);
}
);
userData = {
com.hugojourdan.ColorFlow = {
"0" = 0;
"1" = 0;
"10" = 0;
"11" = 0;
"2" = 0;
"3" = 0;
"4" = 0;
"5" = 0;
"6" = 0;
"7" = 0;
"8" = 0;
"9" = 0;
};
};
width = 588;
},
{
associatedMasterId = m01;
color = 6;
layerId = "5AF435DA-92B9-411D-A696-7DA1E3FA8D98";
name = "Jun 16, 25 at 15:11";
shapes = (
{
closed = 1;
nodes = (
(449,-12,o),
(558,87,o),
(558,226,cs),
(558,352,o),
(467,440,o),
(346,440,cs),
(268,440,o),
(213,399,o),
(176,352,c),
(227,380,l),
(446,680,l),
(262,680,l),
(104,443,ls),
(63,382,o),
(30,309,o),
(30,228,cs),
(30,85,o),
(140,-12,o),
(294,-12,cs)
);
},
{
closed = 1;
nodes = (
(228,118,o),
(186,160,o),
(186,228,cs),
(186,296,o),
(228,338,o),
(294,338,cs),
(360,338,o),
(402,296,o),
(402,228,cs),
(402,160,o),
(360,118,o),
(294,118,cs)
);
}
);
userData = {
com.hugojourdan.ColorFlow = {
"0" = 0;
"1" = 0;
"10" = 0;
"11" = 0;
"2" = 0;
"3" = 0;
"4" = 0;
"5" = 0;
"6" = 0;
"7" = 0;
"8" = 0;
"9" = 0;
};
};
width = 588;
},
{
associatedMasterId = "8DAFC702-8226-41F4-8BBE-2050DDC1B01E";
color = 5;
layerId = "BAD86464-C558-4C05-A5C8-AB9A697606C6";
name = "Jun 16, 25 at 15:11";
shapes = (
{
closed = 1;
nodes = (
(433,-12,o),
(533,86,o),
(533,217,cs),
(533,357,o),
(420,432,o),
(314,432,cs),
(236,432,o),
(188,392,o),
(150,352,c),
(163,344,l),
(411,680,l),
(310,680,l),
(117,397,ls),
(72,331,o),
(51,274,o),
(51,212,cs),
(51,78,o),
(152,-12,o),
(291,-12,cs)
);
},
{
closed = 1;
nodes = (
(199,62,o),
(135,125,o),
(135,215,cs),
(135,304,o),
(199,367,o),
(291,367,cs),
(384,367,o),
(447,304,o),
(447,215,cs),
(447,125,o),
(384,62,o),
(291,62,cs)
);
}
);
width = 561;
}
);
unicode = 54;
}
{
glyphname = seven;
kernLeft = seven;
kernRight = seven;
layers = (
{
layerId = m01;
shapes = (
{
closed = 1;
nodes = (
(221,0,l),
(519,680,l),
(10,680,l),
(10,544,l),
(415,544,l),
(340,654,l),
(45,0,l)
);
}
);
userData = {
com.hugojourdan.ColorFlow = {
"0" = 0;
"1" = 0;
"10" = 0;
"11" = 0;
"2" = 0;
"3" = 0;
"4" = 0;
"5" = 0;
"6" = 0;
"7" = 0;
"8" = 0;
"9" = 0;
};
};
width = 515;
},
{
associatedMasterId = m01;
layerId = "20836C25-0E9E-492D-8FB1-68A17BAD765C";
name = "Oct 19, 22, 11:13";
shapes = (
{
closed = 1;
nodes = (
(257,0,l),
(495,590,l),
(495,700,l),
(20,700,l),
(20,548,l),
(395,548,l),
(337,614,l),
(85,0,l)
);
}
);
userData = {
com.hugojourdan.ColorFlow = {
"0" = 0;
"1" = 0;
"10" = 0;
"11" = 0;
"2" = 0;
"3" = 0;
"4" = 0;
"5" = 0;
"6" = 0;
"7" = 0;
"8" = 0;
"9" = 0;
};
};
width = 515;
},
{
associatedMasterId = m01;
layerId = "0850DA38-E38A-4AFE-AFE6-7C419E687238";
name = "Oct 20, 22, 14:24";
shapes = (
{
closed = 1;
nodes = (
(260,0,l),
(505,590,l),
(505,700,l),
(20,700,l),
(20,548,l),
(405,548,l),
(347,614,l),
(75,0,l)
);
}
);
userData = {
com.hugojourdan.ColorFlow = {
"0" = 0;
"1" = 0;
"10" = 0;
"11" = 0;
"2" = 0;
"3" = 0;
"4" = 0;
"5" = 0;
"6" = 0;
"7" = 0;
"8" = 0;
"9" = 0;
};
};
width = 525;
},
{
layerId = "8DAFC702-8226-41F4-8BBE-2050DDC1B01E";
shapes = (
{
closed = 1;
nodes = (
(188,0,l),
(514,680,l),
(30,680,l),
(30,602,l),
(445,602,l),
(401,643,l),
(90,0,l)
);
}
);
width = 530;
},
{
associatedMasterId = "8DAFC702-8226-41F4-8BBE-2050DDC1B01E";
layerId = "627D7BBB-F289-4EAC-BA40-13401956A541";
name = "Feb 25, 25 at 01:15";
shapes = (
{
closed = 1;
nodes = (
(221,0,l),
(465,636,l),
(465,700,l),
(40,700,l),
(40,626,l),
(435,626,l),
(390,644,l),
(135,0,l)
);
}
);
width = 515;
},
{
associatedMasterId = "8DAFC702-8226-41F4-8BBE-2050DDC1B01E";
layerId = "0943A081-BE00-4C62-9FA8-FB16E6073DA3";
name = "Feb 26, 25 at 14:38";
shapes = (
{
closed = 1;
nodes = (
(221,0,l),
(495,600,l),
(495,680,l),
(30,680,l),
(30,608,l),
(465,608,l),
(429,641,l),
(132,0,l)
);
}
);
width = 515;
},
{
associatedMasterId = m01;
color = 0;
layerId = "866B492A-F237-4FAF-9852-B44E096B1531";
name = "Feb 26, 25 at 14:38";
shapes = (
{
closed = 1;
nodes = (
(270,0,l),
(505,590,l),
(505,700,l),
(30,700,l),
(30,548,l),
(405,548,l),
(347,614,l),
(85,0,l)
);
}
);
userData = {
com.hugojourdan.ColorFlow = {
"0" = 0;
"1" = 0;
"10" = 0;
"11" = 0;
"2" = 0;
"3" = 0;
"4" = 0;
"5" = 0;
"6" = 0;
"7" = 0;
"8" = 0;
"9" = 0;
};
};
width = 535;
},
{
associatedMasterId = "8DAFC702-8226-41F4-8BBE-2050DDC1B01E";
layerId = "BAF0B3C5-5752-4279-843F-E7C41FFA00B0";
name = "Feb 27, 25 at 14:07";
shapes = (
{
closed = 1;
nodes = (
(221,0,l),
(495,660,l),
(495,680,l),
(30,680,l),
(30,608,l),
(465,608,l),
(404,643,l),
(132,0,l)
);
}
);
width = 515;
},
{
associatedMasterId = m01;
color = 0;
layerId = "DB1BAB30-DA83-466B-859B-A1C044A8BBC7";
name = "Mar 2, 25 at 13:51";
shapes = (
{
closed = 1;
nodes = (
(231,0,l),
(515,670,l),
(515,680,l),
(30,680,l),
(30,534,l),
(415,534,l),
(335,654,l),
(55,0,l)
);
}
);
userData = {
com.hugojourdan.ColorFlow = {
"0" = 0;
"1" = 0;
"10" = 0;
"11" = 0;
"2" = 0;
"3" = 0;
"4" = 0;
"5" = 0;
"6" = 0;
"7" = 0;
"8" = 0;
"9" = 0;
};
};
width = 515;
}
);
unicode = 55;
userData = {
KernOnName = seven;
};
}
{
glyphname = eight;
kernLeft = eight;
kernRight = eight;
layers = (
{
layerId = m01;
shapes = (
{
closed = 1;
nodes = (
(194,253,o),
(239,290,o),
(301,290,cs),
(363,290,o),
(408,253,o),
(408,199,cs),
(408,146,o),
(363,109,o),
(301,109,cs),
(239,109,o),
(194,146,o),
(194,199,cs)
);
},
{
closed = 1;
nodes = (
(212,538,o),
(249,572,o),
(301,572,cs),
(353,572,o),
(390,538,o),
(390,489,cs),
(390,440,o),
(353,406,o),
(301,406,cs),
(249,406,o),
(212,440,o),
(212,489,cs)
);
},
{
closed = 1;
nodes = (
(32,71,o),
(133,-12,o),
(301,-12,cs),
(469,-12,o),
(570,75,o),
(570,195,cs),
(570,276,o),
(520,336,o),
(430,358,c),
(430,360,l),
(508,380,o),
(548,434,o),
(548,502,cs),
(548,612,o),
(446,692,o),
(301,692,cs),
(156,692,o),
(54,610,o),
(54,497,cs),
(54,428,o),
(94,375,o),
(172,355,c),
(172,353,l),
(82,331,o),
(32,269,o),
(32,188,cs)
);
}
);
userData = {
com.hugojourdan.ColorFlow = {
"0" = 0;
"1" = 0;
"10" = 0;
"11" = 0;
"2" = 0;
"3" = 0;
"4" = 0;
"5" = 0;
"6" = 0;
"7" = 0;
"8" = 0;
"9" = 0;
};
};
width = 602;
},
{
associatedMasterId = m01;
layerId = "09F6A248-EE42-44C8-A566-FA461AF370B4";
name = "Oct 19, 22, 14:55";
shapes = (
{
closed = 1;
nodes = (
(199,283,o),
(233,318,o),
(294,318,cs),
(355,318,o),
(389,283,o),
(389,229,cs),
(389,174,o),
(355,142,o),
(294,142,cs),
(233,142,o),
(199,174,o),
(199,229,cs)
);
},
{
closed = 1;
nodes = (
(204,536,o),
(236,563,o),
(294,563,cs),
(352,563,o),
(384,536,o),
(384,483,cs),
(384,430,o),
(352,403,o),
(294,403,cs),
(236,403,o),
(204,430,o),
(204,483,cs)
);
},
{
closed = 1;
nodes = (
(314,353,l),
(443,353,o),
(548,396,o),
(548,515,cs),
(548,633,o),
(443,712,o),
(294,712,cs),
(145,712,o),
(40,633,o),
(40,510,cs),
(40,383,o),
(145,343,o),
(274,343,c),
(274,367,l),
(142,367,o),
(35,304,o),
(35,185,cs),
(35,67,o),
(142,-12,o),
(294,-12,cs),
(446,-12,o),
(553,67,o),
(553,190,cs),
(553,317,o),
(446,377,o),
(314,377,c)
);
}
);
userData = {
com.hugojourdan.ColorFlow = {
"0" = 0;
"1" = 0;
"10" = 0;
"11" = 0;
"2" = 0;
"3" = 0;
"4" = 0;
"5" = 0;
"6" = 0;
"7" = 0;
"8" = 0;
"9" = 0;
};
};
width = 588;
},
{
layerId = "8DAFC702-8226-41F4-8BBE-2050DDC1B01E";
shapes = (
{
closed = 1;
nodes = (
(152,265,o),
(216,316,o),
(306,316,cs),
(396,316,o),
(460,265,o),
(460,190,cs),
(460,114,o),
(396,62,o),
(306,62,cs),
(216,62,o),
(152,114,o),
(152,190,cs)
);
},
{
closed = 1;
nodes = (
(171,572,o),
(227,618,o),
(306,618,cs),
(385,618,o),
(441,572,o),
(441,503,cs),
(441,432,o),
(385,386,o),
(306,386,cs),
(227,386,o),
(171,432,o),
(171,503,cs)
);
},
{
closed = 1;
nodes = (
(60,65,o),
(163,-12,o),
(306,-12,cs),
(449,-12,o),
(552,65,o),
(552,185,cs),
(552,274,o),
(497,335,o),
(413,355,c),
(413,357,l),
(484,376,o),
(529,431,o),
(529,507,cs),
(529,616,o),
(436,692,o),
(306,692,cs),
(176,692,o),
(83,615,o),
(83,504,cs),
(83,426,o),
(128,371,o),
(200,352,c),
(200,350,l),
(115,329,o),
(60,266,o),
(60,180,cs)
);
}
);
width = 612;
},
{
associatedMasterId = "8DAFC702-8226-41F4-8BBE-2050DDC1B01E";
layerId = "7AFF3DD1-6847-4CC5-906D-9FAB553FF605";
name = "Feb 27, 25 at 14:47";
shapes = (
{
closed = 1;
nodes = (
(145,277,o),
(207,328,o),
(289,328,cs),
(371,328,o),
(433,277,o),
(433,196,cs),
(433,116,o),
(371,65,o),
(289,65,cs),
(207,65,o),
(145,116,o),
(145,196,cs)
);
},
{
closed = 1;
nodes = (
(154,592,o),
(212,636,o),
(289,636,cs),
(366,636,o),
(424,592,o),
(424,516,cs),
(424,440,o),
(366,393,o),
(289,393,cs),
(212,393,o),
(154,440,o),
(154,516,cs)
);
},
{
closed = 1;
nodes = (
(309,347,l),
(413,347,o),
(504,411,o),
(504,520,cs),
(504,631,o),
(412,708,o),
(289,708,cs),
(166,708,o),
(74,630,o),
(74,517,cs),
(74,406,o),
(165,343,o),
(269,343,c),
(269,373,l),
(160,373,o),
(65,298,o),
(65,187,cs),
(65,74,o),
(161,-8,o),
(289,-8,cs),
(417,-8,o),
(513,74,o),
(513,192,cs),
(513,307,o),
(418,377,o),
(309,377,c)
);
}
);
width = 578;
},
{
associatedMasterId = "8DAFC702-8226-41F4-8BBE-2050DDC1B01E";
color = 5;
layerId = "53E02067-F36F-43D8-B094-83EF85CEE23F";
name = "Feb 27, 25 at 16:27";
shapes = (
{
closed = 1;
nodes = (
(133,272,o),
(198,326,o),
(289,326,cs),
(380,326,o),
(445,272,o),
(445,196,cs),
(445,117,o),
(380,63,o),
(289,63,cs),
(198,63,o),
(133,117,o),
(133,196,cs)
);
},
{
closed = 1;
nodes = (
(154,589,o),
(210,637,o),
(289,637,cs),
(368,637,o),
(424,589,o),
(424,516,cs),
(424,442,o),
(368,395,o),
(289,395,cs),
(210,395,o),
(154,442,o),
(154,516,cs)
);
},
{
closed = 1;
nodes = (
(319,347,l),
(418,347,o),
(509,409,o),
(509,515,cs),
(509,629,o),
(417,708,o),
(289,708,cs),
(161,708,o),
(69,628,o),
(69,512,cs),
(69,404,o),
(160,343,o),
(259,343,c),
(259,373,l),
(148,373,o),
(46,300,o),
(46,192,cs),
(46,76,o),
(148,-8,o),
(289,-8,cs),
(430,-8,o),
(532,76,o),
(532,197,cs),
(532,309,o),
(430,377,o),
(319,377,c)
);
}
);
width = 578;
},
{
associatedMasterId = "8DAFC702-8226-41F4-8BBE-2050DDC1B01E";
color = 5;
layerId = "40B850E7-1475-4F48-A551-D776933BCA1A";
name = "Feb 27, 25 at 16:34";
shapes = (
{
closed = 1;
nodes = (
(133,265,o),
(198,316,o),
(289,316,cs),
(380,316,o),
(445,265,o),
(445,189,cs),
(445,112,o),
(380,59,o),
(289,59,cs),
(198,59,o),
(133,112,o),
(133,189,cs)
);
},
{
closed = 1;
nodes = (
(154,574,o),
(210,621,o),
(289,621,cs),
(368,621,o),
(424,574,o),
(424,503,cs),
(424,431,o),
(368,385,o),
(289,385,cs),
(210,385,o),
(154,431,o),
(154,503,cs)
);
},
{
closed = 1;
nodes = (
(319,337,l),
(418,337,o),
(509,398,o),
(509,502,cs),
(509,614,o),
(417,692,o),
(289,692,cs),
(161,692,o),
(69,613,o),
(69,499,cs),
(69,393,o),
(160,333,o),
(259,333,c),
(259,363,l),
(148,363,o),
(46,293,o),
(46,185,cs),
(46,71,o),
(148,-12,o),
(289,-12,cs),
(430,-12,o),
(532,71,o),
(532,190,cs),
(532,302,o),
(430,367,o),
(319,367,c)
);
}
);
width = 578;
},
{
associatedMasterId = m01;
color = 0;
layerId = "34A4DD98-C78E-481D-A9FD-329BD405E1D7";
name = "Mar 2, 25 at 13:59";
shapes = (
{
closed = 1;
nodes = (
(204,263,o),
(239,298,o),
(289,298,cs),
(339,298,o),
(374,263,o),
(374,214,cs),
(374,166,o),
(339,132,o),
(289,132,cs),
(239,132,o),
(204,166,o),
(204,214,cs)
);
},
{
closed = 1;
nodes = (
(209,542,o),
(242,573,o),
(289,573,cs),
(336,573,o),
(369,542,o),
(369,498,cs),
(369,454,o),
(336,423,o),
(289,423,cs),
(242,423,o),
(209,454,o),
(209,498,cs)
);
},
{
closed = 1;
nodes = (
(309,343,l),
(432,343,o),
(533,396,o),
(533,515,cs),
(533,633,o),
(432,712,o),
(289,712,cs),
(146,712,o),
(45,633,o),
(45,510,cs),
(45,383,o),
(146,333,o),
(269,333,c),
(269,377,l),
(143,377,o),
(40,304,o),
(40,185,cs),
(40,67,o),
(143,-12,o),
(289,-12,cs),
(435,-12,o),
(538,67,o),
(538,190,cs),
(538,317,o),
(435,387,o),
(309,387,c)
);
}
);
userData = {
com.hugojourdan.ColorFlow = {
"0" = 0;
"1" = 0;
"10" = 0;
"11" = 0;
"2" = 0;
"3" = 0;
"4" = 0;
"5" = 0;
"6" = 0;
"7" = 0;
"8" = 0;
"9" = 0;
};
};
width = 578;
},
{
associatedMasterId = "8DAFC702-8226-41F4-8BBE-2050DDC1B01E";
color = 5;
layerId = "F5C252E7-839A-43D4-90C3-B69611C43E50";
name = "Jun 16, 25 at 15:17";
shapes = (
{
closed = 1;
nodes = (
(133,265,o),
(198,316,o),
(289,316,cs),
(380,316,o),
(445,265,o),
(445,189,cs),
(445,112,o),
(380,59,o),
(289,59,cs),
(198,59,o),
(133,112,o),
(133,189,cs)
);
},
{
closed = 1;
nodes = (
(154,574,o),
(210,621,o),
(289,621,cs),
(368,621,o),
(424,574,o),
(424,503,cs),
(424,431,o),
(368,385,o),
(289,385,cs),
(210,385,o),
(154,431,o),
(154,503,cs)
);
},
{
closed = 1;
nodes = (
(319,340,l),
(418,340,o),
(509,399,o),
(509,502,cs),
(509,614,o),
(417,692,o),
(289,692,cs),
(161,692,o),
(69,613,o),
(69,499,cs),
(69,394,o),
(160,336,o),
(259,336,c),
(259,366,l),
(148,366,o),
(46,294,o),
(46,185,cs),
(46,71,o),
(148,-12,o),
(289,-12,cs),
(430,-12,o),
(532,71,o),
(532,190,cs),
(532,303,o),
(430,370,o),
(319,370,c)
);
}
);
width = 578;
},
{
associatedMasterId = m01;
color = 6;
layerId = "CF52071A-12F6-45EB-9B3C-B7C5DD137033";
name = "Jun 16, 25 at 15:17";
shapes = (
{
closed = 1;
nodes = (
(181,251,o),
(226,288,o),
(289,288,cs),
(352,288,o),
(397,251,o),
(397,198,cs),
(397,146,o),
(352,109,o),
(289,109,cs),
(226,109,o),
(181,146,o),
(181,198,cs)
);
},
{
closed = 1;
nodes = (
(196,538,o),
(234,572,o),
(289,572,cs),
(344,572,o),
(382,538,o),
(382,490,cs),
(382,442,o),
(344,408,o),
(289,408,cs),
(234,408,o),
(196,442,o),
(196,490,cs)
);
},
{
closed = 1;
nodes = (
(310,338,l),
(441,338,o),
(533,402,o),
(533,504,cs),
(533,614,o),
(432,692,o),
(289,692,cs),
(146,692,o),
(45,613,o),
(45,500,cs),
(45,397,o),
(137,333,o),
(268,333,c),
(268,376,l),
(128,376,o),
(30,297,o),
(30,185,cs),
(30,69,o),
(137,-12,o),
(289,-12,cs),
(441,-12,o),
(548,71,o),
(548,189,cs),
(548,302,o),
(450,381,o),
(310,381,c)
);
}
);
userData = {
com.hugojourdan.ColorFlow = {
"0" = 0;
"1" = 0;
"10" = 0;
"11" = 0;
"2" = 0;
"3" = 0;
"4" = 0;
"5" = 0;
"6" = 0;
"7" = 0;
"8" = 0;
"9" = 0;
};
};
width = 578;
}
);
metricRight = "=|";
unicode = 56;
userData = {
KernOnName = eight;
};
}
{
glyphname = nine;
kernLeft = nine;
kernRight = nine;
layers = (
{
background = {
shapes = (
{
angle = 180;
pos = (588,680);
ref = six;
}
);
};
layerId = m01;
shapes = (
{
closed = 1;
nodes = (
(330,0,l),
(487,234,ls),
(529,296,o),
(562,368,o),
(562,450,cs),
(562,596,o),
(450,692,o),
(298,692,cs),
(140,692,o),
(26,589,o),
(26,452,cs),
(26,328,o),
(120,244,o),
(244,244,cs),
(276,244,o),
(306,251,o),
(332,266,c),
(334,264,l),
(142,0,l)
);
},
{
closed = 1;
nodes = (
(233,348,o),
(187,393,o),
(187,455,cs),
(187,516,o),
(231,561,o),
(293,561,cs),
(355,561,o),
(401,515,o),
(401,452,cs),
(401,391,o),
(357,348,o),
(295,348,cs)
);
}
);
userData = {
com.hugojourdan.ColorFlow = {
"0" = 0;
"1" = 0;
"10" = 0;
"11" = 0;
"2" = 0;
"3" = 0;
"4" = 0;
"5" = 0;
"6" = 0;
"7" = 0;
"8" = 0;
"9" = 0;
};
};
width = 590;
},
{
background = {
shapes = (
{
angle = 180;
pos = (574,680);
ref = six;
}
);
};
layerId = "8DAFC702-8226-41F4-8BBE-2050DDC1B01E";
shapes = (
{
closed = 1;
nodes = (
(268,0,l),
(461,281,ls),
(506,347,o),
(527,406,o),
(527,468,cs),
(527,602,o),
(425,692,o),
(287,692,cs),
(142,692,o),
(42,594,o),
(42,464,cs),
(42,324,o),
(155,250,o),
(259,250,cs),
(298,250,o),
(334,261,o),
(366,283,c),
(368,281,l),
(161,0,l)
);
},
{
closed = 1;
nodes = (
(195,318,o),
(130,384,o),
(130,471,cs),
(130,557,o),
(193,617,o),
(282,617,cs),
(373,617,o),
(438,553,o),
(438,465,cs),
(438,379,o),
(376,318,o),
(287,318,cs)
);
}
);
width = 569;
},
{
associatedMasterId = m01;
background = {
shapes = (
{
angle = 180;
pos = (588,680);
ref = six;
}
);
};
color = 6;
layerId = "A1053667-60A4-43CA-A494-C146A2B5F5D7";
name = "Jun 16, 25 at 15:23";
shapes = (
{
closed = 1;
nodes = (
(326,0,l),
(484,237,ls),
(525,299,o),
(558,372,o),
(558,454,cs),
(558,596,o),
(448,692,o),
(294,692,cs),
(139,692,o),
(30,594,o),
(30,456,cs),
(30,332,o),
(122,244,o),
(246,244,cs),
(321,244,o),
(375,277,o),
(412,320,c),
(353,300,l),
(142,0,l)
);
},
{
closed = 1;
nodes = (
(228,346,o),
(186,388,o),
(186,454,cs),
(186,520,o),
(228,562,o),
(294,562,cs),
(360,562,o),
(402,520,o),
(402,454,cs),
(402,388,o),
(360,346,o),
(294,346,cs)
);
}
);
userData = {
com.hugojourdan.ColorFlow = {
"0" = 0;
"1" = 0;
"10" = 0;
"11" = 0;
"2" = 0;
"3" = 0;
"4" = 0;
"5" = 0;
"6" = 0;
"7" = 0;
"8" = 0;
"9" = 0;
};
};
width = 588;
},
{
associatedMasterId = "8DAFC702-8226-41F4-8BBE-2050DDC1B01E";
background = {
shapes = (
{
angle = 180;
pos = (561,680);
ref = six;
}
);
};
color = 5;
layerId = "E5A332F1-0BCD-4BF3-B587-50457739E32E";
name = "Jun 16, 25 at 15:23";
shapes = (
{
closed = 1;
nodes = (
(251,0,l),
(444,281,ls),
(489,347,o),
(510,404,o),
(510,468,cs),
(510,602,o),
(410,692,o),
(272,692,cs),
(131,692,o),
(32,594,o),
(32,465,cs),
(32,327,o),
(143,253,o),
(249,253,cs),
(326,253,o),
(378,291,o),
(408,330,c),
(394,336,l),
(148,0,l)
);
},
{
closed = 1;
nodes = (
(181,317,o),
(118,379,o),
(118,467,cs),
(118,556,o),
(181,618,o),
(272,618,cs),
(362,618,o),
(425,556,o),
(425,467,cs),
(425,379,o),
(362,317,o),
(272,317,cs)
);
}
);
width = 561;
}
);
unicode = 57;
}
{
glyphname = equal;
kernLeft = equal;
kernRight = equal;
layers = (
{
layerId = "8DAFC702-8226-41F4-8BBE-2050DDC1B01E";
shapes = (
{
closed = 1;
nodes = (
(515,383,l),
(515,459,l),
(85,459,l),
(85,383,l)
);
},
{
closed = 1;
nodes = (
(515,181,l),
(515,257,l),
(85,257,l),
(85,181,l)
);
}
);
userData = {
com.hugojourdan.ColorFlow = {
"0" = 0;
"1" = 0;
"10" = 0;
"11" = 0;
"2" = 0;
"3" = 0;
"4" = 0;
"5" = 0;
"6" = 0;
"7" = 0;
"8" = 0;
"9" = 0;
};
};
width = 600;
},
{
layerId = m01;
shapes = (
{
closed = 1;
nodes = (
(540,367,l),
(540,508,l),
(60,508,l),
(60,367,l)
);
},
{
closed = 1;
nodes = (
(540,132,l),
(540,273,l),
(60,273,l),
(60,132,l)
);
}
);
userData = {
com.hugojourdan.ColorFlow = {
"0" = 0;
"1" = 0;
"10" = 0;
"11" = 0;
"2" = 0;
"3" = 0;
"4" = 0;
"5" = 0;
"6" = 0;
"7" = 0;
"8" = 0;
"9" = 0;
};
};
width = 600;
},
{
associatedMasterId = "8DAFC702-8226-41F4-8BBE-2050DDC1B01E";
color = 0;
layerId = "E91E9168-855A-44AB-A9EA-7A45C9DD35AB";
name = "Apr 27, 25 at 22:47";
shapes = (
{
closed = 1;
nodes = (
(531,383,l),
(531,457,l),
(51,457,l),
(51,383,l)
);
},
{
closed = 1;
nodes = (
(531,183,l),
(531,257,l),
(51,257,l),
(51,183,l)
);
}
);
userData = {
com.hugojourdan.ColorFlow = {
"0" = 0;
"1" = 0;
"10" = 0;
"11" = 0;
"2" = 0;
"3" = 0;
"4" = 0;
"5" = 0;
"6" = 0;
"7" = 0;
"8" = 0;
"9" = 0;
};
};
width = 582;
}
);
unicode = 61;
userData = {
KernOnSpecialSpacing = {
L = math;
R = math;
};
};
}
{
glyphname = greater;
kernLeft = greater;
kernRight = greater;
layers = (
{
layerId = "8DAFC702-8226-41F4-8BBE-2050DDC1B01E";
shapes = (
{
closed = 1;
nodes = (
(505,293,l),
(505,347,l),
(80,143,l),
(80,53,l),
(520,268,l),
(520,372,l),
(80,587,l),
(80,497,l)
);
}
);
userData = {
com.hugojourdan.ColorFlow = {
"0" = 0;
"1" = 0;
"10" = 0;
"11" = 0;
"2" = 0;
"3" = 0;
"4" = 0;
"5" = 0;
"6" = 0;
"7" = 0;
"8" = 0;
"9" = 0;
};
};
width = 600;
},
{
layerId = m01;
shapes = (
{
closed = 1;
nodes = (
(525,273,l),
(525,367,l),
(60,203,l),
(60,43,l),
(540,238,l),
(540,402,l),
(60,597,l),
(60,437,l)
);
}
);
userData = {
com.hugojourdan.ColorFlow = {
"0" = 0;
"1" = 0;
"10" = 0;
"11" = 0;
"2" = 0;
"3" = 0;
"4" = 0;
"5" = 0;
"6" = 0;
"7" = 0;
"8" = 0;
"9" = 0;
};
};
width = 600;
},
{
associatedMasterId = "8DAFC702-8226-41F4-8BBE-2050DDC1B01E";
color = 0;
layerId = "94122B79-5A22-4945-A614-AAA7A931781E";
name = "Apr 27, 25 at 22:48";
shapes = (
{
closed = 1;
nodes = (
(531,298,l),
(531,377,l),
(51,587,l),
(51,503,l)
);
},
{
closed = 1;
nodes = (
(531,263,l),
(531,342,l),
(51,137,l),
(51,53,l)
);
}
);
userData = {
com.hugojourdan.ColorFlow = {
"0" = 0;
"1" = 0;
"10" = 0;
"11" = 0;
"2" = 0;
"3" = 0;
"4" = 0;
"5" = 0;
"6" = 0;
"7" = 0;
"8" = 0;
"9" = 0;
};
};
width = 582;
},
{
associatedMasterId = m01;
color = 0;
layerId = "6E1BAEDD-69ED-4935-94A3-61419DAC8AD4";
name = "Jun 2, 25 at 22:56";
shapes = (
{
closed = 1;
nodes = (
(541,288,l),
(541,432,l),
(41,597,l),
(41,441,l)
);
},
{
closed = 1;
nodes = (
(541,208,l),
(541,352,l),
(41,199,l),
(41,43,l)
);
}
);
userData = {
com.hugojourdan.ColorFlow = {
"0" = 0;
"1" = 0;
"10" = 0;
"11" = 0;
"2" = 0;
"3" = 0;
"4" = 0;
"5" = 0;
"6" = 0;
"7" = 0;
"8" = 0;
"9" = 0;
};
};
width = 582;
}
);
unicode = 62;
userData = {
KernOnSpecialSpacing = {
L = math;
R = math;
};
};
}
{
glyphname = question;
kernLeft = question;
kernRight = question;
layers = (
{
background = {
shapes = (
{
pos = (-30,0);
ref = two;
}
);
};
layerId = "8DAFC702-8226-41F4-8BBE-2050DDC1B01E";
shapes = (
{
closed = 1;
nodes = (
(215,190,l),
(215,294,l),
(182,245,l),
(356,311,o),
(429,387,o),
(429,492,cs),
(429,610,o),
(335,688,o),
(200,688,cs),
(134,688,o),
(77,669,o),
(31,637,c),
(31,545,l),
(78,583,o),
(131,610,o),
(194,610,cs),
(273,610,o),
(337,564,o),
(337,487,cs),
(337,402,o),
(259,350,o),
(139,303,c),
(139,190,l)
);
},
{
closed = 1;
nodes = (
(229,0,l),
(229,114,l),
(125,114,l),
(125,0,l)
);
}
);
width = 458;
},
{
associatedMasterId = "8DAFC702-8226-41F4-8BBE-2050DDC1B01E";
layerId = "45EA51FC-3D18-4000-8031-54A69FF0F8BA";
name = "Nov 18, 22, 11:42";
shapes = (
{
closed = 1;
nodes = (
(292,0,l),
(292,100,l),
(192,100,l),
(192,0,l)
);
},
{
closed = 1;
nodes = (
(192,164,l),
(314,268,ls),
(411,350,o),
(462,406,o),
(462,498,cs),
(462,619,o),
(383,708,o),
(254,708,cs),
(159,708,o),
(91,674,o),
(24,635,c),
(24,538,l),
(92,593,o),
(158,634,o),
(245,634,cs),
(326,634,o),
(380,578,o),
(380,495,cs),
(380,434,o),
(351,398,o),
(271,331,cs),
(192,264,l)
);
}
);
width = 600;
},
{
associatedMasterId = m01;
layerId = "B738A321-B803-4553-85AB-D182D5DC2973";
name = "Nov 18, 22, 11:48";
shapes = (
{
closed = 1;
nodes = (
(315,258,ls),
(439,333,o),
(495,397,o),
(495,501,cs),
(495,634,o),
(403,708,o),
(262,708,cs),
(166,708,o),
(95,675,o),
(25,637,c),
(25,458,l),
(106,513,o),
(190,554,o),
(253,554,cs),
(304,554,o),
(335,526,o),
(335,485,cs),
(335,444,o),
(304,420,o),
(262,397,cs),
(175,350,l),
(175,174,l)
);
},
{
closed = 1;
nodes = (
(345,0,l),
(345,150,l),
(175,150,l),
(175,0,l)
);
}
);
width = 520;
},
{
associatedMasterId = "8DAFC702-8226-41F4-8BBE-2050DDC1B01E";
layerId = "6200190C-16C5-4348-9E75-23695D8A2532";
name = "Feb 24, 25 at 01:29";
shapes = (
{
closed = 1;
nodes = (
(285,278,ls),
(370,365,o),
(423,421,o),
(423,516,cs),
(423,627,o),
(352,708,o),
(231,708,cs),
(152,708,o),
(93,675,o),
(35,637,c),
(35,538,l),
(94,593,o),
(153,634,o),
(224,634,cs),
(298,634,o),
(343,589,o),
(343,514,cs),
(343,450,o),
(309,410,o),
(240,341,cs),
(173,274,l),
(173,164,l)
);
},
{
closed = 1;
nodes = (
(273,0,l),
(273,100,l),
(173,100,l),
(173,0,l)
);
}
);
width = 458;
},
{
associatedMasterId = "8DAFC702-8226-41F4-8BBE-2050DDC1B01E";
layerId = "05907759-B7D4-4258-82DA-723A0E150D22";
name = "Feb 24, 25 at 01:29";
shapes = (
{
closed = 1;
nodes = (
(310,0,l),
(310,100,l),
(210,100,l),
(210,0,l)
);
},
{
closed = 1;
nodes = (
(210,190,l),
(214,190,l),
(332,267,ls),
(438,336,o),
(482,405,o),
(482,493,cs),
(482,610,o),
(393,692,o),
(266,692,cs),
(135,692,o),
(44,610,o),
(36,490,c),
(118,490,l),
(124,573,o),
(182,622,o),
(262,622,cs),
(335,622,o),
(400,574,o),
(400,491,cs),
(400,431,o),
(376,383,o),
(289,323,cs),
(210,269,l)
);
}
);
width = 458;
},
{
associatedMasterId = "8DAFC702-8226-41F4-8BBE-2050DDC1B01E";
layerId = "90DD4BC4-D9EC-4005-8F9D-00A41FC4F153";
name = "Feb 24, 25 at 20:20";
shapes = (
{
closed = 1;
nodes = (
(310,0,l),
(310,100,l),
(210,100,l),
(210,0,l)
);
},
{
closed = 1;
nodes = (
(210,188,l),
(214,188,l),
(332,266,ls),
(434,334,o),
(482,406,o),
(482,493,cs),
(482,608,o),
(391,692,o),
(266,692,cs),
(137,692,o),
(44,608,o),
(36,490,c),
(118,490,l),
(124,570,o),
(184,620,o),
(262,620,cs),
(333,620,o),
(400,571,o),
(400,491,cs),
(400,432,o),
(374,381,o),
(289,324,cs),
(210,271,l)
);
}
);
width = 458;
},
{
associatedMasterId = m01;
color = 0;
layerId = "8B41538D-4FB4-409F-96F0-A3D0C87112F2";
name = "Feb 25, 25 at 10:32";
shapes = (
{
closed = 1;
nodes = (
(315,258,ls),
(439,333,o),
(495,397,o),
(495,501,cs),
(495,634,o),
(403,708,o),
(262,708,cs),
(170,708,o),
(102,680,o),
(35,652,c),
(35,473,l),
(112,517,o),
(193,554,o),
(253,554,cs),
(304,554,o),
(335,526,o),
(335,485,cs),
(335,444,o),
(304,420,o),
(262,397,cs),
(175,350,l),
(175,174,l)
);
},
{
closed = 1;
nodes = (
(345,0,l),
(345,150,l),
(175,150,l),
(175,0,l)
);
}
);
width = 520;
},
{
associatedMasterId = m01;
color = 4;
layerId = "8A3E1916-CB3A-4024-9A2F-39D13DF01058";
name = "Feb 25, 25 at 10:36";
shapes = (
{
closed = 1;
nodes = (
(310,0,l),
(310,150,l),
(150,150,l),
(150,0,l)
);
},
{
closed = 1;
nodes = (
(26,467,l),
(69,512,o),
(118,540,o),
(187,540,cs),
(252,540,o),
(296,503,o),
(296,443,cs),
(296,410,o),
(284,383,o),
(230,354,cs),
(150,311,l),
(150,158,l),
(154,158,l),
(304,241,ls),
(399,294,o),
(458,346,o),
(458,455,cs),
(458,592,o),
(352,692,o),
(201,692,cs),
(132,692,o),
(71,674,o),
(24,643,c),
(24,467,l)
);
}
);
width = 520;
},
{
associatedMasterId = m01;
color = 4;
layerId = "437FAB07-A185-46A0-ACB3-F38FD0ED2634";
name = "Feb 26, 25 at 12:46";
shapes = (
{
closed = 1;
nodes = (
(280,0,l),
(280,150,l),
(120,150,l),
(120,0,l)
);
},
{
closed = 1;
nodes = (
(36,477,l),
(69,516,o),
(106,540,o),
(157,540,cs),
(214,540,o),
(254,508,o),
(254,463,cs),
(254,432,o),
(237,406,o),
(188,376,cs),
(120,335,l),
(120,169,l),
(124,169,l),
(264,255,ls),
(355,311,o),
(418,363,o),
(418,470,cs),
(418,598,o),
(316,692,o),
(171,692,cs),
(118,692,o),
(71,678,o),
(34,653,c),
(34,477,l)
);
}
);
width = 440;
},
{
associatedMasterId = m01;
color = 4;
layerId = "31039C67-0EF0-4AA0-B412-1816E8978A23";
name = "Feb 26, 25 at 12:49";
shapes = (
{
closed = 1;
nodes = (
(280,0,l),
(280,150,l),
(120,150,l),
(120,0,l)
);
},
{
closed = 1;
nodes = (
(36,477,l),
(69,516,o),
(106,540,o),
(157,540,cs),
(214,540,o),
(254,504,o),
(254,453,cs),
(254,418,o),
(253,393,o),
(218,346,cs),
(110,200,l),
(257,200,l),
(261,200,l),
(334,286,ls),
(387,349,o),
(418,373,o),
(418,460,cs),
(418,594,o),
(316,692,o),
(171,692,cs),
(118,692,o),
(71,678,o),
(34,653,c),
(34,477,l)
);
}
);
width = 440;
},
{
associatedMasterId = m01;
color = 4;
layerId = "A5629A16-811C-47AA-B7E7-4214D674A534";
name = "Feb 26, 25 at 14:45";
shapes = (
{
closed = 1;
nodes = (
(300,0,l),
(300,152,l),
(120,152,l),
(170,0,l)
);
},
{
closed = 1;
nodes = (
(36,477,l),
(69,516,o),
(106,540,o),
(157,540,cs),
(214,540,o),
(254,504,o),
(254,453,cs),
(254,418,o),
(239,384,o),
(188,356,cs),
(72,293,l),
(117,160,l),
(121,160,l),
(264,235,ls),
(359,285,o),
(418,349,o),
(418,460,cs),
(418,594,o),
(316,692,o),
(171,692,cs),
(118,692,o),
(71,678,o),
(34,653,c),
(34,477,l)
);
}
);
width = 440;
},
{
associatedMasterId = m01;
color = 4;
layerId = "0F7B7D17-3426-47E4-907A-8B19EE013BE1";
name = "Feb 26, 25 at 15:07";
shapes = (
{
closed = 1;
nodes = (
(280,0,l),
(280,150,l),
(120,150,l),
(120,0,l)
);
},
{
closed = 1;
nodes = (
(36,477,l),
(69,516,o),
(106,540,o),
(157,540,cs),
(214,540,o),
(254,504,o),
(254,453,cs),
(254,418,o),
(239,386,o),
(188,356,cs),
(120,315,l),
(197,200,l),
(201,200,l),
(264,235,ls),
(359,288,o),
(418,349,o),
(418,460,cs),
(418,594,o),
(316,692,o),
(171,692,cs),
(118,692,o),
(71,678,o),
(34,653,c),
(34,477,l)
);
}
);
width = 440;
},
{
associatedMasterId = m01;
color = 4;
layerId = "3138F66E-B435-4B13-BBB4-691BACA7039C";
name = "Feb 26, 25 at 15:08";
shapes = (
{
closed = 1;
nodes = (
(280,0,l),
(280,150,l),
(120,150,l),
(120,0,l)
);
},
{
closed = 1;
nodes = (
(76,487,l),
(101,520,o),
(129,540,o),
(167,540,cs),
(218,540,o),
(259,504,o),
(259,453,cs),
(259,415,o),
(239,386,o),
(188,356,cs),
(120,315,l),
(197,197,l),
(201,197,l),
(264,235,ls),
(357,291,o),
(423,349,o),
(423,458,cs),
(423,599,o),
(316,692,o),
(171,692,cs),
(103,692,o),
(42,664,o),
(-6,613,c),
(74,487,l)
);
}
);
width = 440;
},
{
background = {
shapes = (
{
pos = (-65,0);
ref = two;
}
);
};
layerId = m01;
name = Black;
shapes = (
{
closed = 1;
nodes = (
(242,180,l),
(242,295,l),
(180,206,l),
(348,285,o),
(432,349,o),
(432,471,cs),
(432,604,o),
(328,690,o),
(181,690,cs),
(123,690,o),
(66,677,o),
(10,643,c),
(10,498,l),
(63,534,o),
(106,550,o),
(152,550,cs),
(220,550,o),
(269,515,o),
(269,458,cs),
(269,391,o),
(202,351,o),
(110,308,c),
(110,180,l)
);
},
{
closed = 1;
nodes = (
(260,0,l),
(260,134,l),
(92,134,l),
(92,0,l)
);
}
);
width = 452;
},
{
associatedMasterId = "8DAFC702-8226-41F4-8BBE-2050DDC1B01E";
layerId = "C64C2E87-B17E-4A32-9A9E-DDAD3FEBF14F";
name = "Feb 26, 25 at 15:08";
shapes = (
{
closed = 1;
nodes = (
(250,0,l),
(250,100,l),
(150,100,l),
(150,0,l)
);
},
{
closed = 1;
nodes = (
(46,547,l),
(84,592,o),
(127,620,o),
(197,620,cs),
(268,620,o),
(335,571,o),
(335,491,cs),
(335,432,o),
(311,379,o),
(229,324,cs),
(150,271,l),
(150,188,l),
(154,188,l),
(272,266,ls),
(372,332,o),
(417,406,o),
(417,493,cs),
(417,608,o),
(326,692,o),
(201,692,cs),
(140,692,o),
(86,674,o),
(44,643,c),
(44,547,l)
);
}
);
width = 458;
},
{
associatedMasterId = "8DAFC702-8226-41F4-8BBE-2050DDC1B01E";
layerId = "1B6D2A8B-5994-410F-BE96-9657AA44BA09";
name = "Jun 19, 25 at 19:23";
shapes = (
{
closed = 1;
nodes = (
(250,0,l),
(250,120,l),
(150,120,l),
(150,0,l)
);
},
{
closed = 1;
nodes = (
(46,547,l),
(84,592,o),
(127,620,o),
(197,620,cs),
(268,620,o),
(335,571,o),
(335,491,cs),
(335,432,o),
(309,379,o),
(227,324,cs),
(148,271,l),
(186,209,l),
(272,266,ls),
(374,334,o),
(417,406,o),
(417,493,cs),
(417,608,o),
(326,692,o),
(201,692,cs),
(140,692,o),
(86,674,o),
(44,643,c),
(44,547,l)
);
}
);
width = 458;
},
{
associatedMasterId = m01;
color = 4;
layerId = "164FC965-AC90-4798-B1C4-52E40F986644";
name = "Jun 19, 25 at 19:40";
shapes = (
{
closed = 1;
nodes = (
(266,0,l),
(266,150,l),
(106,150,l),
(106,0,l)
);
},
{
closed = 1;
nodes = (
(22,477,l),
(55,516,o),
(92,540,o),
(143,540,cs),
(200,540,o),
(245,504,o),
(245,453,cs),
(245,415,o),
(225,386,o),
(174,356,cs),
(106,315,l),
(184,195,l),
(250,235,ls),
(343,291,o),
(409,349,o),
(409,458,cs),
(409,599,o),
(302,692,o),
(157,692,cs),
(104,692,o),
(57,678,o),
(20,653,c),
(20,477,l)
);
}
);
width = 440;
}
);
unicode = 63;
userData = {
KernOnName = question;
KernOnSpecialSpacing = {
L = "spaced-off";
};
};
}
{
glyphname = at;
kernLeft = at;
kernRight = at;
layers = (
{
layerId = "8DAFC702-8226-41F4-8BBE-2050DDC1B01E";
shapes = (
{
closed = 1;
nodes = (
(530,-154,o),
(591,-146,o),
(647,-128,c),
(647,-60,l),
(589,-81,o),
(533,-90,o),
(477,-90,cs),
(266,-90,o),
(124,44,o),
(124,253,cs),
(124,465,o),
(280,632,o),
(492,632,cs),
(674,632,o),
(827,510,o),
(827,329,cs),
(827,202,o),
(750,117,o),
(656,117,cs),
(621,117,l),
(652,81,l),
(707,473,l),
(627,473,l),
(616,379,l),
(614,379,l),
(589,448,o),
(533,483,o),
(463,483,cs),
(328,483,o),
(252,357,o),
(252,242,cs),
(252,125,o),
(327,49,o),
(432,49,cs),
(498,49,o),
(551,79,o),
(582,139,c),
(584,139,l),
(573,53,l),
(652,53,ls),
(790,53,o),
(903,167,o),
(903,329,cs),
(903,547,o),
(718,696,o),
(492,696,cs),
(234,696,o),
(48,499,o),
(48,250,cs),
(48,7,o),
(221,-154,o),
(474,-154,cs)
);
},
{
closed = 1;
nodes = (
(384,117,o),
(341,165,o),
(338,236,cs),
(335,309,o),
(373,415,o),
(474,415,cs),
(547,415,o),
(596,358,o),
(596,283,cs),
(596,216,o),
(558,117,o),
(455,117,cs)
);
}
);
width = 951;
},
{
associatedMasterId = m01;
guides = (
{
angle = 80;
pos = (688,240);
},
{
angle = 80;
pos = (535,240);
},
{
angle = 80;
pos = (375,240);
},
{
angle = 80;
pos = (221,240);
}
);
layerId = "6B24C852-2C6F-4F26-B401-9A34827B2C71";
name = "Nov 18, 22, 14:12";
shapes = (
{
closed = 1;
nodes = (
(389,136,o),
(350,174,o),
(350,244,cs),
(350,317,o),
(393,371,o),
(454,371,cs),
(511,371,o),
(540,325,o),
(540,267,cs),
(540,207,o),
(509,136,o),
(440,136,cs)
);
},
{
closed = 1;
nodes = (
(586,10,ls),
(785,10,o),
(893,146,o),
(893,316,cs),
(893,536,o),
(714,700,o),
(476,700,cs),
(205,700,o),
(10,492,o),
(10,229,cs),
(10,-13,o),
(190,-187,o),
(459,-187,cs),
(558,-187,o),
(659,-164,o),
(748,-112,c),
(748,0,l),
(658,-54,o),
(555,-80,o),
(462,-80,cs),
(258,-80,o),
(123,49,o),
(123,232,cs),
(123,431,o),
(273,593,o),
(476,593,cs),
(640,593,o),
(780,481,o),
(780,309,cs),
(780,193,o),
(728,117,o),
(630,117,cs),
(588,117,l),
(653,50,l),
(731,490,l),
(578,490,l),
(548,320,l),
(595,320,l),
(590,429,o),
(534,500,o),
(420,500,cs),
(265,500,o),
(185,372,o),
(185,233,cs),
(185,83,o),
(278,10,o),
(378,10,cs),
(461,10,o),
(527,61,o),
(554,130,c),
(517,144,l),
(492,10,l)
);
}
);
width = 923;
},
{
layerId = m01;
name = Bold;
shapes = (
{
closed = 1;
nodes = (
(537,-164,o),
(597,-156,o),
(653,-139,c),
(653,-45,l),
(598,-62,o),
(540,-70,o),
(485,-70,cs),
(277,-70,o),
(140,53,o),
(140,253,cs),
(140,458,o),
(283,612,o),
(488,612,cs),
(661,612,o),
(803,501,o),
(803,329,cs),
(803,215,o),
(737,137,o),
(673,137,cs),
(629,137,l),
(671,66,l),
(723,483,l),
(582,483,l),
(575,418,l),
(573,418,l),
(553,462,o),
(507,493,o),
(440,493,cs),
(303,493,o),
(232,364,o),
(232,241,cs),
(232,110,o),
(312,39,o),
(411,39,cs),
(474,39,o),
(521,69,o),
(546,122,c),
(548,122,l),
(539,43,l),
(656,43,ls),
(795,43,o),
(915,161,o),
(915,329,cs),
(915,557,o),
(727,706,o),
(488,706,cs),
(219,706,o),
(28,506,o),
(28,250,cs),
(28,-2,o),
(210,-164,o),
(477,-164,cs)
);
},
{
closed = 1;
nodes = (
(418,162,o),
(383,196,o),
(383,251,cs),
(383,321,o),
(420,370,o),
(478,370,cs),
(529,370,o),
(559,334,o),
(559,279,cs),
(559,209,o),
(518,162,o),
(464,162,cs)
);
}
);
width = 943;
},
{
associatedMasterId = m01;
guides = (
{
angle = 80;
pos = (688,240);
},
{
angle = 80;
pos = (535,240);
},
{
angle = 80;
pos = (375,240);
},
{
angle = 80;
pos = (221,240);
}
);
layerId = "0D612E64-8F4D-431F-8115-D1850942B282";
name = "Nov 18, 22, 14:13";
shapes = (
{
closed = 1;
nodes = (
(390,146,o),
(350,180,o),
(350,245,cs),
(350,311,o),
(392,361,o),
(454,361,cs),
(510,361,o),
(540,319,o),
(540,265,cs),
(540,210,o),
(510,146,o),
(440,146,cs)
);
},
{
closed = 1;
nodes = (
(586,10,ls),
(785,10,o),
(893,146,o),
(893,316,cs),
(893,536,o),
(714,700,o),
(476,700,cs),
(205,700,o),
(10,492,o),
(10,229,cs),
(10,-13,o),
(190,-187,o),
(459,-187,cs),
(558,-187,o),
(659,-164,o),
(748,-112,c),
(748,-20,l),
(658,-74,o),
(555,-100,o),
(462,-100,cs),
(246,-100,o),
(103,37,o),
(103,232,cs),
(103,442,o),
(261,613,o),
(476,613,cs),
(651,613,o),
(800,493,o),
(800,309,cs),
(800,193,o),
(741,102,o),
(630,102,cs),
(588,102,l),
(653,50,l),
(731,490,l),
(578,490,l),
(548,320,l),
(535,320,l),
(590,429,o),
(524,500,o),
(420,500,cs),
(265,500,o),
(185,372,o),
(185,233,cs),
(185,83,o),
(278,10,o),
(378,10,cs),
(461,10,o),
(527,61,o),
(554,130,c),
(517,144,l),
(492,10,l)
);
}
);
width = 923;
},
{
associatedMasterId = m01;
guides = (
{
angle = 80;
pos = (708,240);
},
{
angle = 80;
pos = (555,240);
},
{
angle = 80;
pos = (395,240);
},
{
angle = 80;
pos = (241,240);
}
);
layerId = "BD3D02AC-61B1-4719-8FD9-30E71ACAE1CA";
name = orbiter;
shapes = (
{
closed = 1;
nodes = (
(411,136,o),
(383,163,o),
(383,227,cs),
(383,292,o),
(414,371,o),
(485,371,cs),
(534,371,o),
(560,334,o),
(560,282,cs),
(560,224,o),
(533,136,o),
(455,136,cs)
);
},
{
closed = 1;
nodes = (
(606,10,ls),
(805,10,o),
(913,146,o),
(913,316,cs),
(913,530,o),
(734,690,o),
(499,690,cs),
(240,690,o),
(50,486,o),
(50,229,cs),
(50,-7,o),
(222,-177,o),
(479,-177,cs),
(572,-177,o),
(669,-157,o),
(755,-112,c),
(755,-30,l),
(668,-77,o),
(569,-100,o),
(482,-100,cs),
(272,-100,o),
(133,37,o),
(133,232,cs),
(133,442,o),
(290,613,o),
(499,613,cs),
(679,613,o),
(830,493,o),
(830,309,cs),
(830,193,o),
(767,92,o),
(650,92,cs),
(608,92,l),
(673,50,l),
(751,490,l),
(598,490,l),
(568,320,l),
(595,320,l),
(591,429,o),
(543,500,o),
(442,500,cs),
(287,500,o),
(225,342,o),
(225,208,cs),
(225,60,o),
(306,10,o),
(390,10,cs),
(474,10,o),
(530,61,o),
(554,130,c),
(537,144,l),
(512,10,l)
);
}
);
width = 943;
},
{
associatedMasterId = "8DAFC702-8226-41F4-8BBE-2050DDC1B01E";
guides = (
{
angle = 80;
pos = (667,240);
},
{
angle = 80;
pos = (247,240);
},
{
angle = 80;
pos = (327,240);
},
{
angle = 80;
pos = (594,240);
}
);
layerId = "125CAB2C-2354-476E-9929-A9221AD33A5E";
name = "Nov 18, 22, 14:22";
shapes = (
{
closed = 1;
nodes = (
(364,99,o),
(311,162,o),
(311,249,cs),
(311,340,o),
(368,441,o),
(467,441,cs),
(535,441,o),
(596,395,o),
(596,299,cs),
(596,217,o),
(551,99,o),
(443,99,cs)
);
},
{
closed = 1;
nodes = (
(617,35,ls),
(790,35,o),
(890,174,o),
(890,333,cs),
(890,553,o),
(706,710,o),
(484,710,cs),
(223,710,o),
(36,504,o),
(36,247,cs),
(36,5,o),
(215,-167,o),
(458,-167,cs),
(534,-167,o),
(623,-152,o),
(699,-115,c),
(699,-40,l),
(623,-79,o),
(537,-97,o),
(461,-97,cs),
(253,-97,o),
(108,42,o),
(108,250,cs),
(108,466,o),
(268,642,o),
(484,642,cs),
(667,642,o),
(818,515,o),
(818,333,cs),
(818,218,o),
(754,97,o),
(630,97,cs),
(590,97,l),
(633,60,l),
(711,500,l),
(638,500,l),
(610,340,l),
(622,340,l),
(622,429,o),
(561,510,o),
(453,510,cs),
(308,510,o),
(235,370,o),
(235,247,cs),
(235,115,o),
(321,30,o),
(424,30,cs),
(512,30,o),
(579,91,o),
(589,165,c),
(582,164,l),
(560,35,l)
);
}
);
width = 926;
},
{
associatedMasterId = "8DAFC702-8226-41F4-8BBE-2050DDC1B01E";
guides = (
{
angle = 80;
pos = (667,240);
},
{
angle = 80;
pos = (247,240);
},
{
angle = 80;
pos = (327,240);
},
{
angle = 80;
pos = (594,240);
}
);
layerId = "80B6FF88-2668-4862-8365-DC7454AD5AC5";
name = "Feb 25, 25 at 01:22";
shapes = (
{
closed = 1;
nodes = (
(360,96,o),
(304,158,o),
(304,251,cs),
(304,345,o),
(360,444,o),
(461,444,cs),
(534,444,o),
(596,394,o),
(596,295,cs),
(596,209,o),
(548,96,o),
(440,96,cs)
);
},
{
closed = 1;
nodes = (
(617,35,ls),
(790,35,o),
(890,174,o),
(890,333,cs),
(890,553,o),
(706,710,o),
(484,710,cs),
(223,710,o),
(36,504,o),
(36,247,cs),
(36,5,o),
(215,-167,o),
(458,-167,cs),
(534,-167,o),
(623,-152,o),
(699,-115,c),
(699,-40,l),
(623,-79,o),
(537,-97,o),
(461,-97,cs),
(253,-97,o),
(108,42,o),
(108,250,cs),
(108,466,o),
(268,642,o),
(484,642,cs),
(667,642,o),
(818,515,o),
(818,333,cs),
(818,218,o),
(754,97,o),
(630,97,cs),
(590,97,l),
(633,60,l),
(711,500,l),
(638,500,l),
(610,340,l),
(622,340,l),
(622,429,o),
(560,515,o),
(450,515,cs),
(305,515,o),
(228,372,o),
(228,249,cs),
(228,113,o),
(317,25,o),
(419,25,cs),
(509,25,o),
(579,91,o),
(589,165,c),
(582,164,l),
(560,35,l)
);
}
);
width = 926;
},
{
associatedMasterId = "8DAFC702-8226-41F4-8BBE-2050DDC1B01E";
layerId = "7C9D334F-DF18-4335-8E1A-EF9EA19104E5";
name = "Feb 25, 25 at 01:28";
shapes = (
{
closed = 1;
nodes = (
(369,111,o),
(318,168,o),
(318,253,cs),
(318,338,o),
(369,429,o),
(461,429,cs),
(529,429,o),
(586,383,o),
(586,293,cs),
(586,215,o),
(542,111,o),
(442,111,cs)
);
},
{
closed = 1;
nodes = (
(618,53,l),
(694,483,l),
(625,483,l),
(599,335,l),
(610,335,l),
(610,417,o),
(553,496,o),
(451,496,cs),
(317,496,o),
(246,364,o),
(246,251,cs),
(246,125,o),
(328,44,o),
(422,44,cs),
(505,44,o),
(570,105,o),
(579,173,c),
(571,172,l),
(549,53,l)
);
},
{
closed = 1;
nodes = (
(786,53,l),
(846,125,o),
(877,214,o),
(877,308,cs),
(877,535,o),
(698,697,o),
(482,697,cs),
(230,697,o),
(49,497,o),
(49,249,cs),
(49,14,o),
(222,-154,o),
(458,-154,cs),
(513,-154,o),
(577,-148,o),
(631,-126,c),
(631,-56,l),
(577,-82,o),
(515,-89,o),
(461,-89,cs),
(257,-89,o),
(115,47,o),
(115,252,cs),
(115,462,o),
(271,634,o),
(482,634,cs),
(662,634,o),
(811,500,o),
(811,308,cs),
(811,205,o),
(773,113,o),
(697,53,c)
);
}
);
width = 926;
},
{
associatedMasterId = "8DAFC702-8226-41F4-8BBE-2050DDC1B01E";
layerId = "7C70299D-215D-4F2D-A68B-3F288FBFCFB0";
name = "Feb 25, 25 at 01:30";
shapes = (
{
closed = 1;
nodes = (
(786,53,l),
(852,122,o),
(880,208,o),
(881,298,cs),
(883,535,o),
(701,697,o),
(476,697,cs),
(229,697,o),
(49,497,o),
(49,253,cs),
(49,11,o),
(233,-166,o),
(474,-166,cs),
(529,-166,o),
(593,-160,o),
(647,-138,c),
(647,-68,l),
(593,-94,o),
(531,-101,o),
(477,-101,cs),
(269,-101,o),
(115,47,o),
(115,256,cs),
(115,464,o),
(269,634,o),
(476,634,cs),
(663,634,o),
(815,498,o),
(815,298,cs),
(815,199,o),
(776,111,o),
(690,53,c)
);
},
{
closed = 1;
nodes = (
(559,41,o),
(640,118,o),
(640,263,c),
(605,166,l),
(605,53,l),
(677,53,l),
(677,473,l),
(605,473,l),
(605,373,l),
(640,263,l),
(640,408,o),
(557,485,o),
(457,485,cs),
(347,485,o),
(251,393,o),
(251,263,cs),
(251,130,o),
(347,41,o),
(457,41,cs)
);
},
{
closed = 1;
nodes = (
(381,107,o),
(327,176,o),
(327,263,cs),
(327,351,o),
(378,419,o),
(465,419,cs),
(552,419,o),
(605,349,o),
(605,263,cs),
(605,177,o),
(552,107,o),
(465,107,cs)
);
}
);
width = 926;
},
{
associatedMasterId = m01;
color = 0;
guides = (
{
angle = 80;
pos = (708,240);
},
{
angle = 80;
pos = (555,240);
},
{
angle = 80;
pos = (395,240);
},
{
angle = 80;
pos = (241,240);
}
);
layerId = "54506E5F-8457-43DA-A1CF-A636519A432C";
name = "Jun 19, 25 at 22:04";
shapes = (
{
closed = 1;
nodes = (
(412,146,o),
(372,180,o),
(372,245,cs),
(372,311,o),
(414,361,o),
(476,361,cs),
(532,361,o),
(562,319,o),
(562,265,cs),
(562,210,o),
(532,146,o),
(462,146,cs)
);
},
{
closed = 1;
nodes = (
(606,10,ls),
(808,10,o),
(918,146,o),
(918,316,cs),
(918,539,o),
(737,705,o),
(496,705,cs),
(222,705,o),
(25,494,o),
(25,229,cs),
(25,-16,o),
(207,-192,o),
(479,-192,cs),
(578,-192,o),
(679,-169,o),
(768,-117,c),
(768,-20,l),
(678,-74,o),
(575,-100,o),
(482,-100,cs),
(266,-100,o),
(123,37,o),
(123,232,cs),
(123,442,o),
(281,613,o),
(496,613,cs),
(671,613,o),
(820,493,o),
(820,309,cs),
(820,193,o),
(761,102,o),
(650,102,cs),
(608,102,l),
(673,50,l),
(751,490,l),
(598,490,l),
(568,320,l),
(585,320,l),
(605,429,o),
(544,500,o),
(436,500,cs),
(290,500,o),
(207,374,o),
(207,231,cs),
(207,86,o),
(292,10,o),
(394,10,cs),
(479,10,o),
(547,61,o),
(556,144,c),
(537,144,l),
(512,10,l)
);
}
);
width = 943;
},
{
associatedMasterId = "8DAFC702-8226-41F4-8BBE-2050DDC1B01E";
guides = (
{
angle = 80;
pos = (667,240);
},
{
angle = 80;
pos = (247,240);
},
{
angle = 80;
pos = (327,240);
},
{
angle = 80;
pos = (594,240);
}
);
layerId = "3E4DA21B-D7D5-41F0-B28E-8ABEAB617DA5";
name = "Jun 19, 25 at 22:04";
shapes = (
{
closed = 1;
nodes = (
(368,109,o),
(316,167,o),
(316,253,cs),
(316,339,o),
(368,431,o),
(461,431,cs),
(529,431,o),
(586,385,o),
(586,293,cs),
(586,214,o),
(542,109,o),
(442,109,cs)
);
},
{
closed = 1;
nodes = (
(647,53,ls),
(800,53,o),
(877,177,o),
(877,318,cs),
(877,539,o),
(698,697,o),
(482,697,cs),
(230,697,o),
(49,497,o),
(49,249,cs),
(49,14,o),
(222,-154,o),
(458,-154,cs),
(513,-154,o),
(577,-148,o),
(631,-126,c),
(631,-56,l),
(577,-82,o),
(515,-89,o),
(461,-89,cs),
(257,-89,o),
(115,47,o),
(115,252,cs),
(115,462,o),
(271,634,o),
(482,634,cs),
(662,634,o),
(811,504,o),
(811,318,cs),
(811,203,o),
(755,110,o),
(647,110,cs),
(580,110,l),
(620,76,l),
(692,483,l),
(625,483,l),
(599,335,l),
(610,335,l),
(610,417,o),
(553,496,o),
(451,496,cs),
(317,496,o),
(246,364,o),
(246,251,cs),
(246,125,o),
(328,44,o),
(422,44,cs),
(505,44,o),
(570,105,o),
(579,173,c),
(573,172,l),
(553,53,l)
);
}
);
width = 926;
},
{
associatedMasterId = "8DAFC702-8226-41F4-8BBE-2050DDC1B01E";
layerId = "B6A88C9F-B360-4CA9-BFF8-47F1B1BE9A1A";
name = "Jun 19, 25 at 22:55";
shapes = (
{
closed = 1;
nodes = (
(538,-154,o),
(599,-146,o),
(655,-128,c),
(655,-60,l),
(597,-81,o),
(541,-90,o),
(485,-90,cs),
(271,-90,o),
(132,41,o),
(132,253,cs),
(132,468,o),
(285,632,o),
(500,632,cs),
(685,632,o),
(835,513,o),
(835,329,cs),
(835,200,o),
(758,113,o),
(684,113,cs),
(629,113,l),
(660,77,l),
(715,477,l),
(634,477,l),
(624,383,l),
(622,383,l),
(597,452,o),
(544,487,o),
(475,487,cs),
(333,487,o),
(264,359,o),
(264,240,cs),
(264,123,o),
(335,45,o),
(442,45,cs),
(507,45,o),
(559,75,o),
(590,135,c),
(592,135,l),
(581,49,l),
(668,49,ls),
(798,49,o),
(911,165,o),
(911,329,cs),
(911,550,o),
(729,696,o),
(500,696,cs),
(239,696,o),
(56,502,o),
(56,250,cs),
(56,4,o),
(226,-154,o),
(482,-154,cs)
);
},
{
closed = 1;
nodes = (
(392,113,o),
(353,158,o),
(350,233,cs),
(347,309,o),
(382,419,o),
(484,419,cs),
(563,419,o),
(600,360,o),
(600,288,cs),
(600,221,o),
(565,113,o),
(456,113,cs)
);
}
);
width = 926;
},
{
associatedMasterId = m01;
layerId = "B328BA20-C1BF-4820-B888-C79F36935021";
name = "Jun 19, 25 at 22:55";
shapes = (
{
closed = 1;
nodes = (
(535,-164,o),
(595,-156,o),
(651,-139,c),
(651,-45,l),
(596,-62,o),
(538,-70,o),
(483,-70,cs),
(275,-70,o),
(138,53,o),
(138,253,cs),
(138,458,o),
(281,612,o),
(486,612,cs),
(659,612,o),
(801,501,o),
(801,329,cs),
(801,213,o),
(735,133,o),
(671,133,cs),
(627,133,l),
(669,62,l),
(721,487,l),
(580,487,l),
(573,422,l),
(571,422,l),
(550,471,o),
(507,497,o),
(443,497,cs),
(296,497,o),
(230,364,o),
(230,240,cs),
(230,107,o),
(303,35,o),
(409,35,cs),
(473,35,o),
(518,62,o),
(544,118,c),
(546,118,l),
(537,39,l),
(654,39,ls),
(793,39,o),
(913,159,o),
(913,329,cs),
(913,557,o),
(725,706,o),
(486,706,cs),
(217,706,o),
(26,506,o),
(26,250,cs),
(26,-2,o),
(208,-164,o),
(475,-164,cs)
);
},
{
closed = 1;
nodes = (
(413,158,o),
(381,192,o),
(381,247,cs),
(381,325,o),
(415,374,o),
(474,374,cs),
(524,374,o),
(551,338,o),
(551,283,cs),
(551,205,o),
(513,158,o),
(458,158,cs)
);
}
);
visible = 1;
width = 943;
}
);
metricLeft = O;
metricRight = O;
unicode = 64;
userData = {
KernOnSpecialSpacing = {
L = symbols;
R = symbols;
};
};
}
{
glyphname = A;
kernLeft = A;
kernRight = A;
layers = (
{
associatedMasterId = m01;
layerId = "E0172AF4-B949-4D31-BDD0-97EA0C808746";
name = "Oct 4, 22, 14:52";
shapes = (
{
closed = 1;
nodes = (
(-10,0,l),
(170,0,l),
(290,700,l),
(120,700,l)
);
},
{
closed = 1;
nodes = (
(280,700,l),
(400,0,l),
(580,0,l),
(450,700,l)
);
},
{
closed = 1;
nodes = (
(101,172,l),
(469,172,l),
(469,318,l),
(101,318,l)
);
}
);
width = 570;
},
{
associatedMasterId = m01;
layerId = "D1337D8D-2904-4750-B109-C29E9E2241F8";
name = "Oct 11, 22, 16:07";
shapes = (
{
closed = 1;
nodes = (
(10,0,l),
(173,0,l),
(280,700,l),
(128,700,l)
);
},
{
closed = 1;
nodes = (
(270,700,l),
(377,0,l),
(540,0,l),
(422,700,l)
);
},
{
closed = 1;
nodes = (
(91,156,l),
(459,156,l),
(459,308,l),
(91,308,l)
);
}
);
width = 550;
},
{
associatedMasterId = m01;
color = 0;
layerId = "34773FCA-BBE0-4EA5-8A96-C2923917B690";
name = "Oct 13, 22, 17:07";
shapes = (
{
closed = 1;
nodes = (
(10,0,l),
(173,0,l),
(285,700,l),
(133,700,l)
);
},
{
closed = 1;
nodes = (
(265,700,l),
(377,0,l),
(540,0,l),
(417,700,l)
);
},
{
closed = 1;
nodes = (
(91,156,l),
(459,156,l),
(459,308,l),
(91,308,l)
);
}
);
width = 550;
},
{
associatedMasterId = m01;
color = 0;
layerId = "7DCEB42C-AD93-4C77-AD24-AF2BF6397F17";
name = "from logotype 1013";
shapes = (
{
closed = 1;
nodes = (
(262,690,l),
(400,0,l),
(555,0,l),
(404,700,l),
(156,700,l),
(5,0,l),
(160,0,l),
(298,690,l)
);
},
{
closed = 1;
nodes = (
(96,150,l),
(464,150,l),
(464,290,l),
(96,290,l)
);
}
);
width = 560;
},
{
associatedMasterId = m01;
color = 1;
layerId = "E1B97C9B-75A2-478F-B868-2FD2AE5EC08E";
name = "Oct 20, 22, 14:03";
shapes = (
{
closed = 1;
nodes = (
(10,0,l),
(173,0,l),
(305,700,l),
(158,700,l)
);
},
{
closed = 1;
nodes = (
(265,700,l),
(397,0,l),
(560,0,l),
(412,700,l)
);
},
{
closed = 1;
nodes = (
(101,147,l),
(469,147,l),
(469,293,l),
(101,293,l)
);
}
);
userData = {
com.hugojourdan.ColorFlow = {
"0" = 0;
"1" = 0;
"10" = 0;
"11" = 0;
"2" = 0;
"3" = 0;
"4" = 0;
"5" = 0;
"6" = 0;
"7" = 0;
"8" = 0;
"9" = 0;
};
};
width = 570;
},
{
anchors = (
{
name = bottom;
pos = (332,0);
},
{
name = ogonek;
pos = (614,0);
},
{
name = top;
pos = (316,680);
}
);
layerId = "8DAFC702-8226-41F4-8BBE-2050DDC1B01E";
shapes = (
{
closed = 1;
nodes = (
(114,0,l),
(315,630,l),
(317,630,l),
(517,0,l),
(614,0,l),
(388,680,l),
(247,680,l),
(20,0,l)
);
},
{
closed = 1;
nodes = (
(327,196,l),
(486,196,l),
(486,277,l),
(148,277,l),
(148,196,l)
);
}
);
width = 634;
},
{
anchors = (
{
name = bottom;
pos = (295,0);
},
{
name = ogonek;
pos = (570,0);
},
{
name = top;
pos = (295,700);
}
);
associatedMasterId = "8DAFC702-8226-41F4-8BBE-2050DDC1B01E";
hints = (
{
name = _corner.sharp;
options = 2;
origin = (0,2,1,1);
stem = 1000;
type = Corner;
}
);
layerId = "575FE17F-DFCA-4236-8B22-C6A359BB5F4D";
name = "Jan 13, 23, 17:19";
shapes = (
{
closed = 1;
nodes = (
(20,0,l),
(103,0,l),
(306,700,l),
(230,700,l)
);
},
{
closed = 1;
nodes = (
(280,700,l),
(487,0,l),
(570,0,l),
(359,700,l)
);
},
{
closed = 1;
nodes = (
(121,207,l),
(469,207,l),
(469,281,l),
(121,281,l)
);
}
);
width = 590;
},
{
anchors = (
{
name = bottom;
pos = (295,0);
},
{
name = ogonek;
pos = (570,0);
},
{
name = top;
pos = (295,700);
}
);
associatedMasterId = "8DAFC702-8226-41F4-8BBE-2050DDC1B01E";
color = 0;
hints = (
{
name = _corner.sharp;
options = 2;
origin = (0,1,0,3);
stem = 1000;
type = Corner;
}
);
layerId = "8D05C309-B9CB-4D5E-9B1A-6F25A04BDA63";
name = "Feb 8, 25 at 11:58";
shapes = (
{
closed = 1;
nodes = (
(103,0,l),
(306,700,l),
(279,700,l),
(487,0,l),
(571,0,l),
(360,700,l),
(230,700,l),
(20,0,l)
);
},
{
closed = 1;
nodes = (
(469,207,l),
(469,281,l),
(121,281,l),
(121,207,l)
);
}
);
width = 591;
},
{
anchors = (
{
name = bottom;
pos = (295,0);
},
{
name = ogonek;
pos = (580,0);
},
{
name = top;
pos = (295,700);
}
);
associatedMasterId = m01;
color = 4;
hints = (
{
name = _corner.sharp;
options = 2;
origin = (0,1,0,3);
stem = 1000;
type = Corner;
}
);
layerId = "681959FA-F70A-4DC2-959F-225FD6ECE1C6";
name = "Feb 24, 25 at 19:42";
shapes = (
{
closed = 1;
nodes = (
(173,0,l),
(313,700,l),
(271,700,l),
(417,0,l),
(581,0,l),
(423,700,l),
(165,700,l),
(10,0,l)
);
},
{
closed = 1;
nodes = (
(479,147,l),
(479,293,l),
(111,293,l),
(111,147,l)
);
}
);
userData = {
com.hugojourdan.ColorFlow = {
"0" = 0;
"1" = 0;
"10" = 0;
"11" = 0;
"2" = 0;
"3" = 0;
"4" = 0;
"5" = 0;
"6" = 0;
"7" = 0;
"8" = 0;
"9" = 0;
};
};
width = 590;
},
{
anchors = (
{
name = bottom;
pos = (295,0);
},
{
name = ogonek;
pos = (570,0);
},
{
name = top;
pos = (295,700);
}
);
associatedMasterId = "8DAFC702-8226-41F4-8BBE-2050DDC1B01E";
color = 0;
layerId = "416061D5-A8F5-4EA0-B19D-1163BCB36757";
name = "Feb 27, 25 at 18:14";
shapes = (
{
closed = 1;
nodes = (
(102,0,l),
(307,680,l),
(280,680,l),
(485,0,l),
(571,0,l),
(358,680,l),
(232,680,l),
(20,0,l)
);
},
{
closed = 1;
nodes = (
(290,207,l),
(469,207,l),
(469,277,l),
(121,277,l),
(121,207,l)
);
}
);
width = 591;
},
{
anchors = (
{
name = bottom;
pos = (325,0);
},
{
name = ogonek;
pos = (600,0);
},
{
name = top;
pos = (325,700);
}
);
associatedMasterId = "8DAFC702-8226-41F4-8BBE-2050DDC1B01E";
color = 5;
layerId = "F55D6E23-A708-4993-B38B-409901F26197";
name = "Feb 27, 25 at 18:53";
shapes = (
{
closed = 1;
nodes = (
(102,0,l),
(325,660,l),
(323,660,l),
(545,0,l),
(636,0,l),
(400,680,l),
(250,680,l),
(15,0,l)
);
},
{
closed = 1;
nodes = (
(320,203,l),
(499,203,l),
(499,277,l),
(151,277,l),
(151,203,l)
);
}
);
width = 651;
},
{
anchors = (
{
name = bottom;
pos = (295,0);
},
{
name = ogonek;
pos = (580,0);
},
{
name = top;
pos = (295,700);
}
);
associatedMasterId = m01;
color = 4;
layerId = "03A7757C-8397-40FC-908C-335794CA6168";
name = "Mar 1, 25 at 13:47";
shapes = (
{
closed = 1;
nodes = (
(153,0,l),
(313,680,l),
(271,680,l),
(437,0,l),
(605,0,l),
(427,680,l),
(162,680,l),
(-13,0,l)
);
},
{
closed = 1;
nodes = (
(479,147,l),
(479,287,l),
(111,287,l),
(111,147,l)
);
}
);
userData = {
com.hugojourdan.ColorFlow = {
"0" = 0;
"1" = 0;
"10" = 0;
"11" = 0;
"2" = 0;
"3" = 0;
"4" = 0;
"5" = 0;
"6" = 0;
"7" = 0;
"8" = 0;
"9" = 0;
};
};
width = 590;
},
{
anchors = (
{
name = bottom;
pos = (341,0);
},
{
name = ogonek;
pos = (626,0);
},
{
name = top;
pos = (341,700);
}
);
associatedMasterId = m01;
color = 6;
layerId = "A3C498CD-49BC-433D-9B28-58A4C2EC0C25";
name = "Mar 1, 25 at 20:28";
shapes = (
{
closed = 1;
nodes = (
(163,0,l),
(343,660,l),
(341,660,l),
(525,0,l),
(688,0,l),
(483,680,l),
(206,680,l),
(4,0,l)
);
},
{
closed = 1;
nodes = (
(342,171,l),
(529,171,l),
(529,307,l),
(161,307,l),
(161,171,l)
);
}
);
userData = {
com.hugojourdan.ColorFlow = {
"0" = 0;
"1" = 0;
"10" = 0;
"11" = 0;
"2" = 0;
"3" = 0;
"4" = 0;
"5" = 0;
"6" = 0;
"7" = 0;
"8" = 0;
"9" = 0;
};
};
width = 692;
},
{
anchors = (
{
name = bottom;
pos = (341,0);
},
{
name = ogonek;
pos = (626,0);
},
{
name = top;
pos = (341,700);
}
);
associatedMasterId = m01;
color = 6;
layerId = "AD1D4C57-11A6-4996-A815-C0CE2B7FA8DB";
name = "Mar 1, 25 at 21:04";
shapes = (
{
closed = 1;
nodes = (
(161,0,l),
(323,620,l),
(321,620,l),
(487,0,l),
(648,0,l),
(452,680,l),
(197,680,l),
(4,0,l)
);
},
{
closed = 1;
nodes = (
(322,161,l),
(509,161,l),
(509,297,l),
(141,297,l),
(141,161,l)
);
}
);
userData = {
com.hugojourdan.ColorFlow = {
"0" = 0;
"1" = 0;
"10" = 0;
"11" = 0;
"2" = 0;
"3" = 0;
"4" = 0;
"5" = 0;
"6" = 0;
"7" = 0;
"8" = 0;
"9" = 0;
};
};
width = 652;
},
{
anchors = (
{
name = bottom;
pos = (351,0);
},
{
name = ogonek;
pos = (636,0);
},
{
name = top;
pos = (351,700);
}
);
associatedMasterId = m01;
color = 7;
layerId = "E12C1EEF-8B34-4AEC-A256-A66A700FC7EB";
name = "Mar 1, 25 at 22:47";
shapes = (
{
closed = 1;
nodes = (
(172,0,l),
(320,620,l),
(324,620,l),
(476,0,l),
(638,0,l),
(457,680,l),
(192,680,l),
(14,0,l)
);
},
{
closed = 1;
nodes = (
(322,151,l),
(509,151,l),
(509,287,l),
(141,287,l),
(141,151,l)
);
}
);
userData = {
com.hugojourdan.ColorFlow = {
"0" = 0;
"1" = 0;
"10" = 0;
"11" = 0;
"2" = 0;
"3" = 0;
"4" = 0;
"5" = 0;
"6" = 0;
"7" = 0;
"8" = 0;
"9" = 0;
};
};
width = 652;
},
{
anchors = (
{
name = bottom;
pos = (351,0);
},
{
name = ogonek;
pos = (636,0);
},
{
name = top;
pos = (351,700);
}
);
associatedMasterId = m01;
color = 7;
layerId = "C7A2FAB4-F72F-4E0C-9957-FB4E462D3CF2";
name = "Mar 2, 25 at 13:37";
shapes = (
{
closed = 1;
nodes = (
(178,0,l),
(310,620,l),
(314,620,l),
(446,0,l),
(607,0,l),
(445,680,l),
(183,680,l),
(26,0,l)
);
},
{
closed = 1;
nodes = (
(312,151,l),
(499,151,l),
(499,287,l),
(131,287,l),
(131,151,l)
);
}
);
userData = {
com.hugojourdan.ColorFlow = {
"0" = 0;
"1" = 0;
"10" = 0;
"11" = 0;
"2" = 0;
"3" = 0;
"4" = 0;
"5" = 0;
"6" = 0;
"7" = 0;
"8" = 0;
"9" = 0;
};
};
width = 633;
},
{
anchors = (
{
name = bottom;
pos = (351,0);
},
{
name = ogonek;
pos = (636,0);
},
{
name = top;
pos = (351,700);
}
);
associatedMasterId = m01;
color = 7;
layerId = "D4EE2695-8FBC-4C38-9474-2B4716A95962";
name = "Mar 2, 25 at 13:43";
shapes = (
{
closed = 1;
nodes = (
(168,0,l),
(310,620,l),
(314,620,l),
(456,0,l),
(617,0,l),
(445,680,l),
(183,680,l),
(16,0,l)
);
},
{
closed = 1;
nodes = (
(312,151,l),
(499,151,l),
(499,287,l),
(131,287,l),
(131,151,l)
);
}
);
userData = {
com.hugojourdan.ColorFlow = {
"0" = 0;
"1" = 0;
"10" = 0;
"11" = 0;
"2" = 0;
"3" = 0;
"4" = 0;
"5" = 0;
"6" = 0;
"7" = 0;
"8" = 0;
"9" = 0;
};
};
width = 633;
},
{
anchors = (
{
name = bottom;
pos = (351,0);
},
{
name = ogonek;
pos = (636,0);
},
{
name = top;
pos = (351,700);
}
);
associatedMasterId = m01;
color = 7;
layerId = "751134F7-DC8B-49C0-9967-2D3E28DCE775";
name = "Mar 2, 25 at 23:29";
shapes = (
{
closed = 1;
nodes = (
(168,0,l),
(320,570,l),
(324,570,l),
(476,0,l),
(638,0,l),
(440,680,l),
(210,680,l),
(14,0,l)
);
},
{
closed = 1;
nodes = (
(322,161,l),
(509,161,l),
(509,297,l),
(141,297,l),
(141,161,l)
);
}
);
userData = {
com.hugojourdan.ColorFlow = {
"0" = 0;
"1" = 0;
"10" = 0;
"11" = 0;
"2" = 0;
"3" = 0;
"4" = 0;
"5" = 0;
"6" = 0;
"7" = 0;
"8" = 0;
"9" = 0;
};
};
width = 652;
},
{
anchors = (
{
name = bottom;
pos = (339,0);
},
{
name = ogonek;
pos = (621,0);
},
{
name = top;
pos = (309,680);
}
);
layerId = m01;
name = Black;
shapes = (
{
closed = 1;
nodes = (
(162,0,l),
(308,600,l),
(310,600,l),
(453,0,l),
(621,0,l),
(438,680,l),
(183,680,l),
(4,0,l)
);
},
{
closed = 1;
nodes = (
(310,171,l),
(497,171,l),
(497,299,l),
(119,299,l),
(119,171,l)
);
}
);
userData = {
com.hugojourdan.ColorFlow = {
"0" = 0;
"1" = 0;
"10" = 0;
"11" = 0;
"2" = 0;
"3" = 0;
"4" = 0;
"5" = 0;
"6" = 0;
"7" = 0;
"8" = 0;
"9" = 0;
};
};
visible = 1;
width = 625;
},
{
anchors = (
{
name = bottom;
pos = (351,0);
},
{
name = ogonek;
pos = (636,0);
},
{
name = top;
pos = (351,700);
}
);
associatedMasterId = m01;
color = 7;
layerId = "E72CE872-9B91-4559-9422-40664D9F842C";
name = "Mar 2, 25 at 23:46";
shapes = (
{
closed = 1;
nodes = (
(168,0,l),
(320,620,l),
(324,620,l),
(476,0,l),
(638,0,l),
(453,680,l),
(195,680,l),
(14,0,l)
);
},
{
closed = 1;
nodes = (
(322,161,l),
(509,161,l),
(509,297,l),
(141,297,l),
(141,161,l)
);
}
);
userData = {
com.hugojourdan.ColorFlow = {
"0" = 0;
"1" = 0;
"10" = 0;
"11" = 0;
"2" = 0;
"3" = 0;
"4" = 0;
"5" = 0;
"6" = 0;
"7" = 0;
"8" = 0;
"9" = 0;
};
};
width = 652;
},
{
anchors = (
{
name = bottom;
pos = (351,0);
},
{
name = ogonek;
pos = (636,0);
},
{
name = top;
pos = (351,700);
}
);
associatedMasterId = m01;
color = 7;
layerId = "984270F0-042D-4B77-B142-157EB4A628B9";
name = "Mar 9, 25 at 20:03";
shapes = (
{
closed = 1;
nodes = (
(164,0,l),
(320,600,l),
(324,600,l),
(480,0,l),
(642,0,l),
(447,680,l),
(201,680,l),
(10,0,l)
);
},
{
closed = 1;
nodes = (
(322,161,l),
(509,161,l),
(509,297,l),
(141,297,l),
(141,161,l)
);
}
);
userData = {
com.hugojourdan.ColorFlow = {
"0" = 0;
"1" = 0;
"10" = 0;
"11" = 0;
"2" = 0;
"3" = 0;
"4" = 0;
"5" = 0;
"6" = 0;
"7" = 0;
"8" = 0;
"9" = 0;
};
};
width = 652;
},
{
anchors = (
{
name = bottom;
pos = (325,0);
},
{
name = ogonek;
pos = (600,0);
},
{
name = top;
pos = (325,700);
}
);
associatedMasterId = "8DAFC702-8226-41F4-8BBE-2050DDC1B01E";
color = 0;
layerId = "B2F1006F-D735-4F55-BD1E-5CAC685D591A";
name = "Apr 14, 25 at 12:02";
shapes = (
{
closed = 1;
nodes = (
(102,0,l),
(325,660,l),
(323,660,l),
(545,0,l),
(638,0,l),
(400,680,l),
(250,680,l),
(13,0,l)
);
},
{
closed = 1;
nodes = (
(320,203,l),
(499,203,l),
(499,277,l),
(151,277,l),
(151,203,l)
);
}
);
width = 651;
},
{
anchors = (
{
name = bottom;
pos = (325,0);
},
{
name = ogonek;
pos = (600,0);
},
{
name = top;
pos = (325,700);
}
);
associatedMasterId = "8DAFC702-8226-41F4-8BBE-2050DDC1B01E";
color = 1;
layerId = "91AB2D72-77BE-4D28-9451-0C51552D28ED";
name = "Apr 14, 25 at 13:23";
shapes = (
{
closed = 1;
nodes = (
(108,0,l),
(334,660,l),
(314,660,l),
(539,0,l),
(638,0,l),
(396,680,l),
(255,680,l),
(13,0,l)
);
},
{
closed = 1;
nodes = (
(320,197,l),
(499,197,l),
(499,277,l),
(151,277,l),
(151,197,l)
);
}
);
width = 651;
},
{
anchors = (
{
name = bottom;
pos = (351,0);
},
{
name = ogonek;
pos = (636,0);
},
{
name = top;
pos = (351,700);
}
);
associatedMasterId = m01;
color = 7;
layerId = "04440BA4-A877-47CF-8EEB-928A1B5D067B";
name = "Apr 14, 25 at 21:09";
shapes = (
{
closed = 1;
nodes = (
(162,0,l),
(329,580,l),
(325,580,l),
(490,0,l),
(656,0,l),
(436,680,l),
(222,680,l),
(6,0,l)
);
},
{
closed = 1;
nodes = (
(332,161,l),
(519,161,l),
(519,293,l),
(141,293,l),
(141,161,l)
);
}
);
userData = {
com.hugojourdan.ColorFlow = {
"0" = 0;
"1" = 0;
"10" = 0;
"11" = 0;
"2" = 0;
"3" = 0;
"4" = 0;
"5" = 0;
"6" = 0;
"7" = 0;
"8" = 0;
"9" = 0;
};
};
width = 662;
},
{
anchors = (
{
name = bottom;
pos = (351,0);
},
{
name = ogonek;
pos = (636,0);
},
{
name = top;
pos = (351,700);
}
);
associatedMasterId = m01;
color = 7;
layerId = "3656AF46-8486-4DC3-BB33-C3ABA66413A1";
name = "Apr 14, 25 at 21:10";
shapes = (
{
closed = 1;
nodes = (
(162,0,l),
(329,580,l),
(325,580,l),
(490,0,l),
(656,0,l),
(436,680,l),
(222,680,l),
(6,0,l)
);
},
{
closed = 1;
nodes = (
(332,161,l),
(519,161,l),
(519,293,l),
(141,293,l),
(141,161,l)
);
}
);
userData = {
com.hugojourdan.ColorFlow = {
"0" = 0;
"1" = 0;
"10" = 0;
"11" = 0;
"2" = 0;
"3" = 0;
"4" = 0;
"5" = 0;
"6" = 0;
"7" = 0;
"8" = 0;
"9" = 0;
};
};
width = 662;
},
{
anchors = (
{
name = bottom;
pos = (351,0);
},
{
name = ogonek;
pos = (636,0);
},
{
name = top;
pos = (351,700);
}
);
associatedMasterId = m01;
color = 1;
layerId = "FFA001BC-8378-4451-BE21-5BA814FDE744";
name = "Jun 15, 25 at 14:37";
shapes = (
{
closed = 1;
nodes = (
(169,0,l),
(336,580,l),
(325,580,l),
(490,0,l),
(663,0,l),
(443,680,l),
(222,680,l),
(6,0,l)
);
},
{
closed = 1;
nodes = (
(332,161,l),
(519,161,l),
(519,293,l),
(141,293,l),
(141,161,l)
);
}
);
userData = {
com.hugojourdan.ColorFlow = {
"0" = 0;
"1" = 0;
"10" = 0;
"11" = 0;
"2" = 0;
"3" = 0;
"4" = 0;
"5" = 0;
"6" = 0;
"7" = 0;
"8" = 0;
"9" = 0;
};
};
width = 669;
},
{
anchors = (
{
name = bottom;
pos = (325,0);
},
{
name = ogonek;
pos = (600,0);
},
{
name = top;
pos = (325,700);
}
);
associatedMasterId = "8DAFC702-8226-41F4-8BBE-2050DDC1B01E";
layerId = "14AEA06C-05A6-49E9-BAF0-34805E3AB94B";
name = "Jun 16, 25 at 01:37";
shapes = (
{
closed = 1;
nodes = (
(107,0,l),
(319,660,l),
(299,660,l),
(510,0,l),
(607,0,l),
(381,680,l),
(240,680,l),
(13,0,l)
);
},
{
closed = 1;
nodes = (
(320,196,l),
(479,196,l),
(479,277,l),
(141,277,l),
(141,196,l)
);
}
);
width = 620;
},
{
anchors = (
{
name = bottom;
pos = (339,0);
},
{
name = ogonek;
pos = (624,0);
},
{
name = top;
pos = (339,700);
}
);
associatedMasterId = m01;
layerId = "ED388FA9-26FC-48D1-9256-2EAFC7FE3C81";
name = "Jun 16, 25 at 01:37";
shapes = (
{
closed = 1;
nodes = (
(162,0,l),
(317,640,l),
(301,640,l),
(453,0,l),
(621,0,l),
(440,680,l),
(181,680,l),
(4,0,l)
);
},
{
closed = 1;
nodes = (
(310,171,l),
(497,171,l),
(497,299,l),
(119,299,l),
(119,171,l)
);
}
);
userData = {
com.hugojourdan.ColorFlow = {
"0" = 0;
"1" = 0;
"10" = 0;
"11" = 0;
"2" = 0;
"3" = 0;
"4" = 0;
"5" = 0;
"6" = 0;
"7" = 0;
"8" = 0;
"9" = 0;
};
};
width = 625;
}
);
metricRight = "=|";
unicode = 65;
userData = {
KernOnName = A;
};
}
{
glyphname = B;
kernLeft = H;
kernRight = B;
layers = (
{
anchors = (
{
name = bottom;
pos = (282,0);
},
{
name = center;
pos = (282,350);
},
{
name = top;
pos = (282,680);
}
);
layerId = m01;
shapes = (
{
closed = 1;
nodes = (
(314,0,ls),
(459,0,o),
(553,71,o),
(553,192,cs),
(553,288,o),
(498,351,o),
(403,367,c),
(403,369,l),
(484,382,o),
(531,436,o),
(531,512,cs),
(531,622,o),
(438,680,o),
(307,680,cs),
(54,680,l),
(54,0,l)
);
},
{
closed = 1;
nodes = (
(216,291,l),
(302,291,ls),
(352,291,o),
(390,261,o),
(390,207,cs),
(390,153,o),
(352,124,o),
(302,124,cs),
(216,124,l)
);
},
{
closed = 1;
nodes = (
(216,556,l),
(293,556,ls),
(342,556,o),
(377,531,o),
(377,483,cs),
(377,435,o),
(342,409,o),
(293,409,cs),
(216,409,l)
);
}
);
userData = {
com.hugojourdan.ColorFlow = {
"0" = 0;
"1" = 0;
"10" = 0;
"11" = 0;
"2" = 0;
"3" = 0;
"4" = 0;
"5" = 0;
"6" = 0;
"7" = 0;
"8" = 0;
"9" = 0;
};
};
width = 578;
},
{
associatedMasterId = m01;
color = 0;
layerId = "EDAF10FB-BFA5-4147-95C1-D302713AF996";
name = "Oct 17, 22, 15:49";
shapes = (
{
closed = 1;
nodes = (
(260,0,ls),
(416,0,o),
(495,70,o),
(495,177,cs),
(495,286,o),
(413,352,o),
(292,352,c),
(292,342,l),
(407,342,o),
(486,405,o),
(486,519,cs),
(486,631,o),
(410,700,o),
(260,700,cs),
(130,700,l),
(130,558,l),
(250,558,ls),
(294,558,o),
(330,540,o),
(330,486,cs),
(330,432,o),
(294,414,o),
(250,414,cs),
(90,414,l),
(90,290,l),
(250,290,ls),
(297,290,o),
(335,271,o),
(335,216,cs),
(335,161,o),
(297,142,o),
(250,142,cs),
(130,142,l),
(130,0,l)
);
},
{
closed = 1;
nodes = (
(190,0,l),
(190,700,l),
(30,700,l),
(30,0,l)
);
}
);
userData = {
com.hugojourdan.ColorFlow = {
"0" = 0;
"1" = 0;
"10" = 0;
"11" = 0;
"2" = 0;
"3" = 0;
"4" = 0;
"5" = 0;
"6" = 0;
"7" = 0;
"8" = 0;
"9" = 0;
};
};
width = 515;
},
{
associatedMasterId = m01;
color = 1;
layerId = "3B396A40-6F41-4C44-AB0F-2641AA52BFAB";
name = "Oct 20, 22, 14:05";
shapes = (
{
closed = 1;
nodes = (
(265,0,ls),
(421,0,o),
(500,60,o),
(500,177,cs),
(500,296,o),
(418,355,o),
(297,355,c),
(297,345,l),
(412,345,o),
(491,405,o),
(491,519,cs),
(491,631,o),
(415,700,o),
(265,700,cs),
(135,700,l),
(135,568,l),
(255,568,ls),
(299,568,o),
(335,549,o),
(335,491,cs),
(335,433,o),
(299,414,o),
(255,414,cs),
(95,414,l),
(95,290,l),
(255,290,ls),
(302,290,o),
(340,270,o),
(340,211,cs),
(340,152,o),
(302,132,o),
(255,132,cs),
(135,132,l),
(135,0,l)
);
},
{
closed = 1;
nodes = (
(195,0,l),
(195,700,l),
(35,700,l),
(35,0,l)
);
}
);
userData = {
com.hugojourdan.ColorFlow = {
"0" = 0;
"1" = 0;
"10" = 0;
"11" = 0;
"2" = 0;
"3" = 0;
"4" = 0;
"5" = 0;
"6" = 0;
"7" = 0;
"8" = 0;
"9" = 0;
};
};
width = 525;
},
{
anchors = (
{
name = bottom;
pos = (296,0);
},
{
name = center;
pos = (296,350);
},
{
name = top;
pos = (296,700);
}
);
background = {
shapes = (
{
ref = P;
}
);
};
layerId = "8DAFC702-8226-41F4-8BBE-2050DDC1B01E";
shapes = (
{
closed = 1;
nodes = (
(318,0,ls),
(447,0,o),
(538,72,o),
(538,190,cs),
(538,279,o),
(489,343,o),
(407,363,c),
(407,365,l),
(476,382,o),
(519,436,o),
(519,509,cs),
(519,611,o),
(435,680,o),
(312,680,cs),
(94,680,l),
(94,0,l)
);
},
{
closed = 1;
nodes = (
(186,314,l),
(310,314,ls),
(388,314,o),
(444,275,o),
(444,195,cs),
(444,114,o),
(388,76,o),
(310,76,cs),
(186,76,l)
);
},
{
closed = 1;
nodes = (
(186,604,l),
(305,604,ls),
(378,604,o),
(430,569,o),
(430,497,cs),
(430,424,o),
(378,390,o),
(305,390,cs),
(186,390,l)
);
}
);
width = 586;
},
{
anchors = (
{
name = bottom;
pos = (263,0);
},
{
name = center;
pos = (263,350);
},
{
name = top;
pos = (263,700);
}
);
associatedMasterId = "8DAFC702-8226-41F4-8BBE-2050DDC1B01E";
layerId = "2144D4FE-5078-4E2D-A7E4-D0EA58809FBC";
name = "Jan 13, 23, 17:20";
shapes = (
{
closed = 1;
nodes = (
(255,0,ls),
(385,0,o),
(475,69,o),
(475,186,cs),
(475,305,o),
(384,372,o),
(277,372,c),
(277,351,l),
(378,351,o),
(466,403,o),
(466,517,cs),
(466,629,o),
(380,700,o),
(255,700,cs),
(125,700,l),
(125,628,l),
(255,628,ls),
(322,628,o),
(385,596,o),
(385,510,cs),
(385,424,o),
(322,393,o),
(255,393,cs),
(125,393,l),
(125,323,l),
(255,323,ls),
(328,323,o),
(395,284,o),
(395,198,cs),
(395,111,o),
(328,72,o),
(255,72,cs),
(125,72,l),
(125,0,l)
);
},
{
closed = 1;
nodes = (
(145,0,l),
(145,700,l),
(65,700,l),
(65,0,l)
);
}
);
width = 525;
},
{
anchors = (
{
name = bottom;
pos = (273,0);
},
{
name = center;
pos = (273,350);
},
{
name = top;
pos = (273,700);
}
);
associatedMasterId = m01;
color = 0;
layerId = "54F37A9A-C8A8-4121-BA10-5E3CAB00632B";
name = "Jan 13, 23, 17:20";
shapes = (
{
closed = 1;
nodes = (
(275,0,ls),
(421,0,o),
(510,60,o),
(510,177,cs),
(510,296,o),
(418,355,o),
(307,355,c),
(307,345,l),
(412,345,o),
(501,405,o),
(501,519,cs),
(501,631,o),
(415,700,o),
(275,700,cs),
(145,700,l),
(145,568,l),
(265,568,ls),
(306,568,o),
(345,546,o),
(345,491,cs),
(345,436,o),
(306,414,o),
(265,414,cs),
(105,414,l),
(105,290,l),
(265,290,ls),
(309,290,o),
(350,267,o),
(350,211,cs),
(350,155,o),
(309,132,o),
(265,132,cs),
(145,132,l),
(145,0,l)
);
},
{
closed = 1;
nodes = (
(205,0,l),
(205,700,l),
(45,700,l),
(45,0,l)
);
}
);
userData = {
com.hugojourdan.ColorFlow = {
"0" = 0;
"1" = 0;
"10" = 0;
"11" = 0;
"2" = 0;
"3" = 0;
"4" = 0;
"5" = 0;
"6" = 0;
"7" = 0;
"8" = 0;
"9" = 0;
};
};
width = 545;
},
{
anchors = (
{
name = bottom;
pos = (263,0);
},
{
name = center;
pos = (263,350);
},
{
name = top;
pos = (263,700);
}
);
associatedMasterId = "8DAFC702-8226-41F4-8BBE-2050DDC1B01E";
color = 0;
layerId = "7A454557-E56A-46CF-93F5-87B86D06E197";
name = "Feb 26, 25 at 18:09";
shapes = (
{
closed = 1;
nodes = (
(255,0,ls),
(385,0,o),
(475,70,o),
(475,188,cs),
(475,308,o),
(384,376,o),
(277,376,c),
(271,355,l),
(372,355,o),
(460,406,o),
(460,519,cs),
(460,630,o),
(374,700,o),
(249,700,cs),
(125,700,l),
(125,628,l),
(249,628,ls),
(316,628,o),
(379,597,o),
(379,512,cs),
(379,427,o),
(316,397,o),
(249,397,cs),
(125,397,l),
(125,327,l),
(255,327,ls),
(328,327,o),
(395,287,o),
(395,200,cs),
(395,112,o),
(328,72,o),
(255,72,cs),
(125,72,l),
(125,0,l)
);
},
{
closed = 1;
nodes = (
(145,0,l),
(145,700,l),
(65,700,l),
(65,0,l)
);
}
);
width = 525;
},
{
anchors = (
{
name = bottom;
pos = (273,0);
},
{
name = center;
pos = (273,350);
},
{
name = top;
pos = (273,700);
}
);
associatedMasterId = m01;
color = 5;
layerId = "D30EDFD5-16C4-4669-ABBE-1DEA114F2892";
name = "Feb 26, 25 at 18:09";
shapes = (
{
closed = 1;
nodes = (
(275,0,ls),
(421,0,o),
(510,61,o),
(510,180,cs),
(510,300,o),
(418,360,o),
(307,360,c),
(302,350,l),
(407,350,o),
(496,409,o),
(496,522,cs),
(496,632,o),
(410,700,o),
(270,700,cs),
(145,700,l),
(145,568,l),
(260,568,ls),
(301,568,o),
(340,547,o),
(340,494,cs),
(340,440,o),
(301,419,o),
(260,419,cs),
(105,419,l),
(105,295,l),
(265,295,ls),
(309,295,o),
(350,271,o),
(350,214,cs),
(350,156,o),
(309,132,o),
(265,132,cs),
(145,132,l),
(145,0,l)
);
},
{
closed = 1;
nodes = (
(205,0,l),
(205,700,l),
(45,700,l),
(45,0,l)
);
}
);
userData = {
com.hugojourdan.ColorFlow = {
"0" = 0;
"1" = 0;
"10" = 0;
"11" = 0;
"2" = 0;
"3" = 0;
"4" = 0;
"5" = 0;
"6" = 0;
"7" = 0;
"8" = 0;
"9" = 0;
};
};
width = 545;
},
{
anchors = (
{
name = bottom;
pos = (273,0);
},
{
name = center;
pos = (273,350);
},
{
name = top;
pos = (273,700);
}
);
associatedMasterId = "8DAFC702-8226-41F4-8BBE-2050DDC1B01E";
color = 0;
layerId = "6ADC2359-10C2-42F2-ABF4-E1C1AF6D0E01";
name = "Feb 27, 25 at 19:16";
shapes = (
{
closed = 1;
nodes = (
(275,0,ls),
(407,0,o),
(498,68,o),
(498,183,cs),
(498,300,o),
(406,366,o),
(297,366,c),
(291,345,l),
(393,345,o),
(482,394,o),
(482,504,cs),
(482,612,o),
(395,680,o),
(269,680,cs),
(135,680,l),
(135,610,l),
(269,610,ls),
(336,610,o),
(399,579,o),
(399,497,cs),
(399,416,o),
(336,387,o),
(269,387,cs),
(135,387,l),
(135,317,l),
(275,317,ls),
(348,317,o),
(415,279,o),
(415,195,cs),
(415,109,o),
(348,70,o),
(275,70,cs),
(135,70,l),
(135,0,l)
);
},
{
closed = 1;
nodes = (
(157,0,l),
(157,680,l),
(75,680,l),
(75,0,l)
);
}
);
width = 545;
},
{
anchors = (
{
name = bottom;
pos = (298,0);
},
{
name = center;
pos = (298,350);
},
{
name = top;
pos = (298,700);
}
);
associatedMasterId = "8DAFC702-8226-41F4-8BBE-2050DDC1B01E";
background = {
shapes = (
{
ref = P;
}
);
};
color = 0;
layerId = "DD3AB578-2F89-4EF4-99E3-156965520C9B";
name = "Feb 27, 25 at 19:31";
shapes = (
{
closed = 1;
nodes = (
(313,0,ls),
(445,0,o),
(538,70,o),
(538,183,cs),
(538,298,o),
(445,366,o),
(335,366,c),
(329,345,l),
(432,345,o),
(522,402,o),
(522,504,cs),
(522,611,o),
(433,680,o),
(307,680,cs),
(160,680,l),
(160,606,l),
(307,606,ls),
(382,606,o),
(437,569,o),
(437,497,cs),
(437,425,o),
(382,388,o),
(307,388,cs),
(160,388,l),
(160,315,l),
(313,315,ls),
(394,315,o),
(453,272,o),
(453,195,cs),
(453,118,o),
(394,74,o),
(313,74,cs),
(160,74,l),
(160,0,l)
);
},
{
closed = 1;
nodes = (
(182,0,l),
(182,680,l),
(96,680,l),
(96,0,l)
);
}
);
width = 592;
},
{
anchors = (
{
name = bottom;
pos = (273,0);
},
{
name = center;
pos = (273,350);
},
{
name = top;
pos = (273,700);
}
);
associatedMasterId = m01;
color = 5;
layerId = "2A1A9E0D-A404-4CC9-8671-C26A0DA62A91";
name = "Mar 1, 25 at 13:58";
shapes = (
{
closed = 1;
nodes = (
(275,0,ls),
(421,0,o),
(510,61,o),
(510,180,cs),
(510,300,o),
(418,360,o),
(307,360,c),
(302,350,l),
(407,350,o),
(496,409,o),
(496,522,cs),
(496,632,o),
(410,700,o),
(270,700,cs),
(145,700,l),
(145,568,l),
(260,568,ls),
(301,568,o),
(340,547,o),
(340,494,cs),
(340,440,o),
(301,419,o),
(260,419,cs),
(105,419,l),
(105,295,l),
(265,295,ls),
(309,295,o),
(350,271,o),
(350,214,cs),
(350,156,o),
(309,132,o),
(265,132,cs),
(145,132,l),
(145,0,l)
);
},
{
closed = 1;
nodes = (
(205,0,l),
(205,700,l),
(45,700,l),
(45,0,l)
);
}
);
userData = {
com.hugojourdan.ColorFlow = {
"0" = 0;
"1" = 0;
"10" = 0;
"11" = 0;
"2" = 0;
"3" = 0;
"4" = 0;
"5" = 0;
"6" = 0;
"7" = 0;
"8" = 0;
"9" = 0;
};
};
width = 545;
},
{
anchors = (
{
name = bottom;
pos = (293,0);
},
{
name = center;
pos = (293,350);
},
{
name = top;
pos = (293,700);
}
);
associatedMasterId = m01;
color = 6;
layerId = "9F4399FF-6A96-4167-A9BB-054FC479F162";
name = "Mar 1, 25 at 20:33";
shapes = (
{
closed = 1;
nodes = (
(345,0,ls),
(487,0,o),
(578,68,o),
(578,185,cs),
(578,295,o),
(492,360,o),
(377,360,c),
(367,330,l),
(479,330,o),
(559,392,o),
(559,497,cs),
(559,610,o),
(471,680,o),
(335,680,cs),
(165,680,l),
(165,552,l),
(325,552,ls),
(371,552,o),
(405,526,o),
(405,480,cs),
(405,434,o),
(371,409,o),
(325,409,cs),
(125,409,l),
(125,285,l),
(335,285,ls),
(384,285,o),
(420,257,o),
(420,208,cs),
(420,157,o),
(384,128,o),
(335,128,cs),
(165,128,l),
(165,0,l)
);
},
{
closed = 1;
nodes = (
(219,0,l),
(219,680,l),
(65,680,l),
(65,0,l)
);
}
);
userData = {
com.hugojourdan.ColorFlow = {
"0" = 0;
"1" = 0;
"10" = 0;
"11" = 0;
"2" = 0;
"3" = 0;
"4" = 0;
"5" = 0;
"6" = 0;
"7" = 0;
"8" = 0;
"9" = 0;
};
};
width = 606;
},
{
anchors = (
{
name = bottom;
pos = (293,0);
},
{
name = center;
pos = (293,350);
},
{
name = top;
pos = (293,700);
}
);
associatedMasterId = m01;
color = 6;
layerId = "B1A7206F-4986-45B7-B189-7DE25C9DC8E5";
name = "Mar 9, 25 at 21:10";
shapes = (
{
closed = 1;
nodes = (
(325,0,ls),
(467,0,o),
(558,68,o),
(558,185,cs),
(558,295,o),
(472,360,o),
(357,360,c),
(347,330,l),
(459,330,o),
(539,392,o),
(539,497,cs),
(539,610,o),
(451,680,o),
(315,680,cs),
(165,680,l),
(165,552,l),
(305,552,ls),
(351,552,o),
(385,526,o),
(385,480,cs),
(385,434,o),
(351,409,o),
(305,409,cs),
(125,409,l),
(125,285,l),
(315,285,ls),
(364,285,o),
(400,257,o),
(400,208,cs),
(400,157,o),
(364,128,o),
(315,128,cs),
(165,128,l),
(165,0,l)
);
},
{
closed = 1;
nodes = (
(219,0,l),
(219,680,l),
(65,680,l),
(65,0,l)
);
}
);
userData = {
com.hugojourdan.ColorFlow = {
"0" = 0;
"1" = 0;
"10" = 0;
"11" = 0;
"2" = 0;
"3" = 0;
"4" = 0;
"5" = 0;
"6" = 0;
"7" = 0;
"8" = 0;
"9" = 0;
};
};
width = 586;
},
{
anchors = (
{
name = bottom;
pos = (293,0);
},
{
name = center;
pos = (293,350);
},
{
name = top;
pos = (293,700);
}
);
associatedMasterId = m01;
color = 6;
layerId = "389E43F0-56C7-492F-AD41-D7B3C40726A8";
name = "Mar 26, 25 at 23:41";
shapes = (
{
closed = 1;
nodes = (
(348,0,ls),
(490,0,o),
(581,68,o),
(581,185,cs),
(581,295,o),
(495,360,o),
(380,360,c),
(370,341,l),
(482,341,o),
(562,401,o),
(562,503,cs),
(562,612,o),
(474,680,o),
(338,680,cs),
(165,680,l),
(165,558,l),
(325,558,ls),
(373,558,o),
(409,531,o),
(409,482,cs),
(409,433,o),
(373,407,o),
(325,407,cs),
(125,407,l),
(125,287,l),
(335,287,ls),
(386,287,o),
(424,258,o),
(424,206,cs),
(424,152,o),
(386,122,o),
(335,122,cs),
(165,122,l),
(165,0,l)
);
},
{
closed = 1;
nodes = (
(219,0,l),
(219,680,l),
(65,680,l),
(65,0,l)
);
}
);
userData = {
com.hugojourdan.ColorFlow = {
"0" = 0;
"1" = 0;
"10" = 0;
"11" = 0;
"2" = 0;
"3" = 0;
"4" = 0;
"5" = 0;
"6" = 0;
"7" = 0;
"8" = 0;
"9" = 0;
};
};
width = 602;
},
{
anchors = (
{
name = bottom;
pos = (298,0);
},
{
name = center;
pos = (298,350);
},
{
name = top;
pos = (298,700);
}
);
associatedMasterId = "8DAFC702-8226-41F4-8BBE-2050DDC1B01E";
background = {
shapes = (
{
ref = P;
}
);
};
color = 0;
layerId = "2313B62B-9850-4486-A2D6-7DEA77447218";
name = "Apr 14, 25 at 13:43";
shapes = (
{
closed = 1;
nodes = (
(327,0,ls),
(459,0,o),
(552,70,o),
(552,183,cs),
(552,298,o),
(459,366,o),
(349,366,c),
(343,345,l),
(446,345,o),
(536,402,o),
(536,504,cs),
(536,611,o),
(447,680,o),
(321,680,cs),
(160,680,l),
(160,606,l),
(321,606,ls),
(396,606,o),
(451,569,o),
(451,497,cs),
(451,425,o),
(396,388,o),
(321,388,cs),
(160,388,l),
(160,315,l),
(327,315,ls),
(408,315,o),
(467,272,o),
(467,195,cs),
(467,118,o),
(408,74,o),
(327,74,cs),
(160,74,l),
(160,0,l)
);
},
{
closed = 1;
nodes = (
(182,0,l),
(182,680,l),
(96,680,l),
(96,0,l)
);
}
);
width = 606;
},
{
anchors = (
{
name = bottom;
pos = (293,0);
},
{
name = center;
pos = (293,350);
},
{
name = top;
pos = (293,700);
}
);
associatedMasterId = m01;
color = 6;
layerId = "9F9DF42D-5331-4951-BC2B-84B57B32B2CF";
name = "Apr 14, 25 at 21:09";
shapes = (
{
closed = 1;
nodes = (
(348,0,ls),
(490,0,o),
(581,68,o),
(581,185,cs),
(581,295,o),
(495,360,o),
(380,360,c),
(370,341,l),
(482,341,o),
(562,401,o),
(562,503,cs),
(562,612,o),
(474,680,o),
(338,680,cs),
(165,680,l),
(165,560,l),
(325,560,ls),
(373,560,o),
(409,532,o),
(409,482,cs),
(409,432,o),
(373,405,o),
(325,405,cs),
(125,405,l),
(125,289,l),
(335,289,ls),
(386,289,o),
(424,259,o),
(424,206,cs),
(424,151,o),
(386,120,o),
(335,120,cs),
(165,120,l),
(165,0,l)
);
},
{
closed = 1;
nodes = (
(219,0,l),
(219,680,l),
(65,680,l),
(65,0,l)
);
}
);
userData = {
com.hugojourdan.ColorFlow = {
"0" = 0;
"1" = 0;
"10" = 0;
"11" = 0;
"2" = 0;
"3" = 0;
"4" = 0;
"5" = 0;
"6" = 0;
"7" = 0;
"8" = 0;
"9" = 0;
};
};
width = 602;
},
{
anchors = (
{
name = bottom;
pos = (276,0);
},
{
name = center;
pos = (276,350);
},
{
name = top;
pos = (276,700);
}
);
associatedMasterId = m01;
color = 1;
layerId = "94DE03DE-6697-4672-AC22-5FA695E18412";
name = "Jun 15, 25 at 14:18";
shapes = (
{
closed = 1;
nodes = (
(321,0,ls),
(462,0,o),
(553,70,o),
(553,190,cs),
(553,308,o),
(463,378,o),
(343,378,c),
(343,341,l),
(455,341,o),
(535,401,o),
(535,503,cs),
(535,612,o),
(447,680,o),
(311,680,cs),
(148,680,l),
(148,548,l),
(292,548,ls),
(340,548,o),
(376,523,o),
(376,478,cs),
(376,433,o),
(340,409,o),
(292,409,cs),
(108,409,l),
(108,285,l),
(302,285,ls),
(352,285,o),
(390,258,o),
(390,210,cs),
(390,160,o),
(352,132,o),
(302,132,cs),
(148,132,l),
(148,0,l)
);
},
{
closed = 1;
nodes = (
(210,0,l),
(210,680,l),
(48,680,l),
(48,0,l)
);
}
);
userData = {
com.hugojourdan.ColorFlow = {
"0" = 0;
"1" = 0;
"10" = 0;
"11" = 0;
"2" = 0;
"3" = 0;
"4" = 0;
"5" = 0;
"6" = 0;
"7" = 0;
"8" = 0;
"9" = 0;
};
};
width = 585;
},
{
anchors = (
{
name = bottom;
pos = (298,0);
},
{
name = center;
pos = (298,350);
},
{
name = top;
pos = (298,700);
}
);
associatedMasterId = "8DAFC702-8226-41F4-8BBE-2050DDC1B01E";
background = {
shapes = (
{
ref = P;
}
);
};
color = 1;
layerId = "8095FC49-C960-46BA-90C0-65E45AD396FE";
name = "Jun 15, 25 at 14:18";
shapes = (
{
closed = 1;
nodes = (
(325,0,ls),
(452,0,o),
(542,72,o),
(542,189,cs),
(542,309,o),
(449,377,o),
(339,377,c),
(333,345,l),
(436,345,o),
(526,402,o),
(526,506,cs),
(526,611,o),
(442,680,o),
(319,680,cs),
(160,680,l),
(160,600,l),
(311,600,ls),
(383,600,o),
(435,564,o),
(435,495,cs),
(435,425,o),
(383,390,o),
(311,390,cs),
(160,390,l),
(160,310,l),
(317,310,ls),
(395,310,o),
(451,268,o),
(451,195,cs),
(451,122,o),
(395,80,o),
(317,80,cs),
(160,80,l),
(160,0,l)
);
},
{
closed = 1;
nodes = (
(188,0,l),
(188,680,l),
(96,680,l),
(96,0,l)
);
}
);
width = 596;
},
{
anchors = (
{
name = bottom;
pos = (296,0);
},
{
name = center;
pos = (296,350);
},
{
name = top;
pos = (296,700);
}
);
associatedMasterId = "8DAFC702-8226-41F4-8BBE-2050DDC1B01E";
background = {
shapes = (
{
ref = P;
}
);
};
layerId = "1C5AD661-7FAE-4A2F-ADF8-E86F1916F617";
name = "Jun 16, 25 at 01:37";
shapes = (
{
closed = 1;
nodes = (
(318,0,ls),
(446,0,o),
(536,72,o),
(536,190,cs),
(536,313,o),
(443,379,o),
(332,379,c),
(332,349,l),
(429,349,o),
(519,403,o),
(519,509,cs),
(519,611,o),
(435,680,o),
(312,680,cs),
(94,680,l),
(94,0,l)
);
},
{
closed = 1;
nodes = (
(186,314,l),
(310,314,ls),
(388,314,o),
(444,275,o),
(444,195,cs),
(444,114,o),
(388,76,o),
(310,76,cs),
(186,76,l)
);
},
{
closed = 1;
nodes = (
(186,604,l),
(305,604,ls),
(378,604,o),
(430,569,o),
(430,497,cs),
(430,424,o),
(378,390,o),
(305,390,cs),
(186,390,l)
);
}
);
width = 589;
},
{
anchors = (
{
name = bottom;
pos = (282,0);
},
{
name = center;
pos = (282,350);
},
{
name = top;
pos = (282,700);
}
);
associatedMasterId = m01;
layerId = "258D122D-0049-4FA2-9F07-428D5C6AC6E4";
name = "Jun 16, 25 at 01:37";
shapes = (
{
closed = 1;
nodes = (
(314,0,ls),
(459,0,o),
(553,71,o),
(553,192,cs),
(553,313,o),
(463,376,o),
(343,376,c),
(349,360,l),
(455,360,o),
(531,414,o),
(531,512,cs),
(531,622,o),
(438,680,o),
(307,680,cs),
(54,680,l),
(54,0,l)
);
},
{
closed = 1;
nodes = (
(216,291,l),
(302,291,ls),
(352,291,o),
(390,261,o),
(390,207,cs),
(390,153,o),
(352,124,o),
(302,124,cs),
(216,124,l)
);
},
{
closed = 1;
nodes = (
(216,556,l),
(293,556,ls),
(342,556,o),
(377,531,o),
(377,483,cs),
(377,435,o),
(342,409,o),
(293,409,cs),
(216,409,l)
);
}
);
userData = {
com.hugojourdan.ColorFlow = {
"0" = 0;
"1" = 0;
"10" = 0;
"11" = 0;
"2" = 0;
"3" = 0;
"4" = 0;
"5" = 0;
"6" = 0;
"7" = 0;
"8" = 0;
"9" = 0;
};
};
visible = 1;
width = 578;
}
);
metricLeft = H;
unicode = 66;
userData = {
KernOnName = B;
};
}
{
glyphname = C;
kernLeft = O;
kernRight = C;
layers = (
{
anchors = (
{
name = bottom;
pos = (370,0);
},
{
name = top;
pos = (370,680);
}
);
background = {
shapes = (
{
ref = O;
}
);
};
layerId = m01;
shapes = (
{
closed = 1;
nodes = (
(563,660,l),
(523,678,o),
(469,692,o),
(402,692,cs),
(186,692,o),
(28,548,o),
(28,336,cs),
(28,128,o),
(177,-12,o),
(397,-12,cs),
(468,-12,o),
(520,3,o),
(563,21,c),
(563,165,l),
(521,140,o),
(470,126,o),
(418,126,cs),
(286,126,o),
(200,221,o),
(200,343,cs),
(200,464,o),
(283,554,o),
(418,554,cs),
(468,554,o),
(518,542,o),
(563,515,c)
);
}
);
userData = {
com.hugojourdan.ColorFlow = {
"0" = 0;
"1" = 0;
"10" = 0;
"11" = 0;
"2" = 0;
"3" = 0;
"4" = 0;
"5" = 0;
"6" = 0;
"7" = 0;
"8" = 0;
"9" = 0;
};
};
width = 599;
},
{
associatedMasterId = m01;
background = {
shapes = (
{
ref = O;
}
);
};
color = 0;
layerId = "B6179610-EC1A-449B-9B4C-0AE415AF6C60";
name = "Oct 13, 22, 17:20";
shapes = (
{
closed = 1;
nodes = (
(590,675,l),
(538,697,o),
(472,715,o),
(390,715,cs),
(173,715,o),
(20,564,o),
(20,350,cs),
(20,136,o),
(173,-15,o),
(390,-15,cs),
(472,-15,o),
(538,3,o),
(590,25,c),
(590,205,l),
(541,169,o),
(476,145,o),
(405,145,cs),
(266,145,o),
(186,231,o),
(186,350,cs),
(186,470,o),
(266,555,o),
(405,555,cs),
(476,555,o),
(542,532,o),
(590,495,c)
);
}
);
userData = {
com.hugojourdan.ColorFlow = {
"0" = 0;
"1" = 0;
"10" = 0;
"11" = 0;
"2" = 0;
"3" = 0;
"4" = 0;
"5" = 0;
"6" = 0;
"7" = 0;
"8" = 0;
"9" = 0;
};
};
width = 610;
},
{
associatedMasterId = m01;
background = {
shapes = (
{
ref = O;
}
);
};
color = 1;
layerId = "7839C7A2-8C55-4215-8F11-B26E4D1C59E2";
name = "Oct 20, 22, 14:06";
shapes = (
{
closed = 1;
nodes = (
(595,672,l),
(543,694,o),
(477,712,o),
(395,712,cs),
(178,712,o),
(25,562,o),
(25,350,cs),
(25,138,o),
(178,-12,o),
(395,-12,cs),
(477,-12,o),
(543,6,o),
(595,28,c),
(595,196,l),
(524,163,o),
(465,142,o),
(404,142,cs),
(272,142,o),
(189,233,o),
(189,350,cs),
(189,468,o),
(272,558,o),
(404,558,cs),
(465,558,o),
(525,538,o),
(595,504,c)
);
}
);
userData = {
com.hugojourdan.ColorFlow = {
"0" = 0;
"1" = 0;
"10" = 0;
"11" = 0;
"2" = 0;
"3" = 0;
"4" = 0;
"5" = 0;
"6" = 0;
"7" = 0;
"8" = 0;
"9" = 0;
};
};
width = 620;
},
{
anchors = (
{
name = bottom;
pos = (376,0);
},
{
name = top;
pos = (376,680);
}
);
background = {
shapes = (
{
ref = O;
}
);
};
layerId = "8DAFC702-8226-41F4-8BBE-2050DDC1B01E";
shapes = (
{
closed = 1;
nodes = (
(577,653,l),
(536,677,o),
(478,692,o),
(406,692,cs),
(198,692,o),
(48,545,o),
(48,340,cs),
(48,133,o),
(196,-12,o),
(406,-12,cs),
(478,-12,o),
(536,3,o),
(577,29,c),
(577,118,l),
(525,82,o),
(468,66,o),
(410,66,cs),
(252,66,o),
(146,188,o),
(146,340,cs),
(146,496,o),
(250,614,o),
(410,614,cs),
(471,614,o),
(528,597,o),
(577,562,c)
);
}
);
width = 637;
},
{
associatedMasterId = "8DAFC702-8226-41F4-8BBE-2050DDC1B01E";
layerId = "98424248-B072-46DF-8A69-560A05E23574";
name = "Nov 17, 22, 15:36";
shapes = (
{
closed = 1;
nodes = (
(605,672,l),
(553,694,o),
(487,712,o),
(410,712,cs),
(196,712,o),
(45,560,o),
(45,350,cs),
(45,140,o),
(196,-12,o),
(410,-12,cs),
(487,-12,o),
(553,6,o),
(605,28,c),
(605,112,l),
(534,80,o),
(476,62,o),
(414,62,cs),
(240,62,o),
(127,191,o),
(127,350,cs),
(127,511,o),
(240,638,o),
(414,638,cs),
(476,638,o),
(535,621,o),
(605,588,c)
);
}
);
width = 640;
},
{
anchors = (
{
name = bottom;
pos = (366,0);
},
{
name = top;
pos = (366,700);
}
);
associatedMasterId = "8DAFC702-8226-41F4-8BBE-2050DDC1B01E";
layerId = "24365DD6-8897-4837-B670-09DC75796FC6";
name = "Jan 10, 23, 16:54";
shapes = (
{
closed = 1;
nodes = (
(597,668,l),
(545,690,o),
(479,708,o),
(402,708,cs),
(193,708,o),
(45,560,o),
(45,350,cs),
(45,140,o),
(193,-8,o),
(402,-8,cs),
(479,-8,o),
(545,10,o),
(597,32,c),
(597,116,l),
(526,84,o),
(468,66,o),
(406,66,cs),
(237,66,o),
(127,191,o),
(127,350,cs),
(127,511,o),
(237,634,o),
(406,634,cs),
(468,634,o),
(527,617,o),
(597,584,c)
);
}
);
width = 632;
},
{
anchors = (
{
name = bottom;
pos = (360,0);
},
{
name = top;
pos = (360,700);
}
);
associatedMasterId = m01;
background = {
shapes = (
{
ref = O;
}
);
};
color = 0;
layerId = "14394CF9-2D8B-4A34-8D87-9E17716B15D7";
name = "Jan 10, 23, 16:54";
shapes = (
{
closed = 1;
nodes = (
(595,672,l),
(543,694,o),
(477,712,o),
(400,712,cs),
(180,712,o),
(25,560,o),
(25,350,cs),
(25,140,o),
(180,-12,o),
(400,-12,cs),
(477,-12,o),
(543,6,o),
(595,28,c),
(595,196,l),
(524,163,o),
(466,142,o),
(404,142,cs),
(274,142,o),
(189,235,o),
(189,350,cs),
(189,466,o),
(274,558,o),
(404,558,cs),
(466,558,o),
(525,538,o),
(595,504,c)
);
}
);
userData = {
com.hugojourdan.ColorFlow = {
"0" = 0;
"1" = 0;
"10" = 0;
"11" = 0;
"2" = 0;
"3" = 0;
"4" = 0;
"5" = 0;
"6" = 0;
"7" = 0;
"8" = 0;
"9" = 0;
};
};
width = 620;
},
{
anchors = (
{
name = bottom;
pos = (366,0);
},
{
name = top;
pos = (366,700);
}
);
associatedMasterId = "8DAFC702-8226-41F4-8BBE-2050DDC1B01E";
color = 4;
layerId = "F6CC0AA3-D309-4BA1-80B8-7527CBAA8386";
name = "Jan 13, 23, 17:18";
shapes = (
{
closed = 1;
nodes = (
(597,668,l),
(543,689,o),
(479,708,o),
(401,708,cs),
(193,708,o),
(45,560,o),
(45,350,cs),
(45,140,o),
(193,-8,o),
(401,-8,cs),
(479,-8,o),
(543,11,o),
(597,32,c),
(597,116,l),
(524,85,o),
(468,66,o),
(405,66,cs),
(237,66,o),
(127,191,o),
(127,350,cs),
(127,511,o),
(237,634,o),
(405,634,cs),
(468,634,o),
(525,616,o),
(597,584,c)
);
}
);
width = 632;
},
{
anchors = (
{
name = bottom;
pos = (360,0);
},
{
name = top;
pos = (360,700);
}
);
associatedMasterId = m01;
background = {
shapes = (
{
ref = O;
}
);
};
color = 0;
layerId = "EFE68105-4E62-4ECE-94FF-558FF79C542A";
name = "Feb 26, 25 at 16:49";
shapes = (
{
closed = 1;
nodes = (
(595,672,l),
(543,694,o),
(477,712,o),
(400,712,cs),
(180,712,o),
(25,560,o),
(25,350,cs),
(25,140,o),
(180,-12,o),
(400,-12,cs),
(477,-12,o),
(543,6,o),
(595,28,c),
(595,196,l),
(524,163,o),
(466,142,o),
(404,142,cs),
(274,142,o),
(189,235,o),
(189,350,cs),
(189,466,o),
(274,558,o),
(404,558,cs),
(466,558,o),
(525,538,o),
(595,504,c)
);
}
);
userData = {
com.hugojourdan.ColorFlow = {
"0" = 0;
"1" = 0;
"10" = 0;
"11" = 0;
"2" = 0;
"3" = 0;
"4" = 0;
"5" = 0;
"6" = 0;
"7" = 0;
"8" = 0;
"9" = 0;
};
};
width = 620;
},
{
anchors = (
{
name = bottom;
pos = (366,0);
},
{
name = top;
pos = (366,700);
}
);
associatedMasterId = "8DAFC702-8226-41F4-8BBE-2050DDC1B01E";
color = 0;
layerId = "879A2C3B-72D6-4CAE-9886-6B55E82016B1";
name = "Feb 26, 25 at 16:50";
shapes = (
{
closed = 1;
nodes = (
(597,668,l),
(543,689,o),
(479,708,o),
(401,708,cs),
(193,708,o),
(45,560,o),
(45,350,cs),
(45,140,o),
(193,-8,o),
(401,-8,cs),
(479,-8,o),
(543,11,o),
(597,32,c),
(597,116,l),
(528,85,o),
(468,66,o),
(405,66,cs),
(237,66,o),
(127,191,o),
(127,350,cs),
(127,511,o),
(237,634,o),
(405,634,cs),
(468,634,o),
(529,616,o),
(597,584,c)
);
}
);
width = 632;
},
{
anchors = (
{
name = bottom;
pos = (376,0);
},
{
name = top;
pos = (376,700);
}
);
associatedMasterId = "8DAFC702-8226-41F4-8BBE-2050DDC1B01E";
background = {
shapes = (
{
ref = O;
}
);
};
color = 4;
layerId = "C84B869B-F275-4451-8B47-E1EB52B69DBE";
name = "Feb 27, 25 at 17:37";
shapes = (
{
closed = 1;
nodes = (
(577,643,l),
(535,670,o),
(475,688,o),
(401,688,cs),
(200,688,o),
(55,543,o),
(55,340,cs),
(55,135,o),
(198,-8,o),
(401,-8,cs),
(475,-8,o),
(535,11,o),
(577,42,c),
(577,128,l),
(527,86,o),
(465,68,o),
(405,68,cs),
(245,68,o),
(139,189,o),
(139,340,cs),
(139,495,o),
(243,612,o),
(405,612,cs),
(465,612,o),
(526,595,o),
(577,554,c)
);
}
);
width = 642;
},
{
anchors = (
{
name = bottom;
pos = (360,0);
},
{
name = top;
pos = (360,700);
}
);
associatedMasterId = m01;
background = {
shapes = (
{
ref = O;
}
);
};
color = 0;
layerId = "C2C9DF2A-F2A9-42ED-B493-8152E5AC63DA";
name = "Mar 1, 25 at 14:05";
shapes = (
{
closed = 1;
nodes = (
(555,652,l),
(518,674,o),
(459,692,o),
(390,692,cs),
(176,692,o),
(25,544,o),
(25,340,cs),
(25,136,o),
(176,-12,o),
(390,-12,cs),
(459,-12,o),
(518,6,o),
(555,28,c),
(555,196,l),
(511,163,o),
(449,142,o),
(394,142,cs),
(270,142,o),
(189,231,o),
(189,340,cs),
(189,450,o),
(270,538,o),
(394,538,cs),
(449,538,o),
(512,518,o),
(555,484,c)
);
}
);
userData = {
com.hugojourdan.ColorFlow = {
"0" = 0;
"1" = 0;
"10" = 0;
"11" = 0;
"2" = 0;
"3" = 0;
"4" = 0;
"5" = 0;
"6" = 0;
"7" = 0;
"8" = 0;
"9" = 0;
};
};
width = 620;
},
{
anchors = (
{
name = bottom;
pos = (371,0);
},
{
name = top;
pos = (371,700);
}
);
associatedMasterId = m01;
background = {
shapes = (
{
ref = O;
}
);
};
color = 6;
layerId = "71B18BA7-7929-4EF1-99C2-60B277CCEA35";
name = "Mar 1, 25 at 21:59";
shapes = (
{
closed = 1;
nodes = (
(566,654,l),
(526,675,o),
(472,692,o),
(405,692,cs),
(191,692,o),
(36,544,o),
(36,340,cs),
(36,136,o),
(191,-12,o),
(405,-12,cs),
(474,-12,o),
(528,5,o),
(566,26,c),
(566,179,l),
(523,144,o),
(469,126,o),
(409,126,cs),
(283,126,o),
(196,222,o),
(196,340,cs),
(196,459,o),
(283,554,o),
(409,554,cs),
(469,554,o),
(524,536,o),
(566,501,c)
);
}
);
userData = {
com.hugojourdan.ColorFlow = {
"0" = 0;
"1" = 0;
"10" = 0;
"11" = 0;
"2" = 0;
"3" = 0;
"4" = 0;
"5" = 0;
"6" = 0;
"7" = 0;
"8" = 0;
"9" = 0;
};
};
width = 610;
},
{
anchors = (
{
name = bottom;
pos = (371,0);
},
{
name = top;
pos = (371,700);
}
);
associatedMasterId = m01;
background = {
shapes = (
{
ref = O;
}
);
};
color = 6;
layerId = "51794E40-C73E-4027-8535-EF0A3FD8B6B8";
name = "Mar 9, 25 at 20:38";
shapes = (
{
closed = 1;
nodes = (
(551,659,l),
(512,676,o),
(462,688,o),
(402,688,cs),
(189,688,o),
(36,542,o),
(36,340,cs),
(36,138,o),
(189,-8,o),
(402,-8,cs),
(462,-8,o),
(511,4,o),
(551,21,c),
(551,166,l),
(509,142,o),
(464,130,o),
(415,130,cs),
(283,130,o),
(196,224,o),
(196,340,cs),
(196,457,o),
(283,550,o),
(415,550,cs),
(464,550,o),
(510,538,o),
(551,514,c)
);
}
);
userData = {
com.hugojourdan.ColorFlow = {
"0" = 0;
"1" = 0;
"10" = 0;
"11" = 0;
"2" = 0;
"3" = 0;
"4" = 0;
"5" = 0;
"6" = 0;
"7" = 0;
"8" = 0;
"9" = 0;
};
};
width = 596;
},
{
anchors = (
{
name = bottom;
pos = (369,0);
},
{
name = top;
pos = (369,700);
}
);
associatedMasterId = "8DAFC702-8226-41F4-8BBE-2050DDC1B01E";
background = {
shapes = (
{
ref = O;
}
);
};
color = 0;
layerId = "1E672EBD-1B71-4000-86E3-29E337E80531";
name = "Apr 14, 25 at 02:30";
shapes = (
{
closed = 1;
nodes = (
(575,654,l),
(534,677,o),
(476,692,o),
(404,692,cs),
(197,692,o),
(48,545,o),
(48,340,cs),
(48,133,o),
(195,-12,o),
(404,-12,cs),
(476,-12,o),
(534,3,o),
(575,28,c),
(575,118,l),
(526,82,o),
(466,66,o),
(408,66,cs),
(246,66,o),
(138,188,o),
(138,340,cs),
(138,496,o),
(244,614,o),
(408,614,cs),
(468,614,o),
(525,599,o),
(575,562,c)
);
}
);
width = 635;
},
{
anchors = (
{
name = bottom;
pos = (371,0);
},
{
name = top;
pos = (371,700);
}
);
associatedMasterId = m01;
background = {
shapes = (
{
ref = O;
}
);
};
color = 6;
layerId = "478CEBA3-E4C3-4E36-B16F-3780824281D9";
name = "Apr 14, 25 at 21:09";
shapes = (
{
closed = 1;
nodes = (
(561,652,l),
(520,672,o),
(468,688,o),
(400,688,cs),
(190,688,o),
(36,541,o),
(36,336,cs),
(36,135,o),
(182,-8,o),
(400,-8,cs),
(468,-8,o),
(519,8,o),
(561,28,c),
(561,181,l),
(517,147,o),
(465,130,o),
(411,130,cs),
(283,130,o),
(196,226,o),
(196,342,cs),
(196,458,o),
(280,550,o),
(411,550,cs),
(462,550,o),
(514,535,o),
(561,499,c)
);
}
);
userData = {
com.hugojourdan.ColorFlow = {
"0" = 0;
"1" = 0;
"10" = 0;
"11" = 0;
"2" = 0;
"3" = 0;
"4" = 0;
"5" = 0;
"6" = 0;
"7" = 0;
"8" = 0;
"9" = 0;
};
};
width = 599;
},
{
anchors = (
{
name = bottom;
pos = (359,0);
},
{
name = top;
pos = (359,700);
}
);
associatedMasterId = m01;
background = {
shapes = (
{
pos = (-12,0);
ref = O;
}
);
};
color = 1;
layerId = "8BAAFE22-BA1F-4445-B667-EA6B29994459";
name = "Jun 13, 25 at 19:12";
shapes = (
{
closed = 1;
nodes = (
(549,656,l),
(508,676,o),
(456,692,o),
(388,692,cs),
(178,692,o),
(24,543,o),
(24,336,cs),
(24,133,o),
(170,-12,o),
(388,-12,cs),
(456,-12,o),
(507,4,o),
(549,24,c),
(549,185,l),
(505,151,o),
(453,134,o),
(399,134,cs),
(276,134,o),
(192,228,o),
(192,342,cs),
(192,456,o),
(273,546,o),
(399,546,cs),
(450,546,o),
(502,531,o),
(549,495,c)
);
}
);
userData = {
com.hugojourdan.ColorFlow = {
"0" = 0;
"1" = 0;
"10" = 0;
"11" = 0;
"2" = 0;
"3" = 0;
"4" = 0;
"5" = 0;
"6" = 0;
"7" = 0;
"8" = 0;
"9" = 0;
};
};
width = 591;
},
{
anchors = (
{
name = bottom;
pos = (369,0);
},
{
name = top;
pos = (369,700);
}
);
associatedMasterId = "8DAFC702-8226-41F4-8BBE-2050DDC1B01E";
background = {
shapes = (
{
ref = O;
}
);
};
color = 1;
layerId = "6C6288BE-5E41-4715-9CF8-09E4113F8862";
name = "Jun 15, 25 at 22:36";
shapes = (
{
closed = 1;
nodes = (
(575,653,l),
(534,677,o),
(476,692,o),
(404,692,cs),
(197,692,o),
(48,545,o),
(48,340,cs),
(48,133,o),
(195,-12,o),
(404,-12,cs),
(476,-12,o),
(534,3,o),
(575,29,c),
(575,124,l),
(523,88,o),
(466,72,o),
(408,72,cs),
(250,72,o),
(144,191,o),
(144,340,cs),
(144,493,o),
(248,608,o),
(408,608,cs),
(469,608,o),
(526,591,o),
(575,556,c)
);
}
);
width = 635;
}
);
metricLeft = O;
unicode = 67;
userData = {
KernOnName = C;
};
}
{
glyphname = D;
kernLeft = H;
kernRight = O;
layers = (
{
anchors = (
{
name = bottom;
pos = (324,0);
},
{
name = center;
pos = (324,350);
},
{
name = top;
pos = (324,680);
}
);
background = {
shapes = (
{
pos = (-77,0);
ref = O;
}
);
};
layerId = m01;
shapes = (
{
closed = 1;
nodes = (
(294,0,ls),
(533,0,o),
(680,128,o),
(680,342,cs),
(680,556,o),
(533,680,o),
(294,680,cs),
(54,680,l),
(54,0,l)
);
},
{
closed = 1;
nodes = (
(216,544,l),
(294,544,ls),
(431,544,o),
(512,461,o),
(512,336,cs),
(512,211,o),
(431,136,o),
(294,136,cs),
(216,136,l)
);
}
);
userData = {
com.hugojourdan.ColorFlow = {
"0" = 0;
"1" = 0;
"10" = 0;
"11" = 0;
"2" = 0;
"3" = 0;
"4" = 0;
"5" = 0;
"6" = 0;
"7" = 0;
"8" = 0;
"9" = 0;
};
};
width = 708;
},
{
associatedMasterId = m01;
background = {
shapes = (
{
pos = (10,0);
ref = O;
}
);
};
color = 0;
layerId = "84734830-45B2-49ED-8EEB-C4015D3F61BE";
name = "Oct 17, 22, 15:52";
shapes = (
{
closed = 1;
nodes = (
(40,0,l),
(200,0,l),
(200,657,l),
(40,657,l)
);
},
{
closed = 1;
nodes = (
(504,226,o),
(434,156,o),
(280,156,cs),
(40,156,l),
(40,0,l),
(280,0,ls),
(521,0,o),
(670,125,o),
(670,350,cs),
(670,575,o),
(521,700,o),
(280,700,cs),
(40,700,l),
(40,544,l),
(280,544,ls),
(434,544,o),
(504,474,o),
(504,350,cs)
);
}
);
userData = {
com.hugojourdan.ColorFlow = {
"0" = 0;
"1" = 0;
"10" = 0;
"11" = 0;
"2" = 0;
"3" = 0;
"4" = 0;
"5" = 0;
"6" = 0;
"7" = 0;
"8" = 0;
"9" = 0;
};
};
width = 690;
},
{
associatedMasterId = m01;
background = {
shapes = (
{
pos = (10,0);
ref = O;
}
);
};
color = 1;
layerId = "03306A28-7CC6-4802-9285-7D1CF11946AC";
name = "Oct 20, 22, 14:07";
shapes = (
{
closed = 1;
nodes = (
(45,0,l),
(205,0,l),
(205,657,l),
(45,657,l)
);
},
{
closed = 1;
nodes = (
(499,223,o),
(429,152,o),
(275,152,cs),
(45,152,l),
(45,0,l),
(275,0,ls),
(516,0,o),
(665,125,o),
(665,350,cs),
(665,575,o),
(516,700,o),
(275,700,cs),
(45,700,l),
(45,548,l),
(275,548,ls),
(429,548,o),
(499,477,o),
(499,350,cs)
);
}
);
userData = {
com.hugojourdan.ColorFlow = {
"0" = 0;
"1" = 0;
"10" = 0;
"11" = 0;
"2" = 0;
"3" = 0;
"4" = 0;
"5" = 0;
"6" = 0;
"7" = 0;
"8" = 0;
"9" = 0;
};
};
width = 690;
},
{
anchors = (
{
name = bottom;
pos = (334,0);
},
{
name = center;
pos = (334,350);
},
{
name = top;
pos = (334,680);
}
);
background = {
shapes = (
{
pos = (-81,0);
ref = O;
}
);
};
layerId = "8DAFC702-8226-41F4-8BBE-2050DDC1B01E";
shapes = (
{
closed = 1;
nodes = (
(296,0,ls),
(512,0,o),
(666,127,o),
(666,340,cs),
(666,555,o),
(514,680,o),
(296,680,cs),
(94,680,l),
(94,0,l)
);
},
{
closed = 1;
nodes = (
(186,604,l),
(286,604,ls),
(475,604,o),
(570,502,o),
(570,340,cs),
(570,176,o),
(477,76,o),
(286,76,cs),
(186,76,l)
);
}
);
width = 714;
},
{
anchors = (
{
name = bottom;
pos = (278,0);
},
{
name = center;
pos = (278,350);
},
{
name = top;
pos = (278,700);
}
);
associatedMasterId = "8DAFC702-8226-41F4-8BBE-2050DDC1B01E";
layerId = "02C21A2F-D38B-4EF7-BE1C-912BD20446B4";
name = "Jan 13, 23, 17:23";
shapes = (
{
closed = 1;
nodes = (
(65,0,l),
(145,0,l),
(145,657,l),
(65,657,l)
);
},
{
closed = 1;
nodes = (
(509,180,o),
(414,74,o),
(205,74,cs),
(65,74,l),
(65,0,l),
(205,0,ls),
(444,0,o),
(591,130,o),
(591,350,cs),
(591,570,o),
(444,700,o),
(205,700,cs),
(65,700,l),
(65,626,l),
(205,626,ls),
(414,626,o),
(509,520,o),
(509,350,cs)
);
}
);
width = 636;
},
{
anchors = (
{
name = bottom;
pos = (315,0);
},
{
name = center;
pos = (315,350);
},
{
name = top;
pos = (315,700);
}
);
associatedMasterId = m01;
background = {
shapes = (
{
pos = (10,0);
ref = O;
}
);
};
color = 0;
layerId = "F88E9831-0E54-4D0C-8F42-D5B1F465A310";
name = "Jan 13, 23, 17:23";
shapes = (
{
closed = 1;
nodes = (
(45,0,l),
(205,0,l),
(205,657,l),
(45,657,l)
);
},
{
closed = 1;
nodes = (
(499,228,o),
(429,152,o),
(275,152,cs),
(45,152,l),
(45,0,l),
(275,0,ls),
(516,0,o),
(665,130,o),
(665,350,cs),
(665,570,o),
(516,700,o),
(275,700,cs),
(45,700,l),
(45,548,l),
(275,548,ls),
(429,548,o),
(499,472,o),
(499,350,cs)
);
}
);
userData = {
com.hugojourdan.ColorFlow = {
"0" = 0;
"1" = 0;
"10" = 0;
"11" = 0;
"2" = 0;
"3" = 0;
"4" = 0;
"5" = 0;
"6" = 0;
"7" = 0;
"8" = 0;
"9" = 0;
};
};
width = 690;
},
{
anchors = (
{
name = bottom;
pos = (278,0);
},
{
name = center;
pos = (278,350);
},
{
name = top;
pos = (278,700);
}
);
associatedMasterId = "8DAFC702-8226-41F4-8BBE-2050DDC1B01E";
color = 0;
layerId = "D7F3EAD3-86DA-4039-999D-7161F22BA17A";
name = "Feb 26, 25 at 16:54";
shapes = (
{
closed = 1;
nodes = (
(65,0,l),
(145,0,l),
(145,700,l),
(65,700,l)
);
},
{
closed = 1;
nodes = (
(517,180,o),
(422,74,o),
(213,74,cs),
(105,74,l),
(105,0,l),
(213,0,ls),
(452,0,o),
(599,130,o),
(599,350,cs),
(599,570,o),
(452,700,o),
(213,700,cs),
(105,700,l),
(105,626,l),
(213,626,ls),
(422,626,o),
(517,520,o),
(517,350,cs)
);
}
);
width = 644;
},
{
anchors = (
{
name = bottom;
pos = (288,0);
},
{
name = center;
pos = (288,350);
},
{
name = top;
pos = (288,700);
}
);
associatedMasterId = "8DAFC702-8226-41F4-8BBE-2050DDC1B01E";
background = {
shapes = (
{
pos = (-130,0);
ref = O;
}
);
};
color = 4;
layerId = "7962945F-08DB-4D6E-A7E4-A1BE7B9C798B";
name = "Feb 27, 25 at 18:00";
shapes = (
{
closed = 1;
nodes = (
(75,0,l),
(155,0,l),
(155,680,l),
(75,680,l)
);
},
{
closed = 1;
nodes = (
(525,173,o),
(432,70,o),
(243,70,cs),
(115,70,l),
(115,0,l),
(253,0,ls),
(461,0,o),
(609,127,o),
(609,340,cs),
(609,555,o),
(463,680,o),
(253,680,cs),
(115,680,l),
(115,610,l),
(243,610,ls),
(430,610,o),
(525,505,o),
(525,340,cs)
);
}
);
width = 664;
},
{
anchors = (
{
name = bottom;
pos = (305,0);
},
{
name = center;
pos = (305,350);
},
{
name = top;
pos = (305,700);
}
);
associatedMasterId = m01;
background = {
shapes = (
{
ref = O;
}
);
};
color = 0;
layerId = "EA40333F-161A-431C-9551-CBF0AFB736F0";
name = "Mar 1, 25 at 14:09";
shapes = (
{
closed = 1;
nodes = (
(45,0,l),
(205,0,l),
(205,680,l),
(45,680,l)
);
},
{
closed = 1;
nodes = (
(489,224,o),
(422,152,o),
(275,152,cs),
(115,152,l),
(115,0,l),
(275,0,ls),
(510,0,o),
(655,126,o),
(655,340,cs),
(655,554,o),
(510,680,o),
(275,680,cs),
(115,680,l),
(115,528,l),
(275,528,ls),
(422,528,o),
(489,456,o),
(489,340,cs)
);
}
);
userData = {
com.hugojourdan.ColorFlow = {
"0" = 0;
"1" = 0;
"10" = 0;
"11" = 0;
"2" = 0;
"3" = 0;
"4" = 0;
"5" = 0;
"6" = 0;
"7" = 0;
"8" = 0;
"9" = 0;
};
};
width = 680;
},
{
anchors = (
{
name = bottom;
pos = (315,0);
},
{
name = center;
pos = (315,350);
},
{
name = top;
pos = (315,700);
}
);
associatedMasterId = "8DAFC702-8226-41F4-8BBE-2050DDC1B01E";
background = {
shapes = (
{
pos = (-103,0);
ref = O;
}
);
};
color = 0;
layerId = "5888119D-E2B0-4FDD-8240-403C0C76BE9C";
name = "Apr 14, 25 at 12:00";
shapes = (
{
closed = 1;
nodes = (
(96,0,l),
(182,0,l),
(182,680,l),
(96,680,l)
);
},
{
closed = 1;
nodes = (
(564,176,o),
(472,76,o),
(284,76,cs),
(142,76,l),
(142,0,l),
(294,0,ls),
(504,0,o),
(654,127,o),
(654,340,cs),
(654,555,o),
(506,680,o),
(294,680,cs),
(142,680,l),
(142,604,l),
(284,604,ls),
(470,604,o),
(564,502,o),
(564,340,cs)
);
}
);
width = 702;
},
{
anchors = (
{
name = bottom;
pos = (325,0);
},
{
name = center;
pos = (325,350);
},
{
name = top;
pos = (325,700);
}
);
associatedMasterId = m01;
background = {
shapes = (
{
pos = (20,0);
ref = O;
}
);
};
color = 6;
layerId = "5D0CBC08-3EC4-408C-AD7C-48A8C83D168C";
name = "Apr 14, 25 at 21:09";
shapes = (
{
closed = 1;
nodes = (
(65,0,l),
(221,0,l),
(221,680,l),
(65,680,l)
);
},
{
closed = 1;
nodes = (
(521,212,o),
(437,132,o),
(295,132,cs),
(135,132,l),
(135,0,l),
(295,0,ls),
(534,0,o),
(681,126,o),
(681,340,cs),
(681,554,o),
(534,680,o),
(295,680,cs),
(135,680,l),
(135,548,l),
(295,548,ls),
(437,548,o),
(521,468,o),
(521,340,cs)
);
}
);
userData = {
com.hugojourdan.ColorFlow = {
"0" = 0;
"1" = 0;
"10" = 0;
"11" = 0;
"2" = 0;
"3" = 0;
"4" = 0;
"5" = 0;
"6" = 0;
"7" = 0;
"8" = 0;
"9" = 0;
};
};
width = 717;
},
{
anchors = (
{
name = bottom;
pos = (308,0);
},
{
name = center;
pos = (308,350);
},
{
name = top;
pos = (308,700);
}
);
associatedMasterId = m01;
background = {
shapes = (
{
pos = (3,0);
ref = O;
}
);
};
color = 1;
layerId = "23359AA8-A7B6-4BE8-86D4-5FFD534C89E7";
name = "Jun 15, 25 at 00:02";
shapes = (
{
closed = 1;
nodes = (
(48,0,l),
(212,0,l),
(212,680,l),
(48,680,l)
);
},
{
closed = 1;
nodes = (
(496,217,o),
(415,140,o),
(278,140,cs),
(118,140,l),
(118,0,l),
(278,0,ls),
(517,0,o),
(664,126,o),
(664,340,cs),
(664,554,o),
(517,680,o),
(278,680,cs),
(118,680,l),
(118,540,l),
(278,540,ls),
(415,540,o),
(496,463,o),
(496,340,cs)
);
}
);
userData = {
com.hugojourdan.ColorFlow = {
"0" = 0;
"1" = 0;
"10" = 0;
"11" = 0;
"2" = 0;
"3" = 0;
"4" = 0;
"5" = 0;
"6" = 0;
"7" = 0;
"8" = 0;
"9" = 0;
};
};
width = 688;
},
{
anchors = (
{
name = bottom;
pos = (319,0);
},
{
name = center;
pos = (319,350);
},
{
name = top;
pos = (319,700);
}
);
associatedMasterId = "8DAFC702-8226-41F4-8BBE-2050DDC1B01E";
background = {
shapes = (
{
pos = (-99,0);
ref = O;
}
);
};
color = 1;
layerId = "76F98E0D-FA0D-456E-BBF8-D6E3242E8C5A";
name = "Jun 15, 25 at 00:03";
shapes = (
{
closed = 1;
nodes = (
(96,0,l),
(288,0,ls),
(498,0,o),
(648,127,o),
(648,340,cs),
(648,555,o),
(500,680,o),
(288,680,cs),
(96,680,l)
);
},
{
closed = 1;
nodes = (
(552,180,o),
(462,82,o),
(278,82,cs),
(152,82,l),
(188,46,l),
(188,634,l),
(152,598,l),
(278,598,ls),
(460,598,o),
(552,498,o),
(552,340,cs)
);
}
);
width = 696;
}
);
metricLeft = H;
metricRight = O;
unicode = 68;
}
{
glyphname = E;
kernLeft = H;
kernRight = E;
layers = (
{
anchors = (
{
name = bottom;
pos = (244,0);
},
{
name = ogonek;
pos = (462,0);
},
{
name = top;
pos = (244,680);
},
{
name = topleft;
pos = (29,680);
}
);
layerId = m01;
shapes = (
{
closed = 1;
nodes = (
(54,680,l),
(54,0,l),
(462,0,l),
(462,138,l),
(218,138,l),
(218,282,l),
(446,282,l),
(446,418,l),
(218,418,l),
(218,542,l),
(460,542,l),
(460,680,l)
);
}
);
userData = {
com.hugojourdan.ColorFlow = {
"0" = 0;
"1" = 0;
"10" = 0;
"11" = 0;
"2" = 0;
"3" = 0;
"4" = 0;
"5" = 0;
"6" = 0;
"7" = 0;
"8" = 0;
"9" = 0;
};
};
width = 508;
},
{
associatedMasterId = m01;
color = 0;
layerId = "2B639FC2-D6A8-4085-B404-993394CC93E6";
name = "Oct 17, 22, 15:34";
shapes = (
{
closed = 1;
nodes = (
(30,547,l),
(390,547,l),
(390,700,l),
(30,700,l)
);
},
{
closed = 1;
nodes = (
(30,0,l),
(190,0,l),
(190,657,l),
(30,657,l)
);
},
{
closed = 1;
nodes = (
(90,279,l),
(380,279,l),
(380,425,l),
(90,425,l)
);
},
{
closed = 1;
nodes = (
(30,0,l),
(390,0,l),
(390,153,l),
(30,153,l)
);
}
);
userData = {
com.hugojourdan.ColorFlow = {
"0" = 0;
"1" = 0;
"10" = 0;
"11" = 0;
"2" = 0;
"3" = 0;
"4" = 0;
"5" = 0;
"6" = 0;
"7" = 0;
"8" = 0;
"9" = 0;
};
};
width = 420;
},
{
associatedMasterId = m01;
color = 1;
layerId = "B22A09B9-AA26-4178-A766-4A6D6FF441B4";
name = "Oct 20, 22, 14:07";
shapes = (
{
closed = 1;
nodes = (
(35,547,l),
(425,547,l),
(425,700,l),
(35,700,l)
);
},
{
closed = 1;
nodes = (
(35,0,l),
(195,0,l),
(195,657,l),
(35,657,l)
);
},
{
closed = 1;
nodes = (
(95,279,l),
(415,279,l),
(415,425,l),
(95,425,l)
);
},
{
closed = 1;
nodes = (
(35,0,l),
(425,0,l),
(425,153,l),
(35,153,l)
);
}
);
userData = {
com.hugojourdan.ColorFlow = {
"0" = 0;
"1" = 0;
"10" = 0;
"11" = 0;
"2" = 0;
"3" = 0;
"4" = 0;
"5" = 0;
"6" = 0;
"7" = 0;
"8" = 0;
"9" = 0;
};
};
width = 460;
},
{
anchors = (
{
name = bottom;
pos = (280,0);
},
{
name = ogonek;
pos = (470,0);
},
{
name = top;
pos = (280,680);
},
{
name = topleft;
pos = (49,680);
}
);
layerId = "8DAFC702-8226-41F4-8BBE-2050DDC1B01E";
shapes = (
{
closed = 1;
nodes = (
(94,680,l),
(94,0,l),
(470,0,l),
(470,76,l),
(186,76,l),
(186,314,l),
(454,314,l),
(454,390,l),
(186,390,l),
(186,604,l),
(468,604,l),
(468,680,l)
);
}
);
width = 524;
},
{
associatedMasterId = "8DAFC702-8226-41F4-8BBE-2050DDC1B01E";
layerId = "8460D8B8-77FF-4A4C-A9A6-4C5D380C1C9D";
name = "Nov 17, 22, 15:39";
shapes = (
{
closed = 1;
nodes = (
(65,626,l),
(435,626,l),
(435,700,l),
(65,700,l)
);
},
{
closed = 1;
nodes = (
(65,0,l),
(145,0,l),
(145,657,l),
(65,657,l)
);
},
{
closed = 1;
nodes = (
(125,317,l),
(425,317,l),
(425,387,l),
(125,387,l)
);
},
{
closed = 1;
nodes = (
(65,0,l),
(435,0,l),
(435,74,l),
(65,74,l)
);
}
);
width = 490;
},
{
anchors = (
{
name = bottom;
pos = (235,0);
},
{
name = ogonek;
pos = (435,0);
},
{
name = top;
pos = (235,700);
},
{
name = topleft;
pos = (20,700);
}
);
associatedMasterId = m01;
color = 0;
layerId = "88E0B9D1-0512-4FFE-9E62-7FA74A28EF31";
name = "Feb 24, 25 at 19:35";
shapes = (
{
closed = 1;
nodes = (
(145,550,l),
(435,550,l),
(435,700,l),
(145,700,l)
);
},
{
closed = 1;
nodes = (
(45,0,l),
(205,0,l),
(205,700,l),
(45,700,l)
);
},
{
closed = 1;
nodes = (
(145,281,l),
(425,281,l),
(425,423,l),
(145,423,l)
);
},
{
closed = 1;
nodes = (
(145,0,l),
(435,0,l),
(435,150,l),
(145,150,l)
);
}
);
userData = {
com.hugojourdan.ColorFlow = {
"0" = 0;
"1" = 0;
"10" = 0;
"11" = 0;
"2" = 0;
"3" = 0;
"4" = 0;
"5" = 0;
"6" = 0;
"7" = 0;
"8" = 0;
"9" = 0;
};
};
width = 470;
},
{
anchors = (
{
name = bottom;
pos = (245,0);
},
{
name = ogonek;
pos = (435,0);
},
{
name = top;
pos = (245,700);
},
{
name = topleft;
pos = (20,700);
}
);
associatedMasterId = "8DAFC702-8226-41F4-8BBE-2050DDC1B01E";
color = 0;
layerId = "25B42908-D995-43BA-B485-B44A9012C46B";
name = "Feb 26, 25 at 16:55";
shapes = (
{
closed = 1;
nodes = (
(125,626,l),
(435,626,l),
(435,700,l),
(125,700,l)
);
},
{
closed = 1;
nodes = (
(65,0,l),
(145,0,l),
(145,700,l),
(65,700,l)
);
},
{
closed = 1;
nodes = (
(125,324,l),
(417,324,l),
(417,396,l),
(125,396,l)
);
},
{
closed = 1;
nodes = (
(125,0,l),
(435,0,l),
(435,74,l),
(125,74,l)
);
}
);
width = 490;
},
{
anchors = (
{
name = bottom;
pos = (255,0);
},
{
name = ogonek;
pos = (445,0);
},
{
name = top;
pos = (255,700);
},
{
name = topleft;
pos = (30,700);
}
);
associatedMasterId = "8DAFC702-8226-41F4-8BBE-2050DDC1B01E";
color = 4;
layerId = "48DDFE17-C8CD-4CE5-BBC0-6ACA35C414B2";
name = "Feb 27, 25 at 18:03";
shapes = (
{
closed = 1;
nodes = (
(135,610,l),
(445,610,l),
(445,680,l),
(135,680,l)
);
},
{
closed = 1;
nodes = (
(75,0,l),
(157,0,l),
(157,680,l),
(75,680,l)
);
},
{
closed = 1;
nodes = (
(135,316,l),
(437,316,l),
(437,386,l),
(135,386,l)
);
},
{
closed = 1;
nodes = (
(135,0,l),
(445,0,l),
(445,70,l),
(135,70,l)
);
}
);
width = 500;
},
{
anchors = (
{
name = bottom;
pos = (235,0);
},
{
name = ogonek;
pos = (435,0);
},
{
name = top;
pos = (235,700);
},
{
name = topleft;
pos = (20,700);
}
);
associatedMasterId = m01;
color = 0;
layerId = "A3E6B37C-DD76-42DF-A6B5-EEED4EDA180E";
name = "Mar 1, 25 at 13:33";
shapes = (
{
closed = 1;
nodes = (
(145,530,l),
(435,530,l),
(435,680,l),
(145,680,l)
);
},
{
closed = 1;
nodes = (
(45,0,l),
(205,0,l),
(205,680,l),
(45,680,l)
);
},
{
closed = 1;
nodes = (
(145,271,l),
(425,271,l),
(425,413,l),
(145,413,l)
);
},
{
closed = 1;
nodes = (
(145,0,l),
(435,0,l),
(435,150,l),
(145,150,l)
);
}
);
userData = {
com.hugojourdan.ColorFlow = {
"0" = 0;
"1" = 0;
"10" = 0;
"11" = 0;
"2" = 0;
"3" = 0;
"4" = 0;
"5" = 0;
"6" = 0;
"7" = 0;
"8" = 0;
"9" = 0;
};
};
width = 470;
},
{
anchors = (
{
name = bottom;
pos = (255,0);
},
{
name = ogonek;
pos = (455,0);
},
{
name = top;
pos = (255,700);
},
{
name = topleft;
pos = (40,700);
}
);
associatedMasterId = m01;
color = 6;
layerId = "02E4DB78-FC96-43F6-8D63-1F5FD223A0B0";
name = "Mar 9, 25 at 21:19";
shapes = (
{
closed = 1;
nodes = (
(165,548,l),
(475,548,l),
(475,680,l),
(165,680,l)
);
},
{
closed = 1;
nodes = (
(65,0,l),
(219,0,l),
(219,680,l),
(65,680,l)
);
},
{
closed = 1;
nodes = (
(165,276,l),
(465,276,l),
(465,408,l),
(165,408,l)
);
},
{
closed = 1;
nodes = (
(165,0,l),
(475,0,l),
(475,132,l),
(165,132,l)
);
}
);
userData = {
com.hugojourdan.ColorFlow = {
"0" = 0;
"1" = 0;
"10" = 0;
"11" = 0;
"2" = 0;
"3" = 0;
"4" = 0;
"5" = 0;
"6" = 0;
"7" = 0;
"8" = 0;
"9" = 0;
};
};
width = 527;
},
{
anchors = (
{
name = bottom;
pos = (276,0);
},
{
name = ogonek;
pos = (466,0);
},
{
name = top;
pos = (276,700);
},
{
name = topleft;
pos = (51,700);
}
);
associatedMasterId = "8DAFC702-8226-41F4-8BBE-2050DDC1B01E";
color = 0;
layerId = "82BE5974-6162-4937-917D-F3081275C83D";
name = "Apr 14, 25 at 02:27";
shapes = (
{
closed = 1;
nodes = (
(156,606,l),
(476,606,l),
(476,680,l),
(156,680,l)
);
},
{
closed = 1;
nodes = (
(96,0,l),
(182,0,l),
(182,680,l),
(96,680,l)
);
},
{
closed = 1;
nodes = (
(156,314,l),
(468,314,l),
(468,388,l),
(156,388,l)
);
},
{
closed = 1;
nodes = (
(156,0,l),
(476,0,l),
(476,74,l),
(156,74,l)
);
}
);
width = 531;
},
{
anchors = (
{
name = bottom;
pos = (255,0);
},
{
name = ogonek;
pos = (455,0);
},
{
name = top;
pos = (255,700);
},
{
name = topleft;
pos = (40,700);
}
);
associatedMasterId = m01;
color = 6;
layerId = "358954C4-7219-4E1C-9201-9D4E4B7A756F";
name = "Apr 14, 25 at 21:09";
shapes = (
{
closed = 1;
nodes = (
(165,548,l),
(481,548,l),
(481,680,l),
(165,680,l)
);
},
{
closed = 1;
nodes = (
(65,0,l),
(219,0,l),
(219,680,l),
(65,680,l)
);
},
{
closed = 1;
nodes = (
(165,286,l),
(467,286,l),
(467,418,l),
(165,418,l)
);
},
{
closed = 1;
nodes = (
(165,0,l),
(485,0,l),
(485,132,l),
(165,132,l)
);
}
);
userData = {
com.hugojourdan.ColorFlow = {
"0" = 0;
"1" = 0;
"10" = 0;
"11" = 0;
"2" = 0;
"3" = 0;
"4" = 0;
"5" = 0;
"6" = 0;
"7" = 0;
"8" = 0;
"9" = 0;
};
};
width = 537;
},
{
anchors = (
{
name = bottom;
pos = (274,0);
},
{
name = ogonek;
pos = (464,0);
},
{
name = top;
pos = (274,700);
},
{
name = topleft;
pos = (49,700);
}
);
associatedMasterId = "8DAFC702-8226-41F4-8BBE-2050DDC1B01E";
color = 1;
layerId = "55931F9B-D3E8-4802-8EC3-8AC840E4BB97";
name = "Jun 13, 25 at 14:08";
shapes = (
{
closed = 1;
nodes = (
(154,598,l),
(468,598,l),
(468,680,l),
(154,680,l)
);
},
{
closed = 1;
nodes = (
(94,0,l),
(186,0,l),
(186,680,l),
(94,680,l)
);
},
{
closed = 1;
nodes = (
(154,311,l),
(454,311,l),
(454,392,l),
(154,392,l)
);
},
{
closed = 1;
nodes = (
(154,0,l),
(470,0,l),
(470,82,l),
(154,82,l)
);
}
);
width = 524;
},
{
anchors = (
{
name = bottom;
pos = (238,0);
},
{
name = ogonek;
pos = (438,0);
},
{
name = top;
pos = (238,700);
},
{
name = topleft;
pos = (23,700);
}
);
associatedMasterId = m01;
color = 1;
layerId = "E056045E-506E-4F84-9A09-A7C86355AF01";
name = "Jun 13, 25 at 18:58";
shapes = (
{
closed = 1;
nodes = (
(48,680,l),
(48,0,l),
(466,0,l),
(466,140,l),
(212,140,l),
(212,283,l),
(450,283,l),
(450,421,l),
(212,421,l),
(212,540,l),
(464,540,l),
(464,680,l)
);
}
);
userData = {
com.hugojourdan.ColorFlow = {
"0" = 0;
"1" = 0;
"10" = 0;
"11" = 0;
"2" = 0;
"3" = 0;
"4" = 0;
"5" = 0;
"6" = 0;
"7" = 0;
"8" = 0;
"9" = 0;
};
};
width = 510;
}
);
metricLeft = H;
unicode = 69;
userData = {
KernOnName = E;
};
}
